CooperHewitt-MediumItalic.ufo
<glyph name="exclam" format="1">
  <advance width="234"/>
  <unicode hex="0021"/>
  <outline>
    <contour>
      <point x="108" y="780" type="line"/>
      <point x="59" y="203" type="line"/>
      <point x="129" y="203" type="line"/>
      <point x="232" y="780" type="line"/>
    </contour>
    <contour>
      <point x="140" y="114" type="line"/>
      <point x="26" y="114" type="line"/>
      <point x="11" y="0" type="line"/>
      <point x="125" y="0" type="line"/>
    </contour>
  </outline>
</glyph>
<glyph name="quotedbl" format="1">
  <advance width="377"/>
  <unicode hex="0022"/>
  <outline>
    <contour>
      <point x="114" y="780" type="line"/>
      <point x="94" y="492" type="line"/>
      <point x="170" y="492" type="line"/>
      <point x="217" y="780" type="line"/>
    </contour>
    <contour>
      <point x="265" y="780" type="line"/>
      <point x="237" y="492" type="line"/>
      <point x="312" y="492" type="line"/>
      <point x="369" y="780" type="line"/>
    </contour>
  </outline>
</glyph>
<glyph name="numbersign" format="1">
  <advance width="600"/>
  <unicode hex="0023"/>
  <outline>
    <contour>
      <point x="372" y="780" type="line"/>
      <point x="281" y="780" type="line"/>
      <point x="206" y="560" type="line"/>
      <point x="107" y="560" type="line"/>
      <point x="95" y="469" type="line"/>
      <point x="175" y="469" type="line"/>
      <point x="121" y="311" type="line"/>
      <point x="21" y="311" type="line"/>
      <point x="9" y="220" type="line"/>
      <point x="90" y="220" type="line"/>
      <point x="16" y="0" type="line"/>
      <point x="107" y="0" type="line"/>
      <point x="181" y="220" type="line"/>
      <point x="305" y="220" type="line"/>
      <point x="231" y="0" type="line"/>
      <point x="322" y="0" type="line"/>
      <point x="396" y="220" type="line"/>
      <point x="496" y="220" type="line"/>
      <point x="508" y="311" type="line"/>
      <point x="427" y="311" type="line"/>
      <point x="481" y="469" type="line"/>
      <point x="582" y="469" type="line"/>
      <point x="594" y="560" type="line"/>
      <point x="512" y="560" type="line"/>
      <point x="587" y="780" type="line"/>
      <point x="496" y="780" type="line"/>
      <point x="421" y="560" type="line"/>
      <point x="297" y="560" type="line"/>
    </contour>
    <contour>
      <point x="266" y="469" type="line"/>
      <point x="390" y="469" type="line"/>
      <point x="336" y="311" type="line"/>
      <point x="212" y="311" type="line"/>
    </contour>
  </outline>
</glyph>
<glyph name="dollar" format="1">
  <advance width="600"/>
  <unicode hex="0024"/>
  <outline>
    <contour>
      <point x="177" y="-60" type="line"/>
      <point x="220" y="56" type="line"/>
      <point x="238" y="53"/>
      <point x="257" y="52"/>
      <point x="278" y="52" type="curve" smooth="yes"/>
      <point x="407" y="52"/>
      <point x="511" y="121"/>
      <point x="525" y="235" type="curve" smooth="yes"/>
      <point x="526" y="243" type="line" smooth="yes"/>
      <point x="540" y="356"/>
      <point x="469" y="409"/>
      <point x="359" y="431" type="curve"/>
      <point x="427" y="615" type="line"/>
      <point x="452" y="594"/>
      <point x="464" y="557"/>
      <point x="453" y="495" type="curve"/>
      <point x="554" y="495" type="line"/>
      <point x="555" y="502" type="line" smooth="yes"/>
      <point x="568" y="591"/>
      <point x="544" y="669"/>
      <point x="460" y="706" type="curve"/>
      <point x="510" y="840" type="line"/>
      <point x="427" y="840" type="line"/>
      <point x="385" y="726" type="line"/>
      <point x="369" y="728"/>
      <point x="353" y="729"/>
      <point x="335" y="729" type="curve" smooth="yes"/>
      <point x="193" y="729"/>
      <point x="99" y="667"/>
      <point x="85" y="552" type="curve" smooth="yes"/>
      <point x="84" y="544" type="line" smooth="yes"/>
      <point x="72" y="457"/>
      <point x="111" y="385"/>
      <point x="250" y="361" type="curve"/>
      <point x="178" y="166" type="line"/>
      <point x="151" y="186"/>
      <point x="137" y="220"/>
      <point x="144" y="276" type="curve"/>
      <point x="43" y="276" type="line"/>
      <point x="42" y="269" type="line" smooth="yes"/>
      <point x="29" y="181"/>
      <point x="67" y="112"/>
      <point x="145" y="77" type="curve"/>
      <point x="94" y="-60" type="line"/>
    </contour>
    <contour>
      <point x="422" y="243" type="curve" smooth="yes"/>
      <point x="421" y="235" type="line" smooth="yes"/>
      <point x="412" y="166"/>
      <point x="354" y="141"/>
      <point x="282" y="141" type="curve" smooth="yes"/>
      <point x="274" y="141" type="line" smooth="yes"/>
      <point x="266" y="141"/>
      <point x="259" y="141"/>
      <point x="252" y="142" type="curve"/>
      <point x="328" y="348" type="line"/>
      <point x="402" y="330"/>
      <point x="428" y="297"/>
    </contour>
    <contour>
      <point x="188" y="544" type="curve" smooth="yes"/>
      <point x="189" y="552" type="line" smooth="yes"/>
      <point x="197" y="618"/>
      <point x="253" y="640"/>
      <point x="332" y="640" type="curve" smooth="yes"/>
      <point x="338" y="640" type="line" smooth="yes"/>
      <point x="343" y="640"/>
      <point x="348" y="640"/>
      <point x="353" y="639" type="curve"/>
      <point x="281" y="444" type="line"/>
      <point x="197" y="463"/>
      <point x="182" y="501"/>
    </contour>
  </outline>
</glyph>
<glyph name="ampersand" format="1">
  <advance width="671"/>
  <unicode hex="0026"/>
  <outline>
    <contour>
      <point x="225" y="-12" type="curve" smooth="yes"/>
      <point x="312" y="-12"/>
      <point x="374" y="14"/>
      <point x="438" y="61" type="curve"/>
      <point x="485" y="0" type="line"/>
      <point x="611" y="0" type="line"/>
      <point x="512" y="129" type="line"/>
      <point x="569" y="197"/>
      <point x="606" y="269"/>
      <point x="623" y="395" type="curve"/>
      <point x="517" y="395" type="line"/>
      <point x="516" y="387" type="line" smooth="yes"/>
      <point x="507" y="317"/>
      <point x="483" y="248"/>
      <point x="454" y="206" type="curve"/>
      <point x="298" y="409" type="line"/>
      <point x="393" y="467"/>
      <point x="477" y="511"/>
      <point x="490" y="605" type="curve" smooth="yes"/>
      <point x="493" y="627" type="line" smooth="yes"/>
      <point x="504" y="706"/>
      <point x="454" y="792"/>
      <point x="306" y="792" type="curve" smooth="yes"/>
      <point x="180" y="792"/>
      <point x="112" y="725"/>
      <point x="100" y="632" type="curve" smooth="yes"/>
      <point x="97" y="609" type="line" smooth="yes"/>
      <point x="87" y="533"/>
      <point x="114" y="487"/>
      <point x="162" y="423" type="curve"/>
      <point x="92" y="381"/>
      <point x="27" y="325"/>
      <point x="14" y="228" type="curve" smooth="yes"/>
      <point x="11" y="206" type="line" smooth="yes"/>
      <point x="-7" y="71"/>
      <point x="70" y="-12"/>
    </contour>
    <contour>
      <point x="232" y="79" type="line" smooth="yes"/>
      <point x="140" y="79"/>
      <point x="106" y="131"/>
      <point x="116" y="212" type="curve" smooth="yes"/>
      <point x="117" y="220" type="line" smooth="yes"/>
      <point x="125" y="283"/>
      <point x="164" y="322"/>
      <point x="213" y="356" type="curve"/>
      <point x="385" y="131" type="line"/>
      <point x="341" y="98"/>
      <point x="293" y="79"/>
      <point x="240" y="79" type="curve" smooth="yes"/>
    </contour>
    <contour>
      <point x="203" y="621" type="line" smooth="yes"/>
      <point x="209" y="666"/>
      <point x="242" y="701"/>
      <point x="300" y="701" type="curve" smooth="yes"/>
      <point x="308" y="701" type="line" smooth="yes"/>
      <point x="367" y="701"/>
      <point x="395" y="666"/>
      <point x="389" y="621" type="curve" smooth="yes"/>
      <point x="388" y="613" type="line" smooth="yes"/>
      <point x="381" y="553"/>
      <point x="313" y="516"/>
      <point x="247" y="476" type="curve"/>
      <point x="216" y="517"/>
      <point x="195" y="558"/>
      <point x="202" y="613" type="curve" smooth="yes"/>
    </contour>
  </outline>
</glyph>
<glyph name="quotesingle" format="1">
  <advance width="234"/>
  <unicode hex="0027"/>
  <outline>
    <contour>
      <point x="114" y="780" type="line"/>
      <point x="94" y="492" type="line"/>
      <point x="170" y="492" type="line"/>
      <point x="226" y="780" type="line"/>
    </contour>
  </outline>
</glyph>
<glyph name="parenleft" format="1">
  <advance width="334"/>
  <unicode hex="0028"/>
  <outline>
    <contour>
      <point x="43" y="349" type="line" smooth="yes"/>
      <point x="13" y="129"/>
      <point x="80" y="-40"/>
      <point x="133" y="-120" type="curve"/>
      <point x="240" y="-120" type="line"/>
      <point x="185" y="-30"/>
      <point x="116" y="137"/>
      <point x="145" y="349" type="curve" smooth="yes"/>
      <point x="148" y="371" type="line" smooth="yes"/>
      <point x="177" y="585"/>
      <point x="267" y="725"/>
      <point x="370" y="840" type="curve"/>
      <point x="254" y="840" type="line"/>
      <point x="167" y="755"/>
      <point x="79" y="611"/>
      <point x="46" y="371" type="curve" smooth="yes"/>
    </contour>
  </outline>
</glyph>
<glyph name="parenright" format="1">
  <advance width="334"/>
  <unicode hex="0029"/>
  <outline>
    <contour>
      <point x="287" y="371" type="line" smooth="yes"/>
      <point x="317" y="591"/>
      <point x="250" y="760"/>
      <point x="197" y="840" type="curve"/>
      <point x="90" y="840" type="line"/>
      <point x="145" y="750"/>
      <point x="214" y="583"/>
      <point x="185" y="371" type="curve" smooth="yes"/>
      <point x="182" y="349" type="line" smooth="yes"/>
      <point x="153" y="135"/>
      <point x="63" y="-5"/>
      <point x="-40" y="-120" type="curve"/>
      <point x="76" y="-120" type="line"/>
      <point x="163" y="-35"/>
      <point x="251" y="109"/>
      <point x="284" y="349" type="curve" smooth="yes"/>
    </contour>
  </outline>
</glyph>
<glyph name="asterisk" format="1">
  <advance width="397"/>
  <unicode hex="002A"/>
  <outline>
    <contour>
      <point x="222" y="800" type="line"/>
      <point x="208" y="659" type="line"/>
      <point x="263" y="659" type="line"/>
      <point x="287" y="800" type="line"/>
    </contour>
    <contour>
      <point x="42" y="638" type="line"/>
      <point x="174" y="599" type="line"/>
      <point x="198" y="652" type="line"/>
      <point x="72" y="701" type="line"/>
    </contour>
    <contour>
      <point x="122" y="438" type="line"/>
      <point x="217" y="556" type="line"/>
      <point x="176" y="588" type="line"/>
      <point x="74" y="477" type="line"/>
    </contour>
    <contour>
      <point x="411" y="701" type="line"/>
      <point x="271" y="652" type="line"/>
      <point x="281" y="599" type="line"/>
      <point x="423" y="638" type="line"/>
    </contour>
    <contour>
      <point x="349" y="477" type="line"/>
      <point x="277" y="588" type="line"/>
      <point x="228" y="556" type="line"/>
      <point x="291" y="438" type="line"/>
    </contour>
  </outline>
</glyph>
<glyph name="plus" format="1">
  <advance width="600"/>
  <unicode hex="002B"/>
  <outline>
    <contour>
      <point x="288" y="644" type="line"/>
      <point x="261" y="436" type="line"/>
      <point x="53" y="436" type="line"/>
      <point x="41" y="344" type="line"/>
      <point x="249" y="344" type="line"/>
      <point x="222" y="136" type="line"/>
      <point x="314" y="136" type="line"/>
      <point x="341" y="344" type="line"/>
      <point x="549" y="344" type="line"/>
      <point x="561" y="436" type="line"/>
      <point x="353" y="436" type="line"/>
      <point x="380" y="644" type="line"/>
    </contour>
  </outline>
</glyph>
<glyph name="hyphen" format="1">
  <advance width="337"/>
  <unicode hex="002D"/>
  <outline>
    <contour>
      <point x="31" y="305" type="line"/>
      <point x="288" y="305" type="line"/>
      <point x="300" y="395" type="line"/>
      <point x="43" y="395" type="line"/>
    </contour>
  </outline>
</glyph>
<glyph name="period" format="1">
  <advance width="234"/>
  <unicode hex="002E"/>
  <outline>
    <contour>
      <point x="140" y="114" type="line"/>
      <point x="26" y="114" type="line"/>
      <point x="11" y="0" type="line"/>
      <point x="125" y="0" type="line"/>
    </contour>
  </outline>
</glyph>
<glyph name="zero" format="1">
  <advance width="600"/>
  <unicode hex="0030"/>
  <outline>
    <contour>
      <point x="568" y="557" type="line" smooth="yes"/>
      <point x="586" y="695"/>
      <point x="517" y="792"/>
      <point x="340" y="792" type="curve" smooth="yes"/>
      <point x="172" y="792"/>
      <point x="100" y="705"/>
      <point x="80" y="557" type="curve" smooth="yes"/>
      <point x="36" y="223" type="line" smooth="yes"/>
      <point x="18" y="85"/>
      <point x="87" y="-12"/>
      <point x="264" y="-12" type="curve" smooth="yes"/>
      <point x="432" y="-12"/>
      <point x="504" y="75"/>
      <point x="524" y="223" type="curve" smooth="yes"/>
    </contour>
    <contour>
      <point x="423" y="230" type="line" smooth="yes"/>
      <point x="410" y="130"/>
      <point x="370" y="79"/>
      <point x="267" y="79" type="curve" smooth="yes"/>
      <point x="261" y="79" type="line" smooth="yes"/>
      <point x="161" y="79"/>
      <point x="127" y="134"/>
      <point x="139" y="229" type="curve" smooth="yes"/>
      <point x="181" y="550" type="line" smooth="yes"/>
      <point x="194" y="650"/>
      <point x="234" y="701"/>
      <point x="337" y="701" type="curve" smooth="yes"/>
      <point x="343" y="701" type="line" smooth="yes"/>
      <point x="443" y="701"/>
      <point x="477" y="646"/>
      <point x="465" y="551" type="curve" smooth="yes"/>
    </contour>
  </outline>
</glyph>
<glyph name="one" format="1">
  <advance width="600"/>
  <unicode hex="0031"/>
  <outline>
    <contour>
      <point x="504" y="0" type="line"/>
      <point x="516" y="92" type="line"/>
      <point x="324" y="92" type="line"/>
      <point x="415" y="783" type="line"/>
      <point x="344" y="783" type="line"/>
      <point x="77" y="617" type="line"/>
      <point x="120" y="539" type="line"/>
      <point x="295" y="648" type="line"/>
      <point x="222" y="92" type="line"/>
      <point x="29" y="92" type="line"/>
      <point x="17" y="0" type="line"/>
    </contour>
  </outline>
</glyph>
<glyph name="two" format="1">
  <advance width="600"/>
  <unicode hex="0032"/>
  <outline>
    <contour>
      <point x="237" y="92" type="line"/>
      <point x="164" y="91" type="line"/>
      <point x="458" y="366" type="line" smooth="yes"/>
      <point x="535" y="439"/>
      <point x="563" y="480"/>
      <point x="573" y="556" type="curve" smooth="yes"/>
      <point x="576" y="578" type="line" smooth="yes"/>
      <point x="592" y="697"/>
      <point x="516" y="792"/>
      <point x="346" y="792" type="curve" smooth="yes"/>
      <point x="180" y="792"/>
      <point x="98" y="708"/>
      <point x="74" y="547" type="curve" smooth="yes"/>
      <point x="70" y="520" type="line"/>
      <point x="173" y="520" type="line"/>
      <point x="190" y="650"/>
      <point x="248" y="701"/>
      <point x="340" y="701" type="curve" smooth="yes"/>
      <point x="348" y="701" type="line" smooth="yes"/>
      <point x="432" y="701"/>
      <point x="482" y="654"/>
      <point x="471" y="568" type="curve" smooth="yes"/>
      <point x="470" y="560" type="line" smooth="yes"/>
      <point x="462" y="500"/>
      <point x="441" y="471"/>
      <point x="380" y="413" type="curve" smooth="yes"/>
      <point x="11" y="67" type="line"/>
      <point x="2" y="0" type="line"/>
      <point x="499" y="0" type="line"/>
      <point x="511" y="92" type="line"/>
    </contour>
  </outline>
</glyph>
<glyph name="three" format="1">
  <advance width="600"/>
  <unicode hex="0033"/>
  <outline>
    <contour>
      <point x="132" y="250" type="curve"/>
      <point x="29" y="250" type="line"/>
      <point x="28" y="243" type="line" smooth="yes"/>
      <point x="6" y="87"/>
      <point x="85" y="-12"/>
      <point x="263" y="-12" type="curve" smooth="yes"/>
      <point x="418" y="-12"/>
      <point x="514" y="81"/>
      <point x="530" y="196" type="curve" smooth="yes"/>
      <point x="533" y="218" type="line" smooth="yes"/>
      <point x="546" y="312"/>
      <point x="502" y="378"/>
      <point x="426" y="400" type="curve"/>
      <point x="504" y="420"/>
      <point x="563" y="480"/>
      <point x="573" y="556" type="curve" smooth="yes"/>
      <point x="576" y="578" type="line" smooth="yes"/>
      <point x="592" y="697"/>
      <point x="516" y="792"/>
      <point x="346" y="792" type="curve" smooth="yes"/>
      <point x="180" y="792"/>
      <point x="98" y="708"/>
      <point x="74" y="547" type="curve" smooth="yes"/>
      <point x="70" y="520" type="line"/>
      <point x="173" y="520" type="line"/>
      <point x="190" y="650"/>
      <point x="246" y="701"/>
      <point x="340" y="701" type="curve" smooth="yes"/>
      <point x="348" y="701" type="line" smooth="yes"/>
      <point x="432" y="701"/>
      <point x="482" y="654"/>
      <point x="471" y="568" type="curve" smooth="yes"/>
      <point x="470" y="560" type="line" smooth="yes"/>
      <point x="460" y="478"/>
      <point x="398" y="443"/>
      <point x="316" y="443" type="curve" smooth="yes"/>
      <point x="209" y="443" type="line"/>
      <point x="197" y="353" type="line"/>
      <point x="308" y="353" type="line" smooth="yes"/>
      <point x="391" y="353"/>
      <point x="439" y="306"/>
      <point x="428" y="220" type="curve" smooth="yes"/>
      <point x="427" y="212" type="line" smooth="yes"/>
      <point x="416" y="121"/>
      <point x="343" y="79"/>
      <point x="267" y="79" type="curve" smooth="yes"/>
      <point x="259" y="79" type="line" smooth="yes"/>
      <point x="166" y="79"/>
      <point x="117" y="122"/>
    </contour>
  </outline>
</glyph>
<glyph name="four" format="1">
  <advance width="600"/>
  <unicode hex="0034"/>
  <outline>
    <contour>
      <point x="406" y="0" type="line"/>
      <point x="431" y="194" type="line"/>
      <point x="545" y="194" type="line"/>
      <point x="557" y="286" type="line"/>
      <point x="443" y="286" type="line"/>
      <point x="508" y="780" type="line"/>
      <point x="411" y="780" type="line"/>
      <point x="16" y="264" type="line"/>
      <point x="7" y="194" type="line"/>
      <point x="329" y="194" type="line"/>
      <point x="304" y="0" type="line"/>
    </contour>
    <contour>
      <point x="386" y="610" type="line"/>
      <point x="373" y="527" type="line"/>
      <point x="342" y="286" type="line"/>
      <point x="213" y="286" type="line"/>
      <point x="138" y="285" type="line"/>
    </contour>
  </outline>
</glyph>
<glyph name="five" format="1">
  <advance width="600"/>
  <unicode hex="0035"/>
  <outline>
    <contour>
      <point x="29" y="250" type="line"/>
      <point x="28" y="243" type="line" smooth="yes"/>
      <point x="6" y="87"/>
      <point x="85" y="-12"/>
      <point x="264" y="-12" type="curve" smooth="yes"/>
      <point x="418" y="-12"/>
      <point x="512" y="69"/>
      <point x="534" y="228" type="curve" smooth="yes"/>
      <point x="537" y="250" type="line" smooth="yes"/>
      <point x="558" y="406"/>
      <point x="466" y="499"/>
      <point x="315" y="499" type="curve" smooth="yes"/>
      <point x="256" y="499"/>
      <point x="190" y="479"/>
      <point x="157" y="441" type="curve"/>
      <point x="200" y="688" type="line"/>
      <point x="585" y="688" type="line"/>
      <point x="597" y="780" type="line"/>
      <point x="124" y="780" type="line"/>
      <point x="49" y="349" type="line"/>
      <point x="133" y="321" type="line"/>
      <point x="172" y="380"/>
      <point x="223" y="408"/>
      <point x="303" y="408" type="curve" smooth="yes"/>
      <point x="311" y="408" type="line" smooth="yes"/>
      <point x="395" y="408"/>
      <point x="446" y="348"/>
      <point x="432" y="240" type="curve" smooth="yes"/>
      <point x="431" y="232" type="line" smooth="yes"/>
      <point x="418" y="124"/>
      <point x="343" y="79"/>
      <point x="267" y="79" type="curve" smooth="yes"/>
      <point x="259" y="79" type="line" smooth="yes"/>
      <point x="166" y="79"/>
      <point x="117" y="122"/>
      <point x="132" y="250" type="curve"/>
    </contour>
  </outline>
</glyph>
<glyph name="six" format="1">
  <advance width="600"/>
  <unicode hex="0036"/>
  <outline>
    <contour>
      <point x="574" y="792" type="line"/>
      <point x="441" y="792"/>
      <point x="298" y="757"/>
      <point x="191" y="643" type="curve" smooth="yes"/>
      <point x="89" y="535"/>
      <point x="56" y="423"/>
      <point x="39" y="299" type="curve" smooth="yes"/>
      <point x="36" y="277" type="line" smooth="yes"/>
      <point x="13" y="106"/>
      <point x="104" y="-12"/>
      <point x="268" y="-12" type="curve" smooth="yes"/>
      <point x="418" y="-12"/>
      <point x="515" y="70"/>
      <point x="537" y="230" type="curve" smooth="yes"/>
      <point x="540" y="252" type="line" smooth="yes"/>
      <point x="562" y="412"/>
      <point x="453" y="491"/>
      <point x="330" y="491" type="curve" smooth="yes"/>
      <point x="261" y="491"/>
      <point x="202" y="460"/>
      <point x="167" y="419" type="curve"/>
      <point x="186" y="477"/>
      <point x="216" y="537"/>
      <point x="260" y="582" type="curve" smooth="yes"/>
      <point x="347" y="672"/>
      <point x="463" y="699"/>
      <point x="561" y="699" type="curve"/>
    </contour>
    <contour>
      <point x="309" y="399" type="line" smooth="yes"/>
      <point x="394" y="399"/>
      <point x="448" y="342"/>
      <point x="435" y="242" type="curve" smooth="yes"/>
      <point x="434" y="234" type="line" smooth="yes"/>
      <point x="422" y="136"/>
      <point x="362" y="80"/>
      <point x="273" y="80" type="curve" smooth="yes"/>
      <point x="267" y="80" type="line" smooth="yes"/>
      <point x="192" y="80"/>
      <point x="133" y="126"/>
      <point x="133" y="227" type="curve" smooth="yes"/>
      <point x="133" y="262"/>
      <point x="138" y="283"/>
      <point x="144" y="307" type="curve"/>
      <point x="181" y="368"/>
      <point x="238" y="399"/>
      <point x="303" y="399" type="curve" smooth="yes"/>
    </contour>
  </outline>
</glyph>
<glyph name="seven" format="1">
  <advance width="600"/>
  <unicode hex="0037"/>
  <outline>
    <contour>
      <point x="66" y="500" type="line"/>
      <point x="158" y="500" type="line"/>
      <point x="183" y="688" type="line"/>
      <point x="374" y="688" type="line"/>
      <point x="480" y="689" type="line"/>
      <point x="105" y="0" type="line"/>
      <point x="215" y="0" type="line"/>
      <point x="601" y="719" type="line"/>
      <point x="609" y="780" type="line"/>
      <point x="103" y="780" type="line"/>
    </contour>
  </outline>
</glyph>
<glyph name="eight" format="1">
  <advance width="600"/>
  <unicode hex="0038"/>
  <outline>
    <contour>
      <point x="262" y="-12" type="curve" smooth="yes"/>
      <point x="422" y="-12"/>
      <point x="514" y="81"/>
      <point x="530" y="196" type="curve" smooth="yes"/>
      <point x="533" y="218" type="line" smooth="yes"/>
      <point x="546" y="312"/>
      <point x="502" y="378"/>
      <point x="426" y="400" type="curve"/>
      <point x="504" y="420"/>
      <point x="561" y="466"/>
      <point x="573" y="556" type="curve" smooth="yes"/>
      <point x="576" y="578" type="line" smooth="yes"/>
      <point x="592" y="697"/>
      <point x="515" y="792"/>
      <point x="345" y="792" type="curve" smooth="yes"/>
      <point x="176" y="792"/>
      <point x="95" y="701"/>
      <point x="80" y="589" type="curve" smooth="yes"/>
      <point x="77" y="567" type="line" smooth="yes"/>
      <point x="65" y="480"/>
      <point x="122" y="417"/>
      <point x="187" y="402" type="curve"/>
      <point x="106" y="380"/>
      <point x="41" y="326"/>
      <point x="27" y="221" type="curve" smooth="yes"/>
      <point x="24" y="199" type="line" smooth="yes"/>
      <point x="8" y="79"/>
      <point x="97" y="-12"/>
    </contour>
    <contour>
      <point x="308" y="353" type="line" smooth="yes"/>
      <point x="391" y="353"/>
      <point x="439" y="306"/>
      <point x="428" y="220" type="curve" smooth="yes"/>
      <point x="427" y="212" type="line" smooth="yes"/>
      <point x="416" y="121"/>
      <point x="348" y="79"/>
      <point x="272" y="79" type="curve" smooth="yes"/>
      <point x="262" y="79" type="line" smooth="yes"/>
      <point x="180" y="79"/>
      <point x="118" y="120"/>
      <point x="129" y="209" type="curve" smooth="yes"/>
      <point x="130" y="217" type="line" smooth="yes"/>
      <point x="141" y="306"/>
      <point x="206" y="353"/>
      <point x="287" y="353" type="curve" smooth="yes"/>
    </contour>
    <contour>
      <point x="347" y="701" type="line" smooth="yes"/>
      <point x="431" y="701"/>
      <point x="482" y="654"/>
      <point x="471" y="568" type="curve" smooth="yes"/>
      <point x="470" y="560" type="line" smooth="yes"/>
      <point x="460" y="478"/>
      <point x="398" y="443"/>
      <point x="316" y="443" type="curve" smooth="yes"/>
      <point x="299" y="443" type="line" smooth="yes"/>
      <point x="225" y="443"/>
      <point x="170" y="485"/>
      <point x="180" y="565" type="curve" smooth="yes"/>
      <point x="181" y="573" type="line" smooth="yes"/>
      <point x="191" y="654"/>
      <point x="252" y="701"/>
      <point x="339" y="701" type="curve" smooth="yes"/>
    </contour>
  </outline>
</glyph>
<glyph name="nine" format="1">
  <advance width="600"/>
  <unicode hex="0039"/>
  <outline>
    <contour>
      <point x="29" y="-12" type="line"/>
      <point x="162" y="-12"/>
      <point x="305" y="23"/>
      <point x="412" y="137" type="curve" smooth="yes"/>
      <point x="514" y="245"/>
      <point x="547" y="357"/>
      <point x="564" y="481" type="curve" smooth="yes"/>
      <point x="567" y="503" type="line" smooth="yes"/>
      <point x="590" y="674"/>
      <point x="499" y="792"/>
      <point x="335" y="792" type="curve" smooth="yes"/>
      <point x="185" y="792"/>
      <point x="88" y="710"/>
      <point x="66" y="550" type="curve" smooth="yes"/>
      <point x="63" y="528" type="line" smooth="yes"/>
      <point x="41" y="368"/>
      <point x="150" y="289"/>
      <point x="273" y="289" type="curve" smooth="yes"/>
      <point x="342" y="289"/>
      <point x="401" y="320"/>
      <point x="436" y="361" type="curve"/>
      <point x="417" y="303"/>
      <point x="387" y="243"/>
      <point x="343" y="198" type="curve" smooth="yes"/>
      <point x="256" y="108"/>
      <point x="140" y="81"/>
      <point x="42" y="81" type="curve"/>
    </contour>
    <contour>
      <point x="294" y="381" type="line" smooth="yes"/>
      <point x="209" y="381"/>
      <point x="155" y="438"/>
      <point x="168" y="538" type="curve" smooth="yes"/>
      <point x="169" y="546" type="line" smooth="yes"/>
      <point x="181" y="644"/>
      <point x="241" y="700"/>
      <point x="330" y="700" type="curve" smooth="yes"/>
      <point x="336" y="700" type="line" smooth="yes"/>
      <point x="411" y="700"/>
      <point x="470" y="654"/>
      <point x="470" y="553" type="curve" smooth="yes"/>
      <point x="470" y="518"/>
      <point x="465" y="497"/>
      <point x="459" y="473" type="curve"/>
      <point x="422" y="412"/>
      <point x="365" y="381"/>
      <point x="300" y="381" type="curve" smooth="yes"/>
    </contour>
  </outline>
</glyph>
<glyph name="colon" format="1">
  <advance width="234"/>
  <unicode hex="003A"/>
  <outline>
    <contour>
      <point x="140" y="114" type="line"/>
      <point x="26" y="114" type="line"/>
      <point x="11" y="0" type="line"/>
      <point x="125" y="0" type="line"/>
    </contour>
    <contour>
      <point x="183" y="447" type="line"/>
      <point x="69" y="447" type="line"/>
      <point x="54" y="333" type="line"/>
      <point x="168" y="333" type="line"/>
    </contour>
  </outline>
</glyph>
<glyph name="less" format="1">
  <advance width="600"/>
  <unicode hex="003C"/>
  <outline>
    <contour>
      <point x="53" y="440" type="line"/>
      <point x="40" y="340" type="line"/>
      <point x="520" y="115" type="line"/>
      <point x="533" y="213" type="line"/>
      <point x="156" y="386" type="line"/>
      <point x="578" y="559" type="line"/>
      <point x="592" y="665" type="line"/>
    </contour>
  </outline>
</glyph>
<glyph name="equal" format="1">
  <advance width="600"/>
  <unicode hex="003D"/>
  <outline>
    <contour>
      <point x="55" y="448" type="line"/>
      <point x="563" y="448" type="line"/>
      <point x="575" y="540" type="line"/>
      <point x="67" y="540" type="line"/>
    </contour>
    <contour>
      <point x="27" y="240" type="line"/>
      <point x="535" y="240" type="line"/>
      <point x="547" y="332" type="line"/>
      <point x="39" y="332" type="line"/>
    </contour>
  </outline>
</glyph>
<glyph name="greater" format="1">
  <advance width="600"/>
  <unicode hex="003E"/>
  <outline>
    <contour>
      <point x="549" y="340" type="line"/>
      <point x="562" y="440" type="line"/>
      <point x="82" y="665" type="line"/>
      <point x="69" y="567" type="line"/>
      <point x="446" y="394" type="line"/>
      <point x="24" y="221" type="line"/>
      <point x="10" y="115" type="line"/>
    </contour>
  </outline>
</glyph>
<glyph name="question" format="1">
  <advance width="470"/>
  <unicode hex="003F"/>
  <outline>
    <contour>
      <point x="256" y="114" type="line"/>
      <point x="142" y="114" type="line"/>
      <point x="127" y="0" type="line"/>
      <point x="241" y="0" type="line"/>
    </contour>
    <contour>
      <point x="275" y="792" type="curve" smooth="yes"/>
      <point x="116" y="792"/>
      <point x="67" y="687"/>
      <point x="43" y="516" type="curve" smooth="yes"/>
      <point x="42" y="509" type="line"/>
      <point x="145" y="509" type="line"/>
      <point x="155" y="620"/>
      <point x="185" y="701"/>
      <point x="275" y="701" type="curve" smooth="yes"/>
      <point x="345" y="701"/>
      <point x="371" y="664"/>
      <point x="371" y="608" type="curve" smooth="yes"/>
      <point x="371" y="461"/>
      <point x="192" y="415"/>
      <point x="175" y="203" type="curve"/>
      <point x="244" y="203" type="line"/>
      <point x="276" y="399"/>
      <point x="476" y="407"/>
      <point x="476" y="615" type="curve" smooth="yes"/>
      <point x="476" y="727"/>
      <point x="424" y="792"/>
    </contour>
  </outline>
</glyph>
<glyph name="at" format="1">
  <advance width="971"/>
  <unicode hex="0040"/>
  <outline>
    <contour>
      <point x="446" y="-140" type="line" smooth="yes"/>
      <point x="218" y="-140"/>
      <point x="56" y="-1"/>
      <point x="91" y="268" type="curve" smooth="yes"/>
      <point x="97" y="314" type="line" smooth="yes"/>
      <point x="131" y="577"/>
      <point x="302" y="720"/>
      <point x="542" y="720" type="curve" smooth="yes"/>
      <point x="548" y="720" type="line" smooth="yes"/>
      <point x="739" y="720"/>
      <point x="901" y="631"/>
      <point x="868" y="389" type="curve" smooth="yes"/>
      <point x="865" y="367" type="line" smooth="yes"/>
      <point x="840" y="181"/>
      <point x="764" y="135"/>
      <point x="643" y="131" type="curve"/>
      <point x="677" y="385" type="line"/>
      <point x="703" y="530" type="line"/>
      <point x="624" y="530" type="line"/>
      <point x="605" y="461" type="line"/>
      <point x="588" y="502"/>
      <point x="541" y="542"/>
      <point x="463" y="542" type="curve" smooth="yes"/>
      <point x="333" y="542"/>
      <point x="261" y="433"/>
      <point x="244" y="306" type="curve" smooth="yes"/>
      <point x="241" y="284" type="line" smooth="yes"/>
      <point x="224" y="157"/>
      <point x="270" y="48"/>
      <point x="408" y="48" type="curve" smooth="yes"/>
      <point x="478" y="48"/>
      <point x="539" y="88"/>
      <point x="563" y="129" type="curve"/>
      <point x="563" y="60" type="line"/>
      <point x="629" y="60" type="line" smooth="yes"/>
      <point x="784" y="60"/>
      <point x="907" y="128"/>
      <point x="940" y="367" type="curve" smooth="yes"/>
      <point x="943" y="389" type="line" smooth="yes"/>
      <point x="981" y="664"/>
      <point x="791" y="792"/>
      <point x="545" y="792" type="curve" smooth="yes"/>
      <point x="266" y="792"/>
      <point x="63" y="620"/>
      <point x="23" y="314" type="curve" smooth="yes"/>
      <point x="17" y="268" type="line" smooth="yes"/>
      <point x="-23" y="-38"/>
      <point x="153" y="-212"/>
      <point x="449" y="-212" type="curve" smooth="yes"/>
      <point x="566" y="-212"/>
      <point x="693" y="-184"/>
      <point x="822" y="-90" type="curve"/>
      <point x="787" y="-34" type="line"/>
      <point x="677" y="-107"/>
      <point x="573" y="-140"/>
      <point x="452" y="-140" type="curve" smooth="yes"/>
    </contour>
    <contour>
      <point x="587" y="391" type="curve"/>
      <point x="562" y="199" type="line"/>
      <point x="545" y="172"/>
      <point x="500" y="130"/>
      <point x="435" y="130" type="curve" smooth="yes"/>
      <point x="358" y="130"/>
      <point x="325" y="195"/>
      <point x="337" y="284" type="curve" smooth="yes"/>
      <point x="340" y="306" type="line" smooth="yes"/>
      <point x="352" y="397"/>
      <point x="397" y="460"/>
      <point x="478" y="460" type="curve" smooth="yes"/>
      <point x="539" y="460"/>
      <point x="573" y="420"/>
    </contour>
  </outline>
</glyph>
<glyph name="C" format="1">
  <advance width="630"/>
  <unicode hex="0043"/>
  <outline>
    <contour>
      <point x="161" y="413" type="line" smooth="yes"/>
      <point x="187" y="611"/>
      <point x="248" y="700"/>
      <point x="368" y="700" type="curve" smooth="yes"/>
      <point x="376" y="700" type="line" smooth="yes"/>
      <point x="485" y="700"/>
      <point x="512" y="633"/>
      <point x="493" y="491" type="curve"/>
      <point x="598" y="491" type="line"/>
      <point x="602" y="518" type="line" smooth="yes"/>
      <point x="629" y="702"/>
      <point x="553" y="792"/>
      <point x="372" y="792" type="curve" smooth="yes"/>
      <point x="188" y="792"/>
      <point x="90" y="682"/>
      <point x="55" y="413" type="curve" smooth="yes"/>
      <point x="49" y="367" type="line" smooth="yes"/>
      <point x="14" y="98"/>
      <point x="91" y="-12"/>
      <point x="292" y="-12" type="curve" smooth="yes"/>
      <point x="453" y="-12"/>
      <point x="549" y="79"/>
      <point x="566" y="249" type="curve" smooth="yes"/>
      <point x="567" y="259" type="line"/>
      <point x="463" y="259" type="line"/>
      <point x="448" y="146"/>
      <point x="400" y="80"/>
      <point x="296" y="80" type="curve" smooth="yes"/>
      <point x="288" y="80" type="line" smooth="yes"/>
      <point x="166" y="80"/>
      <point x="129" y="169"/>
      <point x="155" y="367" type="curve" smooth="yes"/>
    </contour>
  </outline>
</glyph>
<glyph name="E" format="1">
  <advance width="557"/>
  <unicode hex="0045"/>
  <outline>
    <contour>
      <point x="120" y="780" type="line"/>
      <point x="18" y="0" type="line"/>
      <point x="468" y="0" type="line"/>
      <point x="480" y="92" type="line"/>
      <point x="134" y="92" type="line"/>
      <point x="168" y="352" type="line"/>
      <point x="464" y="352" type="line"/>
      <point x="476" y="444" type="line"/>
      <point x="180" y="444" type="line"/>
      <point x="212" y="688" type="line"/>
      <point x="558" y="688" type="line"/>
      <point x="570" y="780" type="line"/>
    </contour>
  </outline>
</glyph>
<glyph name="F" format="1">
  <advance width="526"/>
  <unicode hex="0046"/>
  <outline>
    <contour>
      <point x="120" y="780" type="line"/>
      <point x="18" y="0" type="line"/>
      <point x="122" y="0" type="line"/>
      <point x="168" y="352" type="line"/>
      <point x="453" y="352" type="line"/>
      <point x="465" y="444" type="line"/>
      <point x="180" y="444" type="line"/>
      <point x="212" y="688" type="line"/>
      <point x="547" y="688" type="line"/>
      <point x="559" y="780" type="line"/>
    </contour>
  </outline>
</glyph>
<glyph name="J" format="1">
  <advance width="510"/>
  <unicode hex="004A"/>
  <outline>
    <contour>
      <point x="397" y="780" type="line"/>
      <point x="328" y="254" type="line" smooth="yes"/>
      <point x="312" y="136"/>
      <point x="276" y="80"/>
      <point x="192" y="80" type="curve" smooth="yes"/>
      <point x="118" y="80"/>
      <point x="90" y="124"/>
      <point x="111" y="259" type="curve"/>
      <point x="12" y="259" type="line"/>
      <point x="8" y="232" type="line" smooth="yes"/>
      <point x="-16" y="73"/>
      <point x="42" y="-12"/>
      <point x="192" y="-12" type="curve" smooth="yes"/>
      <point x="341" y="-12"/>
      <point x="409" y="82"/>
      <point x="430" y="239" type="curve" smooth="yes"/>
      <point x="501" y="780" type="line"/>
    </contour>
  </outline>
</glyph>
<glyph name="K" format="1">
  <advance width="585"/>
  <unicode hex="004B"/>
  <outline>
    <contour>
      <point x="224" y="780" type="line"/>
      <point x="120" y="780" type="line"/>
      <point x="18" y="0" type="line"/>
      <point x="122" y="0" type="line"/>
      <point x="152" y="235" type="line"/>
      <point x="260" y="363" type="line"/>
      <point x="392" y="0" type="line"/>
      <point x="506" y="0" type="line"/>
      <point x="338" y="457" type="line"/>
      <point x="608" y="780" type="line"/>
      <point x="482" y="780" type="line"/>
      <point x="174" y="402" type="line"/>
    </contour>
  </outline>
</glyph>
<glyph name="L" format="1">
  <advance width="501"/>
  <unicode hex="004C"/>
  <outline>
    <contour>
      <point x="437" y="0" type="line"/>
      <point x="449" y="92" type="line"/>
      <point x="134" y="92" type="line"/>
      <point x="224" y="780" type="line"/>
      <point x="120" y="780" type="line"/>
      <point x="18" y="0" type="line"/>
    </contour>
  </outline>
</glyph>
<glyph name="N" format="1">
  <advance width="667"/>
  <unicode hex="004E"/>
  <outline>
    <contour>
      <point x="653" y="780" type="line"/>
      <point x="552" y="780" type="line"/>
      <point x="497" y="357" type="line"/>
      <point x="478" y="184" type="line"/>
      <point x="229" y="780" type="line"/>
      <point x="120" y="780" type="line"/>
      <point x="18" y="0" type="line"/>
      <point x="119" y="0" type="line"/>
      <point x="174" y="423" type="line"/>
      <point x="193" y="596" type="line"/>
      <point x="442" y="0" type="line"/>
      <point x="551" y="0" type="line"/>
    </contour>
  </outline>
</glyph>
<glyph name="P" format="1">
  <advance width="586"/>
  <unicode hex="0050"/>
  <outline>
    <contour>
      <point x="174" y="395" type="line"/>
      <point x="212" y="688" type="line"/>
      <point x="342" y="688" type="line" smooth="yes"/>
      <point x="410" y="688"/>
      <point x="479" y="662"/>
      <point x="464" y="542" type="curve" smooth="yes"/>
      <point x="463" y="534" type="line" smooth="yes"/>
      <point x="449" y="420"/>
      <point x="367" y="395"/>
      <point x="306" y="395" type="curve" smooth="yes"/>
    </contour>
    <contour>
      <point x="162" y="304" type="line"/>
      <point x="308" y="304" type="line" smooth="yes"/>
      <point x="416" y="304"/>
      <point x="544" y="352"/>
      <point x="568" y="528" type="curve" smooth="yes"/>
      <point x="571" y="550" type="line" smooth="yes"/>
      <point x="596" y="732"/>
      <point x="461" y="780"/>
      <point x="344" y="780" type="curve" smooth="yes"/>
      <point x="120" y="780" type="line"/>
      <point x="18" y="0" type="line"/>
      <point x="122" y="0" type="line"/>
    </contour>
  </outline>
</glyph>
<glyph name="Q" format="1">
  <advance width="657"/>
  <unicode hex="0051"/>
  <outline>
    <contour>
      <point x="370" y="792" type="curve" smooth="yes"/>
      <point x="186" y="792"/>
      <point x="90" y="682"/>
      <point x="55" y="413" type="curve" smooth="yes"/>
      <point x="49" y="367" type="line" smooth="yes"/>
      <point x="14" y="98"/>
      <point x="89" y="-12"/>
      <point x="290" y="-12" type="curve" smooth="yes"/>
      <point x="302" y="-12"/>
      <point x="314" y="-11"/>
      <point x="326" y="-10" type="curve"/>
      <point x="348" y="-100" type="line"/>
      <point x="435" y="-100" type="line"/>
      <point x="407" y="8" type="line"/>
      <point x="516" y="50"/>
      <point x="578" y="162"/>
      <point x="605" y="367" type="curve" smooth="yes"/>
      <point x="611" y="413" type="line" smooth="yes"/>
      <point x="646" y="682"/>
      <point x="571" y="792"/>
    </contour>
    <contour>
      <point x="286" y="80" type="line" smooth="yes"/>
      <point x="166" y="80"/>
      <point x="129" y="169"/>
      <point x="155" y="367" type="curve" smooth="yes"/>
      <point x="161" y="413" type="line" smooth="yes"/>
      <point x="187" y="611"/>
      <point x="246" y="700"/>
      <point x="366" y="700" type="curve" smooth="yes"/>
      <point x="374" y="700" type="line" smooth="yes"/>
      <point x="494" y="700"/>
      <point x="531" y="611"/>
      <point x="505" y="413" type="curve" smooth="yes"/>
      <point x="499" y="367" type="line" smooth="yes"/>
      <point x="480" y="226"/>
      <point x="445" y="140"/>
      <point x="383" y="102" type="curve"/>
      <point x="348" y="239" type="line"/>
      <point x="265" y="239" type="line"/>
      <point x="304" y="80" type="line"/>
    </contour>
  </outline>
</glyph>
<glyph name="T" format="1">
  <advance width="530"/>
  <unicode hex="0054"/>
  <outline>
    <contour>
      <point x="358" y="688" type="line"/>
      <point x="550" y="688" type="line"/>
      <point x="562" y="780" type="line"/>
      <point x="74" y="780" type="line"/>
      <point x="62" y="688" type="line"/>
      <point x="254" y="688" type="line"/>
      <point x="164" y="0" type="line"/>
      <point x="268" y="0" type="line"/>
    </contour>
  </outline>
</glyph>
<glyph name="V" format="1">
  <advance width="621"/>
  <unicode hex="0056"/>
  <outline>
    <contour>
      <point x="333" y="-6" type="line"/>
      <point x="651" y="780" type="line"/>
      <point x="537" y="780" type="line"/>
      <point x="274" y="111" type="line"/>
      <point x="186" y="780" type="line"/>
      <point x="76" y="780" type="line"/>
      <point x="188" y="-6" type="line"/>
    </contour>
  </outline>
</glyph>
<glyph name="X" format="1">
  <advance width="626"/>
  <unicode hex="0058"/>
  <outline>
    <contour>
      <point x="-26" y="0" type="line"/>
      <point x="97" y="0" type="line"/>
      <point x="304" y="300" type="line"/>
      <point x="435" y="0" type="line"/>
      <point x="550" y="0" type="line"/>
      <point x="379" y="391" type="line"/>
      <point x="652" y="780" type="line"/>
      <point x="529" y="780" type="line"/>
      <point x="326" y="486" type="line"/>
      <point x="199" y="780" type="line"/>
      <point x="82" y="780" type="line"/>
      <point x="251" y="395" type="line"/>
    </contour>
  </outline>
</glyph>
<glyph name="Y" format="1">
  <advance width="594"/>
  <unicode hex="0059"/>
  <outline>
    <contour>
      <point x="331" y="237" type="line"/>
      <point x="631" y="780" type="line"/>
      <point x="516" y="780" type="line"/>
      <point x="294" y="366" type="line"/>
      <point x="180" y="780" type="line"/>
      <point x="69" y="780" type="line"/>
      <point x="227" y="237" type="line"/>
      <point x="196" y="0" type="line"/>
      <point x="300" y="0" type="line"/>
    </contour>
  </outline>
</glyph>
<glyph name="bracketleft" format="1">
  <advance width="334"/>
  <unicode hex="005B"/>
  <outline>
    <contour>
      <point x="125" y="840" type="line"/>
      <point x="-1" y="-120" type="line"/>
      <point x="231" y="-120" type="line"/>
      <point x="243" y="-29" type="line"/>
      <point x="112" y="-29" type="line"/>
      <point x="214" y="749" type="line"/>
      <point x="345" y="749" type="line"/>
      <point x="357" y="840" type="line"/>
    </contour>
  </outline>
</glyph>
<glyph name="backslash" format="1">
  <advance width="359"/>
  <unicode hex="005C"/>
  <outline>
    <contour>
      <point x="180" y="-120" type="line"/>
      <point x="280" y="-120" type="line"/>
      <point x="176" y="840" type="line"/>
      <point x="76" y="840" type="line"/>
    </contour>
  </outline>
</glyph>
<glyph name="bracketright" format="1">
  <advance width="334"/>
  <unicode hex="005D"/>
  <outline>
    <contour>
      <point x="206" y="-120" type="line"/>
      <point x="332" y="840" type="line"/>
      <point x="100" y="840" type="line"/>
      <point x="88" y="749" type="line"/>
      <point x="219" y="749" type="line"/>
      <point x="117" y="-29" type="line"/>
      <point x="-14" y="-29" type="line"/>
      <point x="-26" y="-120" type="line"/>
    </contour>
  </outline>
</glyph>
<glyph name="asciicircum" format="1">
  <advance width="600"/>
  <unicode hex="005E"/>
  <outline>
    <contour>
      <point x="403" y="780" type="line"/>
      <point x="303" y="780" type="line"/>
      <point x="11" y="271" type="line"/>
      <point x="115" y="271" type="line"/>
      <point x="341" y="676" type="line"/>
      <point x="461" y="271" type="line"/>
      <point x="561" y="271" type="line"/>
    </contour>
  </outline>
</glyph>
<glyph name="underscore" format="1">
  <advance width="320"/>
  <unicode hex="005F"/>
  <outline>
    <contour>
      <point x="-24" y="-153" type="line"/>
      <point x="204" y="-153" type="line"/>
      <point x="216" y="-63" type="line"/>
      <point x="-12" y="-63" type="line"/>
    </contour>
  </outline>
</glyph>
<glyph name="grave" format="1">
  <advance width="500"/>
  <unicode hex="0060"/>
  <outline>
    <contour>
      <point x="153" y="780" type="line"/>
      <point x="229" y="607" type="line"/>
      <point x="331" y="607" type="line"/>
      <point x="263" y="780" type="line"/>
    </contour>
  </outline>
</glyph>
<glyph name="d" format="1">
  <advance width="554"/>
  <unicode hex="0064"/>
  <outline>
    <contour>
      <point x="272" y="542" type="curve" smooth="yes"/>
      <point x="131" y="542"/>
      <point x="56" y="445"/>
      <point x="33" y="278" type="curve" smooth="yes"/>
      <point x="30" y="256" type="line" smooth="yes"/>
      <point x="10" y="107"/>
      <point x="53" y="-12"/>
      <point x="207" y="-12" type="curve" smooth="yes"/>
      <point x="276" y="-12"/>
      <point x="338" y="25"/>
      <point x="365" y="71" type="curve"/>
      <point x="364" y="0" type="line"/>
      <point x="451" y="0" type="line"/>
      <point x="463" y="150" type="line"/>
      <point x="549" y="800" type="line"/>
      <point x="449" y="800" type="line"/>
      <point x="405" y="472" type="line"/>
      <point x="386" y="509"/>
      <point x="341" y="542"/>
    </contour>
    <contour>
      <point x="363" y="149" type="line"/>
      <point x="340" y="115"/>
      <point x="298" y="76"/>
      <point x="227" y="76" type="curve" smooth="yes"/>
      <point x="143" y="76"/>
      <point x="116" y="148"/>
      <point x="131" y="256" type="curve" smooth="yes"/>
      <point x="134" y="278" type="line" smooth="yes"/>
      <point x="149" y="387"/>
      <point x="200" y="454"/>
      <point x="276" y="454" type="curve" smooth="yes"/>
      <point x="345" y="454"/>
      <point x="379" y="409"/>
      <point x="393" y="380" type="curve"/>
    </contour>
  </outline>
</glyph>
<glyph name="f" format="1">
  <advance width="391"/>
  <unicode hex="0066"/>
  <outline>
    <contour>
      <point x="244" y="631" type="line" smooth="yes"/>
      <point x="254" y="708"/>
      <point x="291" y="724"/>
      <point x="345" y="724" type="curve" smooth="yes"/>
      <point x="369" y="724"/>
      <point x="395" y="719"/>
      <point x="403" y="716" type="curve"/>
      <point x="414" y="800" type="line"/>
      <point x="409" y="803"/>
      <point x="384" y="812"/>
      <point x="340" y="812" type="curve" smooth="yes"/>
      <point x="240" y="812"/>
      <point x="162" y="770"/>
      <point x="145" y="639" type="curve" smooth="yes"/>
      <point x="131" y="530" type="line"/>
      <point x="47" y="530" type="line"/>
      <point x="35" y="441" type="line"/>
      <point x="119" y="441" type="line"/>
      <point x="61" y="0" type="line"/>
      <point x="161" y="0" type="line"/>
      <point x="219" y="441" type="line"/>
      <point x="356" y="441" type="line"/>
      <point x="368" y="530" type="line"/>
      <point x="231" y="530" type="line"/>
    </contour>
  </outline>
</glyph>
<glyph name="g" format="1">
  <advance width="550"/>
  <unicode hex="0067"/>
  <outline>
    <contour>
      <point x="341" y="-3" type="line" smooth="yes"/>
      <point x="331" y="-85"/>
      <point x="299" y="-128"/>
      <point x="200" y="-128" type="curve" smooth="yes"/>
      <point x="122" y="-128"/>
      <point x="87" y="-84"/>
      <point x="98" y="0" type="curve"/>
      <point x="4" y="0" type="line"/>
      <point x="3" y="-7" type="line" smooth="yes"/>
      <point x="-11" y="-107"/>
      <point x="34" y="-212"/>
      <point x="200" y="-212" type="curve" smooth="yes"/>
      <point x="351" y="-212"/>
      <point x="422" y="-142"/>
      <point x="440" y="-8" type="curve" smooth="yes"/>
      <point x="492" y="385" type="line"/>
      <point x="518" y="530" type="line"/>
      <point x="431" y="530" type="line"/>
      <point x="412" y="461" type="line"/>
      <point x="390" y="507"/>
      <point x="339" y="542"/>
      <point x="269" y="542" type="curve" smooth="yes"/>
      <point x="129" y="542"/>
      <point x="51" y="434"/>
      <point x="33" y="298" type="curve" smooth="yes"/>
      <point x="30" y="276" type="line" smooth="yes"/>
      <point x="13" y="152"/>
      <point x="55" y="28"/>
      <point x="209" y="28" type="curve" smooth="yes"/>
      <point x="278" y="28"/>
      <point x="327" y="63"/>
      <point x="352" y="90" type="curve"/>
    </contour>
    <contour>
      <point x="365" y="187" type="line"/>
      <point x="342" y="155"/>
      <point x="300" y="116"/>
      <point x="229" y="116" type="curve" smooth="yes"/>
      <point x="145" y="116"/>
      <point x="119" y="190"/>
      <point x="131" y="276" type="curve" smooth="yes"/>
      <point x="134" y="298" type="line" smooth="yes"/>
      <point x="145" y="379"/>
      <point x="198" y="454"/>
      <point x="274" y="454" type="curve" smooth="yes"/>
      <point x="343" y="454"/>
      <point x="377" y="409"/>
      <point x="391" y="379" type="curve"/>
    </contour>
  </outline>
</glyph>
<glyph name="h" format="1">
  <advance width="545"/>
  <unicode hex="0068"/>
  <outline>
    <contour>
      <point x="13" y="0" type="line"/>
      <point x="113" y="0" type="line"/>
      <point x="163" y="381" type="line"/>
      <point x="185" y="410"/>
      <point x="230" y="454"/>
      <point x="298" y="454" type="curve" smooth="yes"/>
      <point x="367" y="454"/>
      <point x="394" y="412"/>
      <point x="386" y="350" type="curve" smooth="yes"/>
      <point x="340" y="0" type="line"/>
      <point x="440" y="0" type="line"/>
      <point x="488" y="365" type="line" smooth="yes"/>
      <point x="500" y="459"/>
      <point x="454" y="542"/>
      <point x="340" y="542" type="curve" smooth="yes"/>
      <point x="268" y="542"/>
      <point x="214" y="515"/>
      <point x="175" y="475" type="curve"/>
      <point x="218" y="800" type="line"/>
      <point x="118" y="800" type="line"/>
    </contour>
  </outline>
</glyph>
<glyph name="i" format="1">
  <advance width="234"/>
  <unicode hex="0069"/>
  <outline>
    <contour>
      <point x="18" y="0" type="line"/>
      <point x="118" y="0" type="line"/>
      <point x="187" y="530" type="line"/>
      <point x="87" y="530" type="line"/>
    </contour>
    <contour>
      <point x="224" y="754" type="line"/>
      <point x="110" y="754" type="line"/>
      <point x="95" y="640" type="line"/>
      <point x="209" y="640" type="line"/>
    </contour>
  </outline>
</glyph>
<glyph name="k" format="1">
  <advance width="522"/>
  <unicode hex="006B"/>
  <outline>
    <contour>
      <point x="11" y="0" type="line"/>
      <point x="111" y="0" type="line"/>
      <point x="130" y="153" type="line"/>
      <point x="236" y="256" type="line"/>
      <point x="339" y="0" type="line"/>
      <point x="449" y="0" type="line"/>
      <point x="312" y="330" type="line"/>
      <point x="518" y="530" type="line"/>
      <point x="393" y="530" type="line"/>
      <point x="149" y="290" type="line"/>
      <point x="216" y="800" type="line"/>
      <point x="116" y="800" type="line"/>
    </contour>
  </outline>
</glyph>
<glyph name="l" format="1">
  <advance width="234"/>
  <unicode hex="006C"/>
  <outline>
    <contour>
      <point x="18" y="0" type="line"/>
      <point x="118" y="0" type="line"/>
      <point x="223" y="800" type="line"/>
      <point x="123" y="800" type="line"/>
    </contour>
  </outline>
</glyph>
<glyph name="m" format="1">
  <advance width="825"/>
  <unicode hex="006D"/>
  <outline>
    <contour>
      <point x="719" y="0" type="line"/>
      <point x="769" y="381" type="line" smooth="yes"/>
      <point x="782" y="481"/>
      <point x="731" y="542"/>
      <point x="631" y="542" type="curve" smooth="yes"/>
      <point x="556" y="542"/>
      <point x="498" y="504"/>
      <point x="461" y="456" type="curve"/>
      <point x="447" y="507"/>
      <point x="405" y="542"/>
      <point x="328" y="542" type="curve" smooth="yes"/>
      <point x="254" y="542"/>
      <point x="195" y="504"/>
      <point x="161" y="459" type="curve"/>
      <point x="161" y="530" type="line"/>
      <point x="75" y="530" type="line"/>
      <point x="63" y="380" type="line"/>
      <point x="13" y="0" type="line"/>
      <point x="113" y="0" type="line"/>
      <point x="163" y="381" type="line"/>
      <point x="184" y="410"/>
      <point x="228" y="454"/>
      <point x="285" y="454" type="curve" smooth="yes"/>
      <point x="342" y="454"/>
      <point x="372" y="423"/>
      <point x="363" y="358" type="curve" smooth="yes"/>
      <point x="316" y="0" type="line"/>
      <point x="416" y="0" type="line"/>
      <point x="466" y="381" type="line"/>
      <point x="487" y="410"/>
      <point x="531" y="454"/>
      <point x="588" y="454" type="curve" smooth="yes"/>
      <point x="645" y="454"/>
      <point x="675" y="423"/>
      <point x="666" y="358" type="curve" smooth="yes"/>
      <point x="619" y="0" type="line"/>
    </contour>
  </outline>
</glyph>
<glyph name="p" format="1">
  <advance width="550"/>
  <unicode hex="0070"/>
  <outline>
    <contour>
      <point x="253" y="-12" type="curve" smooth="yes"/>
      <point x="394" y="-12"/>
      <point x="469" y="85"/>
      <point x="492" y="252" type="curve" smooth="yes"/>
      <point x="495" y="274" type="line" smooth="yes"/>
      <point x="515" y="423"/>
      <point x="472" y="542"/>
      <point x="318" y="542" type="curve" smooth="yes"/>
      <point x="249" y="542"/>
      <point x="187" y="505"/>
      <point x="160" y="459" type="curve"/>
      <point x="161" y="530" type="line"/>
      <point x="74" y="530" type="line"/>
      <point x="62" y="380" type="line"/>
      <point x="-15" y="-200" type="line"/>
      <point x="85" y="-200" type="line"/>
      <point x="120" y="58" type="line"/>
      <point x="139" y="21"/>
      <point x="184" y="-12"/>
    </contour>
    <contour>
      <point x="162" y="381" type="line"/>
      <point x="185" y="415"/>
      <point x="227" y="454"/>
      <point x="298" y="454" type="curve" smooth="yes"/>
      <point x="382" y="454"/>
      <point x="409" y="382"/>
      <point x="394" y="274" type="curve" smooth="yes"/>
      <point x="391" y="252" type="line" smooth="yes"/>
      <point x="376" y="143"/>
      <point x="325" y="76"/>
      <point x="249" y="76" type="curve" smooth="yes"/>
      <point x="180" y="76"/>
      <point x="146" y="121"/>
      <point x="132" y="150" type="curve"/>
    </contour>
  </outline>
</glyph>
<glyph name="q" format="1">
  <advance width="553"/>
  <unicode hex="0071"/>
  <outline>
    <contour>
      <point x="315" y="-200" type="line"/>
      <point x="415" y="-200" type="line"/>
      <point x="492" y="385" type="line"/>
      <point x="518" y="530" type="line"/>
      <point x="431" y="530" type="line"/>
      <point x="412" y="461" type="line"/>
      <point x="390" y="507"/>
      <point x="339" y="542"/>
      <point x="270" y="542" type="curve" smooth="yes"/>
      <point x="129" y="542"/>
      <point x="54" y="445"/>
      <point x="31" y="278" type="curve" smooth="yes"/>
      <point x="28" y="256" type="line" smooth="yes"/>
      <point x="8" y="107"/>
      <point x="51" y="-12"/>
      <point x="205" y="-12" type="curve" smooth="yes"/>
      <point x="274" y="-12"/>
      <point x="323" y="23"/>
      <point x="348" y="50" type="curve"/>
    </contour>
    <contour>
      <point x="361" y="147" type="line"/>
      <point x="338" y="115"/>
      <point x="296" y="76"/>
      <point x="225" y="76" type="curve" smooth="yes"/>
      <point x="141" y="76"/>
      <point x="114" y="148"/>
      <point x="129" y="256" type="curve" smooth="yes"/>
      <point x="132" y="278" type="line" smooth="yes"/>
      <point x="147" y="387"/>
      <point x="198" y="454"/>
      <point x="274" y="454" type="curve" smooth="yes"/>
      <point x="343" y="454"/>
      <point x="377" y="409"/>
      <point x="391" y="380" type="curve"/>
    </contour>
  </outline>
</glyph>
<glyph name="u" format="1">
  <advance width="545"/>
  <unicode hex="0075"/>
  <outline>
    <contour>
      <point x="76" y="530" type="line"/>
      <point x="28" y="165" type="line" smooth="yes"/>
      <point x="16" y="71"/>
      <point x="62" y="-12"/>
      <point x="176" y="-12" type="curve" smooth="yes"/>
      <point x="257" y="-12"/>
      <point x="316" y="22"/>
      <point x="355" y="71" type="curve"/>
      <point x="355" y="0" type="line"/>
      <point x="441" y="0" type="line"/>
      <point x="453" y="150" type="line"/>
      <point x="503" y="530" type="line"/>
      <point x="403" y="530" type="line"/>
      <point x="353" y="149" type="line"/>
      <point x="331" y="120"/>
      <point x="286" y="76"/>
      <point x="218" y="76" type="curve" smooth="yes"/>
      <point x="149" y="76"/>
      <point x="122" y="118"/>
      <point x="130" y="180" type="curve" smooth="yes"/>
      <point x="176" y="530" type="line"/>
    </contour>
  </outline>
</glyph>
<glyph name="v" format="1">
  <advance width="525"/>
  <unicode hex="0076"/>
  <outline>
    <contour>
      <point x="145" y="0" type="line"/>
      <point x="282" y="0" type="line"/>
      <point x="525" y="530" type="line"/>
      <point x="418" y="530" type="line"/>
      <point x="223" y="87" type="line"/>
      <point x="143" y="530" type="line"/>
      <point x="40" y="530" type="line"/>
    </contour>
  </outline>
</glyph>
<glyph name="w" format="1">
  <advance width="733"/>
  <unicode hex="0077"/>
  <outline>
    <contour>
      <point x="374" y="422" type="line"/>
      <point x="424" y="0" type="line"/>
      <point x="551" y="0" type="line"/>
      <point x="727" y="530" type="line"/>
      <point x="630" y="530" type="line"/>
      <point x="500" y="107" type="line"/>
      <point x="449" y="530" type="line"/>
      <point x="324" y="530" type="line"/>
      <point x="163" y="107" type="line"/>
      <point x="144" y="530" type="line"/>
      <point x="47" y="530" type="line"/>
      <point x="84" y="0" type="line"/>
      <point x="214" y="0" type="line"/>
    </contour>
  </outline>
</glyph>
<glyph name="x" format="1">
  <advance width="510"/>
  <unicode hex="0078"/>
  <outline>
    <contour>
      <point x="41" y="530" type="line"/>
      <point x="176" y="267" type="line"/>
      <point x="-28" y="0" type="line"/>
      <point x="92" y="0" type="line"/>
      <point x="228" y="182" type="line"/>
      <point x="323" y="0" type="line"/>
      <point x="440" y="0" type="line"/>
      <point x="304" y="263" type="line"/>
      <point x="509" y="530" type="line"/>
      <point x="387" y="530" type="line"/>
      <point x="253" y="348" type="line"/>
      <point x="160" y="530" type="line"/>
    </contour>
  </outline>
</glyph>
<glyph name="y" format="1">
  <advance width="507"/>
  <unicode hex="0079"/>
  <outline>
    <contour>
      <point x="227" y="128" type="line"/>
      <point x="144" y="530" type="line"/>
      <point x="37" y="530" type="line"/>
      <point x="159" y="15" type="line"/>
      <point x="50" y="-200" type="line"/>
      <point x="165" y="-200" type="line"/>
      <point x="268" y="23" type="line"/>
      <point x="521" y="530" type="line"/>
      <point x="412" y="530" type="line"/>
    </contour>
  </outline>
</glyph>
<glyph name="braceleft" format="1">
  <advance width="334"/>
  <unicode hex="007B"/>
  <outline>
    <contour>
      <point x="357" y="840" type="line"/>
      <point x="335" y="840" type="line" smooth="yes"/>
      <point x="244" y="840"/>
      <point x="162" y="804"/>
      <point x="147" y="687" type="curve" smooth="yes"/>
      <point x="121" y="489" type="line" smooth="yes"/>
      <point x="112" y="422"/>
      <point x="84" y="406"/>
      <point x="29" y="406" type="curve"/>
      <point x="17" y="314" type="line"/>
      <point x="71" y="314"/>
      <point x="96" y="293"/>
      <point x="86" y="218" type="curve" smooth="yes"/>
      <point x="61" y="33" type="line" smooth="yes"/>
      <point x="45" y="-84"/>
      <point x="118" y="-120"/>
      <point x="209" y="-120" type="curve" smooth="yes"/>
      <point x="231" y="-120" type="line"/>
      <point x="243" y="-29" type="line"/>
      <point x="183" y="-29"/>
      <point x="157" y="-10"/>
      <point x="166" y="57" type="curve" smooth="yes"/>
      <point x="192" y="253" type="line" smooth="yes"/>
      <point x="200" y="313"/>
      <point x="182" y="343"/>
      <point x="150" y="360" type="curve"/>
      <point x="188" y="375"/>
      <point x="211" y="407"/>
      <point x="219" y="466" type="curve" smooth="yes"/>
      <point x="244" y="658" type="line" smooth="yes"/>
      <point x="254" y="735"/>
      <point x="288" y="749"/>
      <point x="345" y="749" type="curve"/>
    </contour>
  </outline>
</glyph>
<glyph name="bar" format="1">
  <advance width="223"/>
  <unicode hex="007C"/>
  <outline>
    <contour>
      <point x="-4" y="-120" type="line"/>
      <point x="96" y="-120" type="line"/>
      <point x="222" y="840" type="line"/>
      <point x="122" y="840" type="line"/>
    </contour>
  </outline>
</glyph>
<glyph name="braceright" format="1">
  <advance width="334"/>
  <unicode hex="007D"/>
  <outline>
    <contour>
      <point x="-26" y="-120" type="line"/>
      <point x="-4" y="-120" type="line" smooth="yes"/>
      <point x="87" y="-120"/>
      <point x="169" y="-84"/>
      <point x="184" y="33" type="curve" smooth="yes"/>
      <point x="210" y="231" type="line" smooth="yes"/>
      <point x="219" y="298"/>
      <point x="247" y="314"/>
      <point x="302" y="314" type="curve"/>
      <point x="314" y="406" type="line"/>
      <point x="260" y="406"/>
      <point x="235" y="427"/>
      <point x="245" y="502" type="curve" smooth="yes"/>
      <point x="270" y="687" type="line" smooth="yes"/>
      <point x="286" y="804"/>
      <point x="213" y="840"/>
      <point x="122" y="840" type="curve" smooth="yes"/>
      <point x="100" y="840" type="line"/>
      <point x="88" y="749" type="line"/>
      <point x="148" y="749"/>
      <point x="174" y="730"/>
      <point x="165" y="663" type="curve" smooth="yes"/>
      <point x="139" y="467" type="line" smooth="yes"/>
      <point x="131" y="407"/>
      <point x="149" y="377"/>
      <point x="181" y="360" type="curve"/>
      <point x="143" y="345"/>
      <point x="120" y="313"/>
      <point x="112" y="254" type="curve" smooth="yes"/>
      <point x="87" y="62" type="line" smooth="yes"/>
      <point x="77" y="-15"/>
      <point x="43" y="-29"/>
      <point x="-14" y="-29" type="curve"/>
    </contour>
  </outline>
</glyph>
<glyph name="asciitilde" format="1">
  <advance width="600"/>
  <unicode hex="007E"/>
  <outline>
    <contour>
      <point x="182" y="462" type="curve" smooth="yes"/>
      <point x="105" y="462"/>
      <point x="45" y="395"/>
      <point x="32" y="382" type="curve"/>
      <point x="80" y="327" type="line"/>
      <point x="104" y="351"/>
      <point x="139" y="381"/>
      <point x="182" y="381" type="curve" smooth="yes"/>
      <point x="265" y="381"/>
      <point x="306" y="312"/>
      <point x="421" y="312" type="curve" smooth="yes"/>
      <point x="498" y="312"/>
      <point x="558" y="379"/>
      <point x="571" y="392" type="curve"/>
      <point x="523" y="447" type="line"/>
      <point x="499" y="423"/>
      <point x="464" y="393"/>
      <point x="421" y="393" type="curve" smooth="yes"/>
      <point x="338" y="393"/>
      <point x="297" y="462"/>
    </contour>
  </outline>
</glyph>
<glyph name="exclamdown" format="1">
  <advance width="234"/>
  <unicode hex="00A1"/>
  <outline>
    <contour>
      <point x="103" y="-200" type="line"/>
      <point x="146" y="327" type="line"/>
      <point x="76" y="327" type="line"/>
      <point x="-21" y="-200" type="line"/>
    </contour>
    <contour>
      <point x="194" y="530" type="line"/>
      <point x="80" y="530" type="line"/>
      <point x="65" y="416" type="line"/>
      <point x="179" y="416" type="line"/>
    </contour>
  </outline>
</glyph>
<glyph name="cent" format="1">
  <advance width="600"/>
  <unicode hex="00A2"/>
  <outline>
    <contour>
      <point x="172" y="-60" type="line"/>
      <point x="215" y="57" type="line"/>
      <point x="234" y="54"/>
      <point x="254" y="52"/>
      <point x="276" y="52" type="curve" smooth="yes"/>
      <point x="437" y="52"/>
      <point x="520" y="146"/>
      <point x="533" y="277" type="curve" smooth="yes"/>
      <point x="534" y="287" type="line"/>
      <point x="430" y="287" type="line"/>
      <point x="415" y="174"/>
      <point x="354" y="141"/>
      <point x="282" y="141" type="curve" smooth="yes"/>
      <point x="274" y="141" type="line" smooth="yes"/>
      <point x="264" y="141"/>
      <point x="256" y="142"/>
      <point x="247" y="143" type="curve"/>
      <point x="425" y="623" type="line"/>
      <point x="456" y="601"/>
      <point x="465" y="555"/>
      <point x="454" y="473" type="curve"/>
      <point x="559" y="473" type="line"/>
      <point x="563" y="500" type="line" smooth="yes"/>
      <point x="580" y="614"/>
      <point x="534" y="682"/>
      <point x="457" y="711" type="curve"/>
      <point x="505" y="840" type="line"/>
      <point x="422" y="840" type="line"/>
      <point x="380" y="728" type="line"/>
      <point x="371" y="728"/>
      <point x="361" y="729"/>
      <point x="352" y="729" type="curve" smooth="yes"/>
      <point x="222" y="729"/>
      <point x="92" y="663"/>
      <point x="59" y="413" type="curve" smooth="yes"/>
      <point x="53" y="367" type="line" smooth="yes"/>
      <point x="37" y="246"/>
      <point x="55" y="136"/>
      <point x="142" y="84" type="curve"/>
      <point x="89" y="-60" type="line"/>
    </contour>
    <contour>
      <point x="162" y="413" type="line" smooth="yes"/>
      <point x="186" y="594"/>
      <point x="267" y="640"/>
      <point x="348" y="640" type="curve"/>
      <point x="180" y="185" type="line"/>
      <point x="153" y="222"/>
      <point x="145" y="283"/>
      <point x="156" y="367" type="curve" smooth="yes"/>
    </contour>
  </outline>
</glyph>
<glyph name="sterling" format="1">
  <advance width="600"/>
  <unicode hex="00A3"/>
  <outline>
    <contour>
      <point x="360" y="701" type="curve" smooth="yes"/>
      <point x="456" y="701"/>
      <point x="481" y="624"/>
      <point x="465" y="500" type="curve"/>
      <point x="567" y="500" type="line"/>
      <point x="570" y="520" type="line" smooth="yes"/>
      <point x="594" y="677"/>
      <point x="539" y="792"/>
      <point x="360" y="792" type="curve" smooth="yes"/>
      <point x="182" y="792"/>
      <point x="129" y="664"/>
      <point x="129" y="520" type="curve" smooth="yes"/>
      <point x="129" y="473"/>
      <point x="131" y="446"/>
      <point x="134" y="423" type="curve"/>
      <point x="57" y="423" type="line"/>
      <point x="45" y="332" type="line"/>
      <point x="149" y="332" type="line"/>
      <point x="162" y="261"/>
      <point x="175" y="192"/>
      <point x="175" y="92" type="curve"/>
      <point x="14" y="92" type="line"/>
      <point x="2" y="0" type="line"/>
      <point x="500" y="0" type="line"/>
      <point x="512" y="92" type="line"/>
      <point x="267" y="92" type="line"/>
      <point x="267" y="192"/>
      <point x="264" y="262"/>
      <point x="252" y="332" type="curve"/>
      <point x="420" y="332" type="line"/>
      <point x="432" y="423" type="line"/>
      <point x="240" y="423" type="line"/>
      <point x="236" y="455"/>
      <point x="234" y="487"/>
      <point x="234" y="520" type="curve" smooth="yes"/>
      <point x="234" y="635"/>
      <point x="264" y="701"/>
    </contour>
  </outline>
</glyph>
<glyph name="yen" format="1">
  <advance width="600"/>
  <unicode hex="00A5"/>
  <outline>
    <contour>
      <point x="45" y="390" type="line"/>
      <point x="191" y="390" type="line"/>
      <point x="227" y="279" type="line"/>
      <point x="30" y="279" type="line"/>
      <point x="18" y="189" type="line"/>
      <point x="223" y="189" type="line"/>
      <point x="199" y="0" type="line"/>
      <point x="303" y="0" type="line"/>
      <point x="327" y="189" type="line"/>
      <point x="532" y="189" type="line"/>
      <point x="544" y="279" type="line"/>
      <point x="346" y="279" type="line"/>
      <point x="411" y="390" type="line"/>
      <point x="559" y="390" type="line"/>
      <point x="571" y="480" type="line"/>
      <point x="464" y="480" type="line"/>
      <point x="640" y="780" type="line"/>
      <point x="523" y="780" type="line"/>
      <point x="298" y="378" type="line"/>
      <point x="179" y="780" type="line"/>
      <point x="66" y="780" type="line"/>
      <point x="162" y="480" type="line"/>
      <point x="57" y="480" type="line"/>
    </contour>
  </outline>
</glyph>
<glyph name="brokenbar" format="1">
  <advance width="223"/>
  <unicode hex="00A6"/>
  <outline>
    <contour>
      <point x="63" y="391" type="line"/>
      <point x="163" y="391" type="line"/>
      <point x="222" y="840" type="line"/>
      <point x="122" y="840" type="line"/>
    </contour>
    <contour>
      <point x="-4" y="-120" type="line"/>
      <point x="96" y="-120" type="line"/>
      <point x="155" y="329" type="line"/>
      <point x="55" y="329" type="line"/>
    </contour>
  </outline>
</glyph>
<glyph name="section" format="1">
  <advance width="526"/>
  <unicode hex="00A7"/>
  <outline>
    <contour>
      <point x="252" y="303" type="line" smooth="yes"/>
      <point x="182" y="303"/>
      <point x="140" y="327"/>
      <point x="140" y="380" type="curve" smooth="yes"/>
      <point x="140" y="435"/>
      <point x="184" y="477"/>
      <point x="266" y="477" type="curve" smooth="yes"/>
      <point x="277" y="477" type="line" smooth="yes"/>
      <point x="347" y="477"/>
      <point x="389" y="453"/>
      <point x="389" y="400" type="curve" smooth="yes"/>
      <point x="389" y="345"/>
      <point x="345" y="303"/>
      <point x="263" y="303" type="curve" smooth="yes"/>
    </contour>
    <contour>
      <point x="220" y="229" type="curve" smooth="yes"/>
      <point x="305" y="224"/>
      <point x="327" y="202"/>
      <point x="327" y="160" type="curve" smooth="yes"/>
      <point x="327" y="102"/>
      <point x="283" y="69"/>
      <point x="210" y="69" type="curve" smooth="yes"/>
      <point x="128" y="69"/>
      <point x="107" y="107"/>
      <point x="116" y="172" type="curve"/>
      <point x="16" y="172" type="line"/>
      <point x="15" y="165" type="line" smooth="yes"/>
      <point x="0" y="58"/>
      <point x="55" y="-12"/>
      <point x="210" y="-12" type="curve" smooth="yes"/>
      <point x="336" y="-12"/>
      <point x="414" y="44"/>
      <point x="427" y="145" type="curve" smooth="yes"/>
      <point x="428" y="153" type="line" smooth="yes"/>
      <point x="435" y="205"/>
      <point x="418" y="243"/>
      <point x="376" y="263" type="curve"/>
      <point x="447" y="283"/>
      <point x="481" y="325"/>
      <point x="489" y="389" type="curve" smooth="yes"/>
      <point x="490" y="397" type="line" smooth="yes"/>
      <point x="502" y="494"/>
      <point x="441" y="544"/>
      <point x="309" y="551" type="curve" smooth="yes"/>
      <point x="224" y="556"/>
      <point x="202" y="578"/>
      <point x="202" y="620" type="curve" smooth="yes"/>
      <point x="202" y="678"/>
      <point x="246" y="711"/>
      <point x="319" y="711" type="curve" smooth="yes"/>
      <point x="401" y="711"/>
      <point x="422" y="672"/>
      <point x="413" y="608" type="curve"/>
      <point x="513" y="608" type="line"/>
      <point x="514" y="615" type="line" smooth="yes"/>
      <point x="529" y="722"/>
      <point x="474" y="792"/>
      <point x="319" y="792" type="curve" smooth="yes"/>
      <point x="193" y="792"/>
      <point x="115" y="736"/>
      <point x="102" y="635" type="curve" smooth="yes"/>
      <point x="101" y="627" type="line" smooth="yes"/>
      <point x="94" y="575"/>
      <point x="111" y="537"/>
      <point x="153" y="517" type="curve"/>
      <point x="82" y="497"/>
      <point x="48" y="455"/>
      <point x="40" y="391" type="curve" smooth="yes"/>
      <point x="39" y="383" type="line" smooth="yes"/>
      <point x="27" y="286"/>
      <point x="88" y="236"/>
    </contour>
  </outline>
</glyph>
<glyph name="dieresis" format="1">
  <advance width="500"/>
  <unicode hex="00A8"/>
  <outline>
    <contour>
      <point x="265" y="754" type="line"/>
      <point x="151" y="754" type="line"/>
      <point x="136" y="640" type="line"/>
      <point x="250" y="640" type="line"/>
    </contour>
    <contour>
      <point x="448" y="754" type="line"/>
      <point x="334" y="754" type="line"/>
      <point x="319" y="640" type="line"/>
      <point x="433" y="640" type="line"/>
    </contour>
  </outline>
</glyph>
<glyph name="copyright" format="1">
  <advance width="920"/>
  <unicode hex="00A9"/>
  <outline>
    <contour>
      <point x="58" y="390" type="curve" smooth="yes"/>
      <point x="58" y="168"/>
      <point x="238" y="-12"/>
      <point x="460" y="-12" type="curve" smooth="yes"/>
      <point x="682" y="-12"/>
      <point x="862" y="168"/>
      <point x="862" y="390" type="curve" smooth="yes"/>
      <point x="862" y="612"/>
      <point x="682" y="792"/>
      <point x="460" y="792" type="curve" smooth="yes"/>
      <point x="238" y="792"/>
      <point x="58" y="612"/>
    </contour>
    <contour>
      <point x="106" y="390" type="curve" smooth="yes"/>
      <point x="106" y="586"/>
      <point x="264" y="744"/>
      <point x="460" y="744" type="curve" smooth="yes"/>
      <point x="656" y="744"/>
      <point x="814" y="586"/>
      <point x="814" y="390" type="curve" smooth="yes"/>
      <point x="814" y="194"/>
      <point x="656" y="36"/>
      <point x="460" y="36" type="curve" smooth="yes"/>
      <point x="264" y="36"/>
      <point x="106" y="194"/>
    </contour>
    <contour>
      <point x="462" y="226" type="curve" smooth="yes"/>
      <point x="375" y="226"/>
      <point x="343" y="299"/>
      <point x="343" y="377" type="curve" smooth="yes"/>
      <point x="343" y="403" type="line" smooth="yes"/>
      <point x="343" y="481"/>
      <point x="375" y="554"/>
      <point x="462" y="554" type="curve" smooth="yes"/>
      <point x="540" y="554"/>
      <point x="567" y="506"/>
      <point x="567" y="454" type="curve"/>
      <point x="656" y="454" type="line"/>
      <point x="656" y="472" type="line" smooth="yes"/>
      <point x="656" y="549"/>
      <point x="601" y="637"/>
      <point x="460" y="637" type="curve" smooth="yes"/>
      <point x="308" y="637"/>
      <point x="249" y="522"/>
      <point x="249" y="403" type="curve" smooth="yes"/>
      <point x="249" y="377" type="line" smooth="yes"/>
      <point x="249" y="258"/>
      <point x="308" y="143"/>
      <point x="460" y="143" type="curve" smooth="yes"/>
      <point x="601" y="143"/>
      <point x="656" y="228"/>
      <point x="656" y="301" type="curve" smooth="yes"/>
      <point x="656" y="317" type="line"/>
      <point x="567" y="317" type="line"/>
      <point x="567" y="275"/>
      <point x="542" y="226"/>
    </contour>
  </outline>
</glyph>
<glyph name="ordfeminine" format="1">
  <advance width="403"/>
  <unicode hex="00AA"/>
  <outline>
    <contour>
      <point x="293" y="388" type="line"/>
      <point x="371" y="388" type="line"/>
      <point x="380" y="499" type="line"/>
      <point x="399" y="643" type="line" smooth="yes"/>
      <point x="411" y="735"/>
      <point x="382" y="792"/>
      <point x="252" y="792" type="curve" smooth="yes"/>
      <point x="138" y="792"/>
      <point x="97" y="728"/>
      <point x="87" y="659" type="curve" smooth="yes"/>
      <point x="86" y="652" type="line"/>
      <point x="170" y="652" type="line"/>
      <point x="175" y="690"/>
      <point x="194" y="723"/>
      <point x="252" y="723" type="curve" smooth="yes"/>
      <point x="306" y="723"/>
      <point x="318" y="695"/>
      <point x="311" y="646" type="curve" smooth="yes"/>
      <point x="310" y="639" type="line"/>
      <point x="203" y="622" type="line" smooth="yes"/>
      <point x="127" y="610"/>
      <point x="63" y="586"/>
      <point x="51" y="500" type="curve" smooth="yes"/>
      <point x="50" y="492" type="line" smooth="yes"/>
      <point x="42" y="429"/>
      <point x="73" y="378"/>
      <point x="163" y="378" type="curve" smooth="yes"/>
      <point x="222" y="378"/>
      <point x="266" y="405"/>
      <point x="293" y="437" type="curve"/>
    </contour>
    <contour>
      <point x="345" y="202" type="line"/>
      <point x="355" y="279" type="line"/>
      <point x="32" y="279" type="line"/>
      <point x="22" y="202" type="line"/>
    </contour>
    <contour>
      <point x="193" y="451" type="curve" smooth="yes"/>
      <point x="150" y="451"/>
      <point x="137" y="476"/>
      <point x="140" y="503" type="curve" smooth="yes"/>
      <point x="141" y="511" type="line" smooth="yes"/>
      <point x="145" y="545"/>
      <point x="171" y="564"/>
      <point x="214" y="571" type="curve" smooth="yes"/>
      <point x="303" y="585" type="line"/>
      <point x="291" y="495" type="line"/>
      <point x="277" y="476"/>
      <point x="243" y="451"/>
    </contour>
  </outline>
</glyph>
<glyph name="guillemotleft" format="1">
  <advance width="534"/>
  <unicode hex="00AB"/>
  <outline>
    <contour>
      <point x="280" y="538" type="line"/>
      <point x="51" y="387" type="line"/>
      <point x="39" y="293" type="line"/>
      <point x="228" y="142" type="line"/>
      <point x="240" y="232" type="line"/>
      <point x="117" y="336" type="line"/>
      <point x="267" y="440" type="line"/>
    </contour>
    <contour>
      <point x="505" y="538" type="line"/>
      <point x="276" y="387" type="line"/>
      <point x="264" y="293" type="line"/>
      <point x="453" y="142" type="line"/>
      <point x="465" y="232" type="line"/>
      <point x="342" y="336" type="line"/>
      <point x="492" y="440" type="line"/>
    </contour>
  </outline>
</glyph>
<glyph name="logicalnot" format="1">
  <advance width="600"/>
  <unicode hex="00AC"/>
  <outline>
    <contour>
      <point x="58" y="472" type="line"/>
      <point x="474" y="472" type="line"/>
      <point x="439" y="206" type="line"/>
      <point x="531" y="206" type="line"/>
      <point x="578" y="564" type="line"/>
      <point x="70" y="564" type="line"/>
    </contour>
  </outline>
</glyph>
<glyph name="registered" format="1">
  <advance width="330"/>
  <unicode hex="00AE"/>
  <outline>
    <contour>
      <point x="18" y="665" type="curve" smooth="yes"/>
      <point x="18" y="584"/>
      <point x="84" y="518"/>
      <point x="165" y="518" type="curve" smooth="yes"/>
      <point x="246" y="518"/>
      <point x="312" y="584"/>
      <point x="312" y="665" type="curve" smooth="yes"/>
      <point x="312" y="746"/>
      <point x="246" y="812"/>
      <point x="165" y="812" type="curve" smooth="yes"/>
      <point x="84" y="812"/>
      <point x="18" y="746"/>
    </contour>
    <contour>
      <point x="42" y="665" type="curve" smooth="yes"/>
      <point x="42" y="733"/>
      <point x="97" y="788"/>
      <point x="165" y="788" type="curve" smooth="yes"/>
      <point x="233" y="788"/>
      <point x="288" y="733"/>
      <point x="288" y="665" type="curve" smooth="yes"/>
      <point x="288" y="597"/>
      <point x="233" y="542"/>
      <point x="165" y="542" type="curve" smooth="yes"/>
      <point x="97" y="542"/>
      <point x="42" y="597"/>
    </contour>
    <contour>
      <point x="234" y="691" type="curve" smooth="yes"/>
      <point x="234" y="698" type="line" smooth="yes"/>
      <point x="234" y="736"/>
      <point x="207" y="751"/>
      <point x="176" y="751" type="curve" smooth="yes"/>
      <point x="96" y="751" type="line"/>
      <point x="96" y="579" type="line"/>
      <point x="139" y="579" type="line"/>
      <point x="139" y="638" type="line"/>
      <point x="165" y="638" type="line"/>
      <point x="190" y="579" type="line"/>
      <point x="234" y="579" type="line"/>
      <point x="204" y="643" type="line"/>
      <point x="222" y="650"/>
      <point x="234" y="665"/>
    </contour>
    <contour>
      <point x="191" y="696" type="curve" smooth="yes"/>
      <point x="191" y="693" type="line" smooth="yes"/>
      <point x="191" y="678"/>
      <point x="182" y="672"/>
      <point x="167" y="672" type="curve" smooth="yes"/>
      <point x="139" y="672" type="line"/>
      <point x="139" y="717" type="line"/>
      <point x="167" y="717" type="line" smooth="yes"/>
      <point x="182" y="717"/>
      <point x="191" y="711"/>
    </contour>
  </outline>
</glyph>
<glyph name="macron" format="1">
  <advance width="500"/>
  <unicode hex="00AF"/>
  <outline>
    <contour>
      <point x="158" y="652" type="line"/>
      <point x="415" y="652" type="line"/>
      <point x="427" y="742" type="line"/>
      <point x="170" y="742" type="line"/>
    </contour>
  </outline>
</glyph>
<glyph name="degree" format="1">
  <advance width="400"/>
  <unicode hex="00B0"/>
  <outline>
    <contour>
      <point x="221" y="548" type="line" smooth="yes"/>
      <point x="169" y="548"/>
      <point x="140" y="584"/>
      <point x="146" y="631" type="curve" smooth="yes"/>
      <point x="147" y="639" type="line" smooth="yes"/>
      <point x="154" y="694"/>
      <point x="192" y="722"/>
      <point x="241" y="722" type="curve" smooth="yes"/>
      <point x="247" y="722" type="line" smooth="yes"/>
      <point x="299" y="722"/>
      <point x="328" y="686"/>
      <point x="322" y="639" type="curve" smooth="yes"/>
      <point x="321" y="631" type="line" smooth="yes"/>
      <point x="314" y="576"/>
      <point x="276" y="548"/>
      <point x="227" y="548" type="curve" smooth="yes"/>
    </contour>
    <contour>
      <point x="244" y="792" type="curve" smooth="yes"/>
      <point x="154" y="792"/>
      <point x="90" y="738"/>
      <point x="78" y="639" type="curve" smooth="yes"/>
      <point x="77" y="631" type="line" smooth="yes"/>
      <point x="65" y="535"/>
      <point x="127" y="478"/>
      <point x="224" y="478" type="curve" smooth="yes"/>
      <point x="314" y="478"/>
      <point x="378" y="532"/>
      <point x="390" y="631" type="curve" smooth="yes"/>
      <point x="391" y="639" type="line" smooth="yes"/>
      <point x="403" y="735"/>
      <point x="341" y="792"/>
    </contour>
  </outline>
</glyph>
<glyph name="plusminus" format="1">
  <advance width="600"/>
  <unicode hex="00B1"/>
  <outline>
    <contour>
      <point x="353" y="437" type="line"/>
      <point x="561" y="437" type="line"/>
      <point x="573" y="529" type="line"/>
      <point x="365" y="529" type="line"/>
      <point x="382" y="657" type="line"/>
      <point x="290" y="657" type="line"/>
      <point x="273" y="529" type="line"/>
      <point x="65" y="529" type="line"/>
      <point x="53" y="437" type="line"/>
      <point x="261" y="437" type="line"/>
      <point x="244" y="309" type="line"/>
      <point x="336" y="309" type="line"/>
    </contour>
    <contour>
      <point x="16" y="153" type="line"/>
      <point x="524" y="153" type="line"/>
      <point x="536" y="245" type="line"/>
      <point x="28" y="245" type="line"/>
    </contour>
  </outline>
</glyph>
<glyph name="twosuperior" format="1">
  <advance width="300"/>
  <unicode hex="00B2"/>
  <outline>
    <contour>
      <point x="181" y="460" type="line"/>
      <point x="145" y="459" type="line"/>
      <point x="259" y="569" type="line" smooth="yes"/>
      <point x="295" y="604"/>
      <point x="310" y="625"/>
      <point x="315" y="665" type="curve" smooth="yes"/>
      <point x="316" y="673" type="line" smooth="yes"/>
      <point x="323" y="729"/>
      <point x="291" y="786"/>
      <point x="194" y="786" type="curve" smooth="yes"/>
      <point x="111" y="786"/>
      <point x="68" y="741"/>
      <point x="58" y="658" type="curve" smooth="yes"/>
      <point x="57" y="650" type="line"/>
      <point x="137" y="650" type="line"/>
      <point x="141" y="700"/>
      <point x="161" y="716"/>
      <point x="191" y="716" type="curve" smooth="yes"/>
      <point x="197" y="716" type="line" smooth="yes"/>
      <point x="223" y="716"/>
      <point x="239" y="701"/>
      <point x="235" y="667" type="curve" smooth="yes"/>
      <point x="234" y="659" type="line" smooth="yes"/>
      <point x="232" y="640"/>
      <point x="224" y="629"/>
      <point x="201" y="606" type="curve" smooth="yes"/>
      <point x="30" y="440" type="line"/>
      <point x="23" y="390" type="line"/>
      <point x="279" y="390" type="line"/>
      <point x="288" y="460" type="line"/>
    </contour>
  </outline>
</glyph>
<glyph name="paragraph" format="1">
  <advance width="526"/>
  <unicode hex="00B6"/>
  <outline>
    <contour>
      <point x="311" y="0" type="line"/>
      <point x="415" y="0" type="line"/>
      <point x="517" y="780" type="line"/>
      <point x="315" y="780" type="line" smooth="yes"/>
      <point x="207" y="780"/>
      <point x="79" y="732"/>
      <point x="55" y="556" type="curve" smooth="yes"/>
      <point x="52" y="534" type="line" smooth="yes"/>
      <point x="27" y="352"/>
      <point x="162" y="312"/>
      <point x="241" y="306" type="curve"/>
      <point x="201" y="0" type="line"/>
      <point x="265" y="0" type="line"/>
      <point x="355" y="688" type="line"/>
      <point x="401" y="688" type="line"/>
    </contour>
    <contour>
      <point x="160" y="550" type="line" smooth="yes"/>
      <point x="173" y="651"/>
      <point x="235" y="680"/>
      <point x="291" y="687" type="curve"/>
      <point x="253" y="397" type="line"/>
      <point x="199" y="405"/>
      <point x="146" y="437"/>
      <point x="159" y="542" type="curve" smooth="yes"/>
    </contour>
  </outline>
</glyph>
<glyph name="cedilla" format="1">
  <advance width="602"/>
  <unicode hex="00B8"/>
  <outline>
    <contour>
      <point x="180" y="-213" type="curve" smooth="yes"/>
      <point x="246" y="-213"/>
      <point x="296" y="-184"/>
      <point x="296" y="-125" type="curve" smooth="yes"/>
      <point x="296" y="-72"/>
      <point x="253" y="-51"/>
      <point x="204" y="-50" type="curve"/>
      <point x="230" y="0" type="line"/>
      <point x="172" y="0" type="line"/>
      <point x="132" y="-77" type="line"/>
      <point x="146" y="-102" type="line"/>
      <point x="146" y="-102"/>
      <point x="162" y="-99"/>
      <point x="178" y="-99" type="curve" smooth="yes"/>
      <point x="212" y="-99"/>
      <point x="232" y="-106"/>
      <point x="232" y="-125" type="curve" smooth="yes"/>
      <point x="232" y="-147"/>
      <point x="213" y="-155"/>
      <point x="180" y="-155" type="curve" smooth="yes"/>
      <point x="149" y="-155"/>
      <point x="122" y="-147"/>
      <point x="106" y="-136" type="curve"/>
      <point x="81" y="-188" type="line"/>
      <point x="99" y="-201"/>
      <point x="134" y="-213"/>
    </contour>
  </outline>
</glyph>
<glyph name="ordmasculine" format="1">
  <advance width="427"/>
  <unicode hex="00BA"/>
  <outline>
    <contour>
      <point x="419" y="595" type="line" smooth="yes"/>
      <point x="434" y="708"/>
      <point x="393" y="792"/>
      <point x="260" y="792" type="curve" smooth="yes"/>
      <point x="152" y="792"/>
      <point x="83" y="719"/>
      <point x="66" y="597" type="curve" smooth="yes"/>
      <point x="63" y="575" type="line" smooth="yes"/>
      <point x="48" y="462"/>
      <point x="89" y="378"/>
      <point x="222" y="378" type="curve" smooth="yes"/>
      <point x="330" y="378"/>
      <point x="399" y="451"/>
      <point x="416" y="573" type="curve" smooth="yes"/>
    </contour>
    <contour>
      <point x="22" y="202" type="line"/>
      <point x="359" y="202" type="line"/>
      <point x="369" y="279" type="line"/>
      <point x="32" y="279" type="line"/>
    </contour>
    <contour>
      <point x="327" y="573" type="line" smooth="yes"/>
      <point x="317" y="497"/>
      <point x="282" y="455"/>
      <point x="225" y="455" type="curve" smooth="yes"/>
      <point x="161" y="455"/>
      <point x="142" y="502"/>
      <point x="152" y="575" type="curve" smooth="yes"/>
      <point x="155" y="597" type="line" smooth="yes"/>
      <point x="165" y="673"/>
      <point x="200" y="715"/>
      <point x="257" y="715" type="curve" smooth="yes"/>
      <point x="321" y="715"/>
      <point x="340" y="668"/>
      <point x="330" y="595" type="curve" smooth="yes"/>
    </contour>
  </outline>
</glyph>
<glyph name="guillemotright" format="1">
  <advance width="534"/>
  <unicode hex="00BB"/>
  <outline>
    <contour>
      <point x="244" y="142" type="line"/>
      <point x="473" y="293" type="line"/>
      <point x="485" y="387" type="line"/>
      <point x="296" y="538" type="line"/>
      <point x="284" y="448" type="line"/>
      <point x="407" y="344" type="line"/>
      <point x="257" y="240" type="line"/>
    </contour>
    <contour>
      <point x="19" y="142" type="line"/>
      <point x="248" y="293" type="line"/>
      <point x="260" y="387" type="line"/>
      <point x="71" y="538" type="line"/>
      <point x="59" y="448" type="line"/>
      <point x="182" y="344" type="line"/>
      <point x="32" y="240" type="line"/>
    </contour>
  </outline>
</glyph>
<glyph name="onequarter" format="1">
  <advance width="800"/>
  <unicode hex="00BC"/>
  <outline>
    <contour>
      <point x="283" y="390" type="line"/>
      <point x="292" y="460" type="line"/>
      <point x="206" y="460" type="line"/>
      <point x="248" y="780" type="line"/>
      <point x="189" y="780" type="line"/>
      <point x="56" y="698" type="line"/>
      <point x="88" y="640" type="line"/>
      <point x="155" y="681" type="line"/>
      <point x="126" y="460" type="line"/>
      <point x="41" y="460" type="line"/>
      <point x="32" y="390" type="line"/>
    </contour>
    <contour>
      <point x="114" y="0" type="line"/>
      <point x="792" y="780" type="line"/>
      <point x="690" y="780" type="line"/>
      <point x="12" y="0" type="line"/>
    </contour>
    <contour>
      <point x="695" y="0" type="line"/>
      <point x="707" y="85" type="line"/>
      <point x="749" y="85" type="line"/>
      <point x="758" y="155" type="line"/>
      <point x="716" y="155" type="line"/>
      <point x="747" y="390" type="line"/>
      <point x="671" y="390" type="line"/>
      <point x="483" y="143" type="line"/>
      <point x="475" y="85" type="line"/>
      <point x="627" y="85" type="line"/>
      <point x="615" y="0" type="line"/>
    </contour>
    <contour>
      <point x="650" y="262" type="line"/>
      <point x="646" y="233" type="line"/>
      <point x="636" y="155" type="line"/>
      <point x="594" y="155" type="line"/>
      <point x="568" y="154" type="line"/>
    </contour>
  </outline>
</glyph>
<glyph name="onehalf" format="1">
  <advance width="800"/>
  <unicode hex="00BD"/>
  <outline>
    <contour>
      <point x="283" y="390" type="line"/>
      <point x="292" y="460" type="line"/>
      <point x="206" y="460" type="line"/>
      <point x="248" y="780" type="line"/>
      <point x="189" y="780" type="line"/>
      <point x="56" y="698" type="line"/>
      <point x="88" y="640" type="line"/>
      <point x="155" y="681" type="line"/>
      <point x="126" y="460" type="line"/>
      <point x="41" y="460" type="line"/>
      <point x="32" y="390" type="line"/>
    </contour>
    <contour>
      <point x="114" y="0" type="line"/>
      <point x="792" y="780" type="line"/>
      <point x="690" y="780" type="line"/>
      <point x="12" y="0" type="line"/>
    </contour>
    <contour>
      <point x="631" y="70" type="line"/>
      <point x="595" y="69" type="line"/>
      <point x="709" y="179" type="line" smooth="yes"/>
      <point x="745" y="214"/>
      <point x="760" y="235"/>
      <point x="765" y="275" type="curve" smooth="yes"/>
      <point x="766" y="283" type="line" smooth="yes"/>
      <point x="773" y="339"/>
      <point x="741" y="396"/>
      <point x="644" y="396" type="curve" smooth="yes"/>
      <point x="561" y="396"/>
      <point x="518" y="351"/>
      <point x="508" y="268" type="curve" smooth="yes"/>
      <point x="507" y="260" type="line"/>
      <point x="587" y="260" type="line"/>
      <point x="591" y="310"/>
      <point x="611" y="326"/>
      <point x="641" y="326" type="curve" smooth="yes"/>
      <point x="647" y="326" type="line" smooth="yes"/>
      <point x="673" y="326"/>
      <point x="689" y="311"/>
      <point x="685" y="277" type="curve" smooth="yes"/>
      <point x="684" y="269" type="line" smooth="yes"/>
      <point x="682" y="250"/>
      <point x="674" y="239"/>
      <point x="651" y="216" type="curve" smooth="yes"/>
      <point x="480" y="50" type="line"/>
      <point x="473" y="0" type="line"/>
      <point x="729" y="0" type="line"/>
      <point x="738" y="70" type="line"/>
    </contour>
  </outline>
</glyph>
<glyph name="threequarters" format="1">
  <advance width="800"/>
  <unicode hex="00BE"/>
  <outline>
    <contour>
      <point x="117" y="515" type="curve"/>
      <point x="37" y="515" type="line"/>
      <point x="36" y="507" type="line" smooth="yes"/>
      <point x="27" y="434"/>
      <point x="67" y="383"/>
      <point x="161" y="383" type="curve" smooth="yes"/>
      <point x="251" y="383"/>
      <point x="289" y="441"/>
      <point x="295" y="491" type="curve" smooth="yes"/>
      <point x="296" y="499" type="line" smooth="yes"/>
      <point x="302" y="545"/>
      <point x="285" y="579"/>
      <point x="255" y="588" type="curve"/>
      <point x="287" y="597"/>
      <point x="310" y="625"/>
      <point x="316" y="669" type="curve" smooth="yes"/>
      <point x="317" y="677" type="line" smooth="yes"/>
      <point x="323" y="729"/>
      <point x="291" y="786"/>
      <point x="194" y="786" type="curve" smooth="yes"/>
      <point x="111" y="786"/>
      <point x="68" y="741"/>
      <point x="58" y="658" type="curve" smooth="yes"/>
      <point x="57" y="650" type="line"/>
      <point x="137" y="650" type="line"/>
      <point x="141" y="700"/>
      <point x="161" y="716"/>
      <point x="191" y="716" type="curve" smooth="yes"/>
      <point x="197" y="716" type="line" smooth="yes"/>
      <point x="222" y="716"/>
      <point x="239" y="700"/>
      <point x="236" y="674" type="curve" smooth="yes"/>
      <point x="235" y="666" type="line" smooth="yes"/>
      <point x="231" y="635"/>
      <point x="212" y="624"/>
      <point x="183" y="624" type="curve" smooth="yes"/>
      <point x="131" y="624" type="line"/>
      <point x="122" y="554" type="line"/>
      <point x="175" y="554" type="line" smooth="yes"/>
      <point x="206" y="554"/>
      <point x="220" y="538"/>
      <point x="216" y="507" type="curve" smooth="yes"/>
      <point x="215" y="499" type="line" smooth="yes"/>
      <point x="211" y="464"/>
      <point x="189" y="453"/>
      <point x="164" y="453" type="curve" smooth="yes"/>
      <point x="158" y="453" type="line" smooth="yes"/>
      <point x="131" y="453"/>
      <point x="110" y="465"/>
    </contour>
    <contour>
      <point x="114" y="0" type="line"/>
      <point x="792" y="780" type="line"/>
      <point x="690" y="780" type="line"/>
      <point x="12" y="0" type="line"/>
    </contour>
    <contour>
      <point x="695" y="0" type="line"/>
      <point x="707" y="85" type="line"/>
      <point x="749" y="85" type="line"/>
      <point x="758" y="155" type="line"/>
      <point x="716" y="155" type="line"/>
      <point x="747" y="390" type="line"/>
      <point x="671" y="390" type="line"/>
      <point x="483" y="143" type="line"/>
      <point x="475" y="85" type="line"/>
      <point x="627" y="85" type="line"/>
      <point x="615" y="0" type="line"/>
    </contour>
    <contour>
      <point x="650" y="262" type="line"/>
      <point x="646" y="233" type="line"/>
      <point x="636" y="155" type="line"/>
      <point x="594" y="155" type="line"/>
      <point x="568" y="154" type="line"/>
    </contour>
  </outline>
</glyph>
<glyph name="questiondown" format="1">
  <advance width="470"/>
  <unicode hex="00BF"/>
  <outline>
    <contour>
      <point x="165" y="-121" type="curve" smooth="yes"/>
      <point x="100" y="-121"/>
      <point x="74" y="-89"/>
      <point x="74" y="-39" type="curve" smooth="yes"/>
      <point x="74" y="95"/>
      <point x="251" y="149"/>
      <point x="266" y="327" type="curve"/>
      <point x="196" y="327" type="line"/>
      <point x="164" y="156"/>
      <point x="-30" y="139"/>
      <point x="-30" y="-57" type="curve" smooth="yes"/>
      <point x="-30" y="-145"/>
      <point x="24" y="-212"/>
      <point x="165" y="-212" type="curve" smooth="yes"/>
      <point x="322" y="-212"/>
      <point x="379" y="-110"/>
      <point x="402" y="53" type="curve" smooth="yes"/>
      <point x="403" y="60" type="line"/>
      <point x="300" y="60" type="line"/>
      <point x="289" y="-55"/>
      <point x="252" y="-121"/>
    </contour>
    <contour>
      <point x="314" y="530" type="line"/>
      <point x="200" y="530" type="line"/>
      <point x="185" y="416" type="line"/>
      <point x="299" y="416" type="line"/>
    </contour>
  </outline>
</glyph>
<glyph name="Agrave" format="1">
  <advance width="621"/>
  <unicode hex="00C0"/>
  <outline>
    <contour>
      <point x="273" y="950" type="line"/>
      <point x="321" y="840" type="line"/>
      <point x="423" y="840" type="line"/>
      <point x="380" y="950" type="line"/>
    </contour>
    <contour>
      <point x="292" y="786" type="line"/>
      <point x="-26" y="0" type="line"/>
      <point x="89" y="0" type="line"/>
      <point x="162" y="188" type="line"/>
      <point x="414" y="188" type="line"/>
      <point x="439" y="0" type="line"/>
      <point x="549" y="0" type="line"/>
      <point x="437" y="786" type="line"/>
    </contour>
    <contour>
      <point x="352" y="669" type="line"/>
      <point x="402" y="280" type="line"/>
      <point x="198" y="280" type="line"/>
    </contour>
  </outline>
</glyph>
<glyph name="Acircumflex" format="1">
  <advance width="621"/>
  <unicode hex="00C2"/>
  <outline>
    <contour>
      <point x="534" y="840" type="line"/>
      <point x="436" y="950" type="line"/>
      <point x="338" y="950" type="line"/>
      <point x="210" y="840" type="line"/>
      <point x="308" y="840" type="line"/>
      <point x="383" y="899" type="line"/>
      <point x="440" y="840" type="line"/>
    </contour>
    <contour>
      <point x="292" y="786" type="line"/>
      <point x="-26" y="0" type="line"/>
      <point x="89" y="0" type="line"/>
      <point x="162" y="188" type="line"/>
      <point x="414" y="188" type="line"/>
      <point x="439" y="0" type="line"/>
      <point x="549" y="0" type="line"/>
      <point x="437" y="786" type="line"/>
    </contour>
    <contour>
      <point x="352" y="669" type="line"/>
      <point x="402" y="280" type="line"/>
      <point x="198" y="280" type="line"/>
    </contour>
  </outline>
</glyph>
<glyph name="Atilde" format="1">
  <advance width="621"/>
  <unicode hex="00C3"/>
  <outline>
    <contour>
      <point x="486" y="940" type="line"/>
      <point x="482" y="912"/>
      <point x="464" y="901"/>
      <point x="447" y="901" type="curve" smooth="yes"/>
      <point x="408" y="901"/>
      <point x="370" y="952"/>
      <point x="311" y="952" type="curve" smooth="yes"/>
      <point x="262" y="952"/>
      <point x="219" y="922"/>
      <point x="210" y="850" type="curve"/>
      <point x="272" y="850" type="line"/>
      <point x="276" y="878"/>
      <point x="294" y="889"/>
      <point x="311" y="889" type="curve" smooth="yes"/>
      <point x="350" y="889"/>
      <point x="388" y="838"/>
      <point x="447" y="838" type="curve" smooth="yes"/>
      <point x="496" y="838"/>
      <point x="539" y="868"/>
      <point x="548" y="940" type="curve"/>
    </contour>
    <contour>
      <point x="292" y="786" type="line"/>
      <point x="-26" y="0" type="line"/>
      <point x="89" y="0" type="line"/>
      <point x="162" y="188" type="line"/>
      <point x="414" y="188" type="line"/>
      <point x="439" y="0" type="line"/>
      <point x="549" y="0" type="line"/>
      <point x="437" y="786" type="line"/>
    </contour>
    <contour>
      <point x="352" y="669" type="line"/>
      <point x="402" y="280" type="line"/>
      <point x="198" y="280" type="line"/>
    </contour>
  </outline>
</glyph>
<glyph name="Adieresis" format="1">
  <advance width="621"/>
  <unicode hex="00C4"/>
  <outline>
    <contour>
      <point x="353" y="936" type="line"/>
      <point x="254" y="936" type="line"/>
      <point x="243" y="854" type="line"/>
      <point x="342" y="854" type="line"/>
    </contour>
    <contour>
      <point x="516" y="936" type="line"/>
      <point x="417" y="936" type="line"/>
      <point x="406" y="854" type="line"/>
      <point x="505" y="854" type="line"/>
    </contour>
    <contour>
      <point x="292" y="786" type="line"/>
      <point x="-26" y="0" type="line"/>
      <point x="89" y="0" type="line"/>
      <point x="162" y="188" type="line"/>
      <point x="414" y="188" type="line"/>
      <point x="439" y="0" type="line"/>
      <point x="549" y="0" type="line"/>
      <point x="437" y="786" type="line"/>
    </contour>
    <contour>
      <point x="352" y="669" type="line"/>
      <point x="402" y="280" type="line"/>
      <point x="198" y="280" type="line"/>
    </contour>
  </outline>
</glyph>
<glyph name="Aring" format="1">
  <advance width="621"/>
  <unicode hex="00C5"/>
  <outline>
    <contour>
      <point x="292" y="786" type="line"/>
      <point x="-26" y="0" type="line"/>
      <point x="89" y="0" type="line"/>
      <point x="162" y="188" type="line"/>
      <point x="414" y="188" type="line"/>
      <point x="439" y="0" type="line"/>
      <point x="549" y="0" type="line"/>
      <point x="437" y="786" type="line"/>
      <point x="431" y="786" type="line"/>
      <point x="456" y="805"/>
      <point x="474" y="835"/>
      <point x="474" y="870" type="curve" smooth="yes"/>
      <point x="474" y="925"/>
      <point x="436" y="962"/>
      <point x="383" y="962" type="curve" smooth="yes"/>
      <point x="327" y="962"/>
      <point x="276" y="917"/>
      <point x="276" y="857" type="curve" smooth="yes"/>
      <point x="276" y="827"/>
      <point x="287" y="802"/>
      <point x="306" y="786" type="curve"/>
    </contour>
    <contour>
      <point x="352" y="669" type="line"/>
      <point x="402" y="280" type="line"/>
      <point x="198" y="280" type="line"/>
    </contour>
    <contour>
      <point x="321" y="857" type="curve" smooth="yes"/>
      <point x="321" y="896"/>
      <point x="351" y="918"/>
      <point x="383" y="918" type="curve" smooth="yes"/>
      <point x="411" y="918"/>
      <point x="429" y="899"/>
      <point x="429" y="870" type="curve" smooth="yes"/>
      <point x="429" y="831"/>
      <point x="399" y="809"/>
      <point x="367" y="809" type="curve" smooth="yes"/>
      <point x="339" y="809"/>
      <point x="321" y="828"/>
    </contour>
  </outline>
</glyph>
<glyph name="AE" format="1">
  <advance width="854"/>
  <unicode hex="00C6"/>
  <outline>
    <contour>
      <point x="350" y="780" type="line"/>
      <point x="-34" y="0" type="line"/>
      <point x="78" y="0" type="line"/>
      <point x="171" y="194" type="line"/>
      <point x="393" y="194" type="line"/>
      <point x="395" y="0" type="line"/>
      <point x="765" y="0" type="line"/>
      <point x="777" y="92" type="line"/>
      <point x="504" y="92" type="line"/>
      <point x="501" y="352" type="line"/>
      <point x="761" y="352" type="line"/>
      <point x="773" y="444" type="line"/>
      <point x="500" y="444" type="line"/>
      <point x="497" y="688" type="line"/>
      <point x="855" y="688" type="line"/>
      <point x="867" y="780" type="line"/>
    </contour>
    <contour>
      <point x="390" y="656" type="line"/>
      <point x="392" y="286" type="line"/>
      <point x="215" y="286" type="line"/>
    </contour>
  </outline>
</glyph>
<glyph name="Ccedilla" format="1">
  <advance width="630"/>
  <unicode hex="00C7"/>
  <outline>
    <contour>
      <point x="265" y="-213" type="curve" smooth="yes"/>
      <point x="331" y="-213"/>
      <point x="381" y="-184"/>
      <point x="381" y="-125" type="curve" smooth="yes"/>
      <point x="381" y="-72"/>
      <point x="338" y="-51"/>
      <point x="289" y="-50" type="curve"/>
      <point x="309" y="-12" type="line"/>
      <point x="459" y="-5"/>
      <point x="549" y="85"/>
      <point x="566" y="249" type="curve" smooth="yes"/>
      <point x="567" y="259" type="line"/>
      <point x="463" y="259" type="line"/>
      <point x="448" y="146"/>
      <point x="400" y="80"/>
      <point x="296" y="80" type="curve" smooth="yes"/>
      <point x="288" y="80" type="line" smooth="yes"/>
      <point x="166" y="80"/>
      <point x="129" y="169"/>
      <point x="155" y="367" type="curve" smooth="yes"/>
      <point x="161" y="413" type="line" smooth="yes"/>
      <point x="187" y="611"/>
      <point x="248" y="700"/>
      <point x="368" y="700" type="curve" smooth="yes"/>
      <point x="376" y="700" type="line" smooth="yes"/>
      <point x="485" y="700"/>
      <point x="512" y="633"/>
      <point x="493" y="491" type="curve"/>
      <point x="598" y="491" type="line"/>
      <point x="602" y="518" type="line" smooth="yes"/>
      <point x="629" y="702"/>
      <point x="553" y="792"/>
      <point x="372" y="792" type="curve" smooth="yes"/>
      <point x="188" y="792"/>
      <point x="90" y="682"/>
      <point x="55" y="413" type="curve" smooth="yes"/>
      <point x="49" y="367" type="line" smooth="yes"/>
      <point x="16" y="117"/>
      <point x="81" y="4"/>
      <point x="251" y="-10" type="curve"/>
      <point x="217" y="-77" type="line"/>
      <point x="231" y="-102" type="line"/>
      <point x="231" y="-102"/>
      <point x="247" y="-99"/>
      <point x="263" y="-99" type="curve" smooth="yes"/>
      <point x="297" y="-99"/>
      <point x="317" y="-106"/>
      <point x="317" y="-125" type="curve" smooth="yes"/>
      <point x="317" y="-147"/>
      <point x="298" y="-155"/>
      <point x="265" y="-155" type="curve" smooth="yes"/>
      <point x="234" y="-155"/>
      <point x="207" y="-147"/>
      <point x="191" y="-136" type="curve"/>
      <point x="166" y="-188" type="line"/>
      <point x="184" y="-201"/>
      <point x="219" y="-213"/>
    </contour>
  </outline>
</glyph>
<glyph name="Egrave" format="1">
  <advance width="557"/>
  <unicode hex="00C8"/>
  <outline>
    <contour>
      <point x="260" y="950" type="line"/>
      <point x="308" y="840" type="line"/>
      <point x="410" y="840" type="line"/>
      <point x="367" y="950" type="line"/>
    </contour>
    <contour>
      <point x="120" y="780" type="line"/>
      <point x="18" y="0" type="line"/>
      <point x="468" y="0" type="line"/>
      <point x="480" y="92" type="line"/>
      <point x="134" y="92" type="line"/>
      <point x="168" y="352" type="line"/>
      <point x="464" y="352" type="line"/>
      <point x="476" y="444" type="line"/>
      <point x="180" y="444" type="line"/>
      <point x="212" y="688" type="line"/>
      <point x="558" y="688" type="line"/>
      <point x="570" y="780" type="line"/>
    </contour>
  </outline>
</glyph>
<glyph name="Edieresis" format="1">
  <advance width="557"/>
  <unicode hex="00CB"/>
  <outline>
    <contour>
      <point x="340" y="936" type="line"/>
      <point x="241" y="936" type="line"/>
      <point x="230" y="854" type="line"/>
      <point x="329" y="854" type="line"/>
    </contour>
    <contour>
      <point x="503" y="936" type="line"/>
      <point x="404" y="936" type="line"/>
      <point x="393" y="854" type="line"/>
      <point x="492" y="854" type="line"/>
    </contour>
    <contour>
      <point x="120" y="780" type="line"/>
      <point x="18" y="0" type="line"/>
      <point x="468" y="0" type="line"/>
      <point x="480" y="92" type="line"/>
      <point x="134" y="92" type="line"/>
      <point x="168" y="352" type="line"/>
      <point x="464" y="352" type="line"/>
      <point x="476" y="444" type="line"/>
      <point x="180" y="444" type="line"/>
      <point x="212" y="688" type="line"/>
      <point x="558" y="688" type="line"/>
      <point x="570" y="780" type="line"/>
    </contour>
  </outline>
</glyph>
<glyph name="Igrave" format="1">
  <advance width="248"/>
  <unicode hex="00CC"/>
  <outline>
    <contour>
      <point x="86" y="950" type="line"/>
      <point x="134" y="840" type="line"/>
      <point x="236" y="840" type="line"/>
      <point x="193" y="950" type="line"/>
    </contour>
    <contour>
      <point x="229" y="780" type="line"/>
      <point x="125" y="780" type="line"/>
      <point x="23" y="0" type="line"/>
      <point x="127" y="0" type="line"/>
    </contour>
  </outline>
</glyph>
<glyph name="Iacute" format="1">
  <advance width="248"/>
  <unicode hex="00CD"/>
  <outline>
    <contour>
      <point x="207" y="950" type="line"/>
      <point x="134" y="840" type="line"/>
      <point x="236" y="840" type="line"/>
      <point x="314" y="950" type="line"/>
    </contour>
    <contour>
      <point x="229" y="780" type="line"/>
      <point x="125" y="780" type="line"/>
      <point x="23" y="0" type="line"/>
      <point x="127" y="0" type="line"/>
    </contour>
  </outline>
</glyph>
<glyph name="Icircumflex" format="1">
  <advance width="248"/>
  <unicode hex="00CE"/>
  <outline>
    <contour>
      <point x="347" y="840" type="line"/>
      <point x="249" y="950" type="line"/>
      <point x="151" y="950" type="line"/>
      <point x="23" y="840" type="line"/>
      <point x="121" y="840" type="line"/>
      <point x="196" y="899" type="line"/>
      <point x="253" y="840" type="line"/>
    </contour>
    <contour>
      <point x="229" y="780" type="line"/>
      <point x="125" y="780" type="line"/>
      <point x="23" y="0" type="line"/>
      <point x="127" y="0" type="line"/>
    </contour>
  </outline>
</glyph>
<glyph name="Idieresis" format="1">
  <advance width="248"/>
  <unicode hex="00CF"/>
  <outline>
    <contour>
      <point x="166" y="936" type="line"/>
      <point x="67" y="936" type="line"/>
      <point x="56" y="854" type="line"/>
      <point x="155" y="854" type="line"/>
    </contour>
    <contour>
      <point x="329" y="936" type="line"/>
      <point x="230" y="936" type="line"/>
      <point x="219" y="854" type="line"/>
      <point x="318" y="854" type="line"/>
    </contour>
    <contour>
      <point x="229" y="780" type="line"/>
      <point x="125" y="780" type="line"/>
      <point x="23" y="0" type="line"/>
      <point x="127" y="0" type="line"/>
    </contour>
  </outline>
</glyph>
<glyph name="Ntilde" format="1">
  <advance width="667"/>
  <unicode hex="00D1"/>
  <outline>
    <contour>
      <point x="509" y="940" type="line"/>
      <point x="505" y="912"/>
      <point x="487" y="901"/>
      <point x="470" y="901" type="curve" smooth="yes"/>
      <point x="431" y="901"/>
      <point x="393" y="952"/>
      <point x="334" y="952" type="curve" smooth="yes"/>
      <point x="285" y="952"/>
      <point x="242" y="922"/>
      <point x="233" y="850" type="curve"/>
      <point x="295" y="850" type="line"/>
      <point x="299" y="878"/>
      <point x="317" y="889"/>
      <point x="334" y="889" type="curve" smooth="yes"/>
      <point x="373" y="889"/>
      <point x="411" y="838"/>
      <point x="470" y="838" type="curve" smooth="yes"/>
      <point x="519" y="838"/>
      <point x="562" y="868"/>
      <point x="571" y="940" type="curve"/>
    </contour>
    <contour>
      <point x="653" y="780" type="line"/>
      <point x="552" y="780" type="line"/>
      <point x="497" y="357" type="line"/>
      <point x="478" y="184" type="line"/>
      <point x="229" y="780" type="line"/>
      <point x="120" y="780" type="line"/>
      <point x="18" y="0" type="line"/>
      <point x="119" y="0" type="line"/>
      <point x="174" y="423" type="line"/>
      <point x="193" y="596" type="line"/>
      <point x="442" y="0" type="line"/>
      <point x="551" y="0" type="line"/>
    </contour>
  </outline>
</glyph>
<glyph name="Otilde" format="1">
  <advance width="657"/>
  <unicode hex="00D5"/>
  <outline>
    <contour>
      <point x="504" y="940" type="line"/>
      <point x="500" y="912"/>
      <point x="482" y="901"/>
      <point x="465" y="901" type="curve" smooth="yes"/>
      <point x="426" y="901"/>
      <point x="388" y="952"/>
      <point x="329" y="952" type="curve" smooth="yes"/>
      <point x="280" y="952"/>
      <point x="237" y="922"/>
      <point x="228" y="850" type="curve"/>
      <point x="290" y="850" type="line"/>
      <point x="294" y="878"/>
      <point x="312" y="889"/>
      <point x="329" y="889" type="curve" smooth="yes"/>
      <point x="368" y="889"/>
      <point x="406" y="838"/>
      <point x="465" y="838" type="curve" smooth="yes"/>
      <point x="514" y="838"/>
      <point x="557" y="868"/>
      <point x="566" y="940" type="curve"/>
    </contour>
    <contour>
      <point x="370" y="792" type="curve" smooth="yes"/>
      <point x="186" y="792"/>
      <point x="90" y="682"/>
      <point x="55" y="413" type="curve" smooth="yes"/>
      <point x="49" y="367" type="line" smooth="yes"/>
      <point x="14" y="98"/>
      <point x="89" y="-12"/>
      <point x="290" y="-12" type="curve" smooth="yes"/>
      <point x="474" y="-12"/>
      <point x="570" y="98"/>
      <point x="605" y="367" type="curve" smooth="yes"/>
      <point x="611" y="413" type="line" smooth="yes"/>
      <point x="646" y="682"/>
      <point x="571" y="792"/>
    </contour>
    <contour>
      <point x="286" y="80" type="line" smooth="yes"/>
      <point x="166" y="80"/>
      <point x="129" y="169"/>
      <point x="155" y="367" type="curve" smooth="yes"/>
      <point x="161" y="413" type="line" smooth="yes"/>
      <point x="187" y="611"/>
      <point x="246" y="700"/>
      <point x="366" y="700" type="curve" smooth="yes"/>
      <point x="374" y="700" type="line" smooth="yes"/>
      <point x="494" y="700"/>
      <point x="531" y="611"/>
      <point x="505" y="413" type="curve" smooth="yes"/>
      <point x="499" y="367" type="line" smooth="yes"/>
      <point x="473" y="169"/>
      <point x="414" y="80"/>
      <point x="294" y="80" type="curve" smooth="yes"/>
    </contour>
  </outline>
</glyph>
<glyph name="multiply" format="1">
  <advance width="600"/>
  <unicode hex="00D7"/>
  <outline>
    <contour>
      <point x="293" y="324" type="line"/>
      <point x="467" y="123" type="line"/>
      <point x="542" y="189" type="line"/>
      <point x="368" y="390" type="line"/>
      <point x="595" y="591" type="line"/>
      <point x="538" y="657" type="line"/>
      <point x="310" y="456" type="line"/>
      <point x="136" y="657" type="line"/>
      <point x="61" y="591" type="line"/>
      <point x="235" y="390" type="line"/>
      <point x="8" y="189" type="line"/>
      <point x="65" y="123" type="line"/>
    </contour>
  </outline>
</glyph>
<glyph name="Oslash" format="1">
  <advance width="649"/>
  <unicode hex="00D8"/>
  <outline>
    <contour>
      <point x="611" y="413" type="line" smooth="yes"/>
      <point x="626" y="534"/>
      <point x="620" y="623"/>
      <point x="590" y="684" type="curve"/>
      <point x="661" y="780" type="line"/>
      <point x="577" y="780" type="line"/>
      <point x="547" y="740" type="line"/>
      <point x="506" y="775"/>
      <point x="447" y="792"/>
      <point x="370" y="792" type="curve" smooth="yes"/>
      <point x="186" y="792"/>
      <point x="90" y="682"/>
      <point x="55" y="413" type="curve" smooth="yes"/>
      <point x="49" y="367" type="line" smooth="yes"/>
      <point x="34" y="246"/>
      <point x="40" y="157"/>
      <point x="70" y="96" type="curve"/>
      <point x="-1" y="0" type="line"/>
      <point x="83" y="0" type="line"/>
      <point x="113" y="40" type="line"/>
      <point x="154" y="5"/>
      <point x="213" y="-12"/>
      <point x="290" y="-12" type="curve" smooth="yes"/>
      <point x="474" y="-12"/>
      <point x="570" y="98"/>
      <point x="605" y="367" type="curve" smooth="yes"/>
    </contour>
    <contour>
      <point x="161" y="413" type="line" smooth="yes"/>
      <point x="187" y="611"/>
      <point x="246" y="700"/>
      <point x="366" y="700" type="curve" smooth="yes"/>
      <point x="374" y="700" type="line" smooth="yes"/>
      <point x="426" y="700"/>
      <point x="459" y="684"/>
      <point x="482" y="652" type="curve"/>
      <point x="151" y="205" type="line"/>
      <point x="145" y="247"/>
      <point x="145" y="292"/>
      <point x="155" y="367" type="curve" smooth="yes"/>
    </contour>
    <contour>
      <point x="499" y="367" type="line" smooth="yes"/>
      <point x="473" y="169"/>
      <point x="414" y="80"/>
      <point x="294" y="80" type="curve" smooth="yes"/>
      <point x="286" y="80" type="line" smooth="yes"/>
      <point x="234" y="80"/>
      <point x="201" y="96"/>
      <point x="178" y="128" type="curve"/>
      <point x="509" y="575" type="line"/>
      <point x="515" y="533"/>
      <point x="515" y="488"/>
      <point x="505" y="413" type="curve" smooth="yes"/>
    </contour>
  </outline>
</glyph>
<glyph name="Ugrave" format="1">
  <advance width="647"/>
  <unicode hex="00D9"/>
  <outline>
    <contour>
      <point x="286" y="950" type="line"/>
      <point x="334" y="840" type="line"/>
      <point x="436" y="840" type="line"/>
      <point x="393" y="950" type="line"/>
    </contour>
    <contour>
      <point x="282" y="-12" type="curve" smooth="yes"/>
      <point x="465" y="-12"/>
      <point x="544" y="65"/>
      <point x="567" y="243" type="curve" smooth="yes"/>
      <point x="638" y="780" type="line"/>
      <point x="534" y="780" type="line"/>
      <point x="464" y="248" type="line" smooth="yes"/>
      <point x="448" y="126"/>
      <point x="394" y="80"/>
      <point x="284" y="80" type="curve" smooth="yes"/>
      <point x="174" y="80"/>
      <point x="134" y="125"/>
      <point x="150" y="248" type="curve" smooth="yes"/>
      <point x="219" y="780" type="line"/>
      <point x="115" y="780" type="line"/>
      <point x="45" y="243" type="line" smooth="yes"/>
      <point x="22" y="65"/>
      <point x="100" y="-12"/>
    </contour>
  </outline>
</glyph>
<glyph name="Ucircumflex" format="1">
  <advance width="647"/>
  <unicode hex="00DB"/>
  <outline>
    <contour>
      <point x="547" y="840" type="line"/>
      <point x="449" y="950" type="line"/>
      <point x="351" y="950" type="line"/>
      <point x="223" y="840" type="line"/>
      <point x="321" y="840" type="line"/>
      <point x="396" y="899" type="line"/>
      <point x="453" y="840" type="line"/>
    </contour>
    <contour>
      <point x="282" y="-12" type="curve" smooth="yes"/>
      <point x="465" y="-12"/>
      <point x="544" y="65"/>
      <point x="567" y="243" type="curve" smooth="yes"/>
      <point x="638" y="780" type="line"/>
      <point x="534" y="780" type="line"/>
      <point x="464" y="248" type="line" smooth="yes"/>
      <point x="448" y="126"/>
      <point x="394" y="80"/>
      <point x="284" y="80" type="curve" smooth="yes"/>
      <point x="174" y="80"/>
      <point x="134" y="125"/>
      <point x="150" y="248" type="curve" smooth="yes"/>
      <point x="219" y="780" type="line"/>
      <point x="115" y="780" type="line"/>
      <point x="45" y="243" type="line" smooth="yes"/>
      <point x="22" y="65"/>
      <point x="100" y="-12"/>
    </contour>
  </outline>
</glyph>
<glyph name="Yacute" format="1">
  <advance width="594"/>
  <unicode hex="00DD"/>
  <outline>
    <contour>
      <point x="380" y="950" type="line"/>
      <point x="307" y="840" type="line"/>
      <point x="409" y="840" type="line"/>
      <point x="487" y="950" type="line"/>
    </contour>
    <contour>
      <point x="331" y="237" type="line"/>
      <point x="631" y="780" type="line"/>
      <point x="516" y="780" type="line"/>
      <point x="294" y="366" type="line"/>
      <point x="180" y="780" type="line"/>
      <point x="69" y="780" type="line"/>
      <point x="227" y="237" type="line"/>
      <point x="196" y="0" type="line"/>
      <point x="300" y="0" type="line"/>
    </contour>
  </outline>
</glyph>
<glyph name="Thorn" format="1">
  <advance width="586"/>
  <unicode hex="00DE"/>
  <outline>
    <contour>
      <point x="154" y="243" type="line"/>
      <point x="192" y="536" type="line"/>
      <point x="322" y="536" type="line" smooth="yes"/>
      <point x="390" y="536"/>
      <point x="459" y="510"/>
      <point x="444" y="390" type="curve" smooth="yes"/>
      <point x="443" y="382" type="line" smooth="yes"/>
      <point x="429" y="268"/>
      <point x="347" y="243"/>
      <point x="286" y="243" type="curve" smooth="yes"/>
    </contour>
    <contour>
      <point x="224" y="780" type="line"/>
      <point x="120" y="780" type="line"/>
      <point x="18" y="0" type="line"/>
      <point x="122" y="0" type="line"/>
      <point x="142" y="152" type="line"/>
      <point x="288" y="152" type="line" smooth="yes"/>
      <point x="396" y="152"/>
      <point x="524" y="200"/>
      <point x="548" y="376" type="curve" smooth="yes"/>
      <point x="551" y="398" type="line" smooth="yes"/>
      <point x="576" y="580"/>
      <point x="441" y="628"/>
      <point x="324" y="628" type="curve" smooth="yes"/>
      <point x="204" y="628" type="line"/>
    </contour>
  </outline>
</glyph>
<glyph name="germandbls" format="1">
  <advance width="592"/>
  <unicode hex="00DF"/>
  <outline>
    <contour>
      <point x="268" y="358" type="line"/>
      <point x="342" y="303" type="line" smooth="yes"/>
      <point x="408" y="254"/>
      <point x="440" y="218"/>
      <point x="440" y="169" type="curve" smooth="yes"/>
      <point x="440" y="114"/>
      <point x="415" y="68"/>
      <point x="348" y="68" type="curve" smooth="yes"/>
      <point x="277" y="68"/>
      <point x="268" y="106"/>
      <point x="277" y="164" type="curve"/>
      <point x="185" y="164" type="line"/>
      <point x="184" y="157" type="line" smooth="yes"/>
      <point x="171" y="68"/>
      <point x="196" y="-12"/>
      <point x="345" y="-12" type="curve" smooth="yes"/>
      <point x="480" y="-12"/>
      <point x="528" y="70"/>
      <point x="539" y="155" type="curve" smooth="yes"/>
      <point x="540" y="163" type="line" smooth="yes"/>
      <point x="551" y="249"/>
      <point x="507" y="303"/>
      <point x="418" y="370" type="curve" smooth="yes"/>
      <point x="382" y="397" type="line"/>
      <point x="470" y="448"/>
      <point x="517" y="501"/>
      <point x="529" y="596" type="curve" smooth="yes"/>
      <point x="530" y="604" type="line" smooth="yes"/>
      <point x="544" y="719"/>
      <point x="488" y="812"/>
      <point x="325" y="812" type="curve" smooth="yes"/>
      <point x="180" y="812"/>
      <point x="105" y="725"/>
      <point x="89" y="604" type="curve" smooth="yes"/>
      <point x="10" y="0" type="line"/>
      <point x="110" y="0" type="line"/>
      <point x="188" y="597" type="line" smooth="yes"/>
      <point x="197" y="669"/>
      <point x="240" y="722"/>
      <point x="325" y="722" type="curve" smooth="yes"/>
      <point x="398" y="722"/>
      <point x="431" y="682"/>
      <point x="431" y="621" type="curve" smooth="yes"/>
      <point x="431" y="531"/>
      <point x="386" y="476"/>
      <point x="276" y="422" type="curve"/>
    </contour>
  </outline>
</glyph>
<glyph name="aring" format="1">
  <advance width="525"/>
  <unicode hex="00E5"/>
  <outline>
    <contour>
      <point x="404" y="700" type="curve" smooth="yes"/>
      <point x="404" y="755"/>
      <point x="366" y="792"/>
      <point x="313" y="792" type="curve" smooth="yes"/>
      <point x="257" y="792"/>
      <point x="206" y="747"/>
      <point x="206" y="687" type="curve" smooth="yes"/>
      <point x="206" y="632"/>
      <point x="244" y="595"/>
      <point x="297" y="595" type="curve" smooth="yes"/>
      <point x="353" y="595"/>
      <point x="404" y="640"/>
    </contour>
    <contour>
      <point x="251" y="687" type="curve" smooth="yes"/>
      <point x="251" y="726"/>
      <point x="281" y="748"/>
      <point x="313" y="748" type="curve" smooth="yes"/>
      <point x="341" y="748"/>
      <point x="359" y="729"/>
      <point x="359" y="700" type="curve" smooth="yes"/>
      <point x="359" y="661"/>
      <point x="329" y="639"/>
      <point x="297" y="639" type="curve" smooth="yes"/>
      <point x="269" y="639"/>
      <point x="251" y="658"/>
    </contour>
    <contour>
      <point x="338" y="0" type="line"/>
      <point x="424" y="0" type="line"/>
      <point x="436" y="150" type="line"/>
      <point x="462" y="347" type="line" smooth="yes"/>
      <point x="478" y="467"/>
      <point x="428" y="542"/>
      <point x="270" y="542" type="curve" smooth="yes"/>
      <point x="121" y="542"/>
      <point x="71" y="453"/>
      <point x="58" y="362" type="curve" smooth="yes"/>
      <point x="57" y="355" type="line"/>
      <point x="152" y="355" type="line"/>
      <point x="159" y="412"/>
      <point x="181" y="462"/>
      <point x="270" y="462" type="curve" smooth="yes"/>
      <point x="352" y="462"/>
      <point x="373" y="431"/>
      <point x="363" y="354" type="curve" smooth="yes"/>
      <point x="361" y="339" type="line"/>
      <point x="209" y="315" type="line" smooth="yes"/>
      <point x="103" y="298"/>
      <point x="24" y="265"/>
      <point x="10" y="152" type="curve" smooth="yes"/>
      <point x="9" y="144" type="line" smooth="yes"/>
      <point x="-2" y="60"/>
      <point x="50" y="-12"/>
      <point x="154" y="-12" type="curve" smooth="yes"/>
      <point x="238" y="-12"/>
      <point x="300" y="23"/>
      <point x="338" y="67" type="curve"/>
    </contour>
    <contour>
      <point x="187" y="72" type="curve" smooth="yes"/>
      <point x="130" y="72"/>
      <point x="106" y="114"/>
      <point x="111" y="154" type="curve" smooth="yes"/>
      <point x="112" y="162" type="line" smooth="yes"/>
      <point x="118" y="210"/>
      <point x="150" y="238"/>
      <point x="218" y="249" type="curve" smooth="yes"/>
      <point x="352" y="270" type="line"/>
      <point x="335" y="144" type="line"/>
      <point x="315" y="117"/>
      <point x="269" y="72"/>
    </contour>
  </outline>
</glyph>
<glyph name="ae" format="1">
  <advance width="867"/>
  <unicode hex="00E6"/>
  <outline>
    <contour>
      <point x="809" y="227" type="line"/>
      <point x="815" y="271" type="line" smooth="yes"/>
      <point x="836" y="426"/>
      <point x="774" y="542"/>
      <point x="610" y="542" type="curve" smooth="yes"/>
      <point x="529" y="542"/>
      <point x="473" y="512"/>
      <point x="436" y="462" type="curve"/>
      <point x="417" y="513"/>
      <point x="368" y="542"/>
      <point x="270" y="542" type="curve" smooth="yes"/>
      <point x="121" y="542"/>
      <point x="71" y="453"/>
      <point x="58" y="362" type="curve" smooth="yes"/>
      <point x="57" y="355" type="line"/>
      <point x="152" y="355" type="line"/>
      <point x="159" y="412"/>
      <point x="181" y="462"/>
      <point x="270" y="462" type="curve" smooth="yes"/>
      <point x="352" y="462"/>
      <point x="373" y="431"/>
      <point x="363" y="354" type="curve" smooth="yes"/>
      <point x="361" y="339" type="line"/>
      <point x="209" y="315" type="line" smooth="yes"/>
      <point x="103" y="298"/>
      <point x="24" y="265"/>
      <point x="10" y="152" type="curve" smooth="yes"/>
      <point x="9" y="144" type="line" smooth="yes"/>
      <point x="-2" y="60"/>
      <point x="50" y="-12"/>
      <point x="154" y="-12" type="curve" smooth="yes"/>
      <point x="227" y="-12"/>
      <point x="303" y="8"/>
      <point x="373" y="81" type="curve"/>
      <point x="406" y="24"/>
      <point x="469" y="-12"/>
      <point x="568" y="-12" type="curve" smooth="yes"/>
      <point x="712" y="-12"/>
      <point x="787" y="70"/>
      <point x="800" y="163" type="curve" smooth="yes"/>
      <point x="801" y="170" type="line"/>
      <point x="705" y="170" type="line"/>
      <point x="698" y="117"/>
      <point x="660" y="70"/>
      <point x="570" y="70" type="curve" smooth="yes"/>
      <point x="475" y="70"/>
      <point x="437" y="126"/>
      <point x="446" y="227" type="curve"/>
    </contour>
    <contour>
      <point x="187" y="72" type="curve" smooth="yes"/>
      <point x="130" y="72"/>
      <point x="106" y="114"/>
      <point x="111" y="154" type="curve" smooth="yes"/>
      <point x="112" y="162" type="line" smooth="yes"/>
      <point x="118" y="210"/>
      <point x="150" y="238"/>
      <point x="218" y="249" type="curve" smooth="yes"/>
      <point x="350" y="269" type="line"/>
      <point x="348" y="256" type="line" smooth="yes"/>
      <point x="343" y="222"/>
      <point x="343" y="189"/>
      <point x="347" y="159" type="curve"/>
      <point x="314" y="112"/>
      <point x="266" y="72"/>
    </contour>
    <contour>
      <point x="608" y="460" type="curve" smooth="yes"/>
      <point x="696" y="460"/>
      <point x="730" y="403"/>
      <point x="718" y="303" type="curve"/>
      <point x="456" y="303" type="line"/>
      <point x="469" y="400"/>
      <point x="527" y="460"/>
    </contour>
  </outline>
</glyph>
<glyph name="ccedilla" format="1">
  <advance width="523"/>
  <unicode hex="00E7"/>
  <outline>
    <contour>
      <point x="130" y="278" type="line" smooth="yes"/>
      <point x="145" y="387"/>
      <point x="200" y="454"/>
      <point x="288" y="454" type="curve" smooth="yes"/>
      <point x="371" y="454"/>
      <point x="388" y="400"/>
      <point x="382" y="332" type="curve"/>
      <point x="476" y="332" type="line"/>
      <point x="477" y="339" type="line" smooth="yes"/>
      <point x="492" y="444"/>
      <point x="449" y="542"/>
      <point x="290" y="542" type="curve" smooth="yes"/>
      <point x="133" y="542"/>
      <point x="50" y="429"/>
      <point x="29" y="278" type="curve" smooth="yes"/>
      <point x="26" y="256" type="line" smooth="yes"/>
      <point x="7" y="117"/>
      <point x="57" y="5"/>
      <point x="194" y="-10" type="curve"/>
      <point x="159" y="-77" type="line"/>
      <point x="173" y="-102" type="line"/>
      <point x="173" y="-102"/>
      <point x="189" y="-99"/>
      <point x="205" y="-99" type="curve" smooth="yes"/>
      <point x="239" y="-99"/>
      <point x="259" y="-106"/>
      <point x="259" y="-125" type="curve" smooth="yes"/>
      <point x="259" y="-147"/>
      <point x="240" y="-155"/>
      <point x="207" y="-155" type="curve" smooth="yes"/>
      <point x="176" y="-155"/>
      <point x="149" y="-147"/>
      <point x="133" y="-136" type="curve"/>
      <point x="108" y="-188" type="line"/>
      <point x="126" y="-201"/>
      <point x="161" y="-213"/>
      <point x="207" y="-213" type="curve" smooth="yes"/>
      <point x="273" y="-213"/>
      <point x="323" y="-184"/>
      <point x="323" y="-125" type="curve" smooth="yes"/>
      <point x="323" y="-72"/>
      <point x="280" y="-51"/>
      <point x="231" y="-50" type="curve"/>
      <point x="251" y="-11" type="line"/>
      <point x="383" y="-3"/>
      <point x="442" y="81"/>
      <point x="456" y="181" type="curve" smooth="yes"/>
      <point x="457" y="188" type="line"/>
      <point x="362" y="188" type="line"/>
      <point x="355" y="130"/>
      <point x="311" y="76"/>
      <point x="230" y="76" type="curve" smooth="yes"/>
      <point x="138" y="76"/>
      <point x="112" y="146"/>
      <point x="127" y="256" type="curve" smooth="yes"/>
    </contour>
  </outline>
</glyph>
<glyph name="eacute" format="1">
  <advance width="548"/>
  <unicode hex="00E9"/>
  <outline>
    <contour>
      <point x="369" y="780" type="line"/>
      <point x="255" y="607" type="line"/>
      <point x="357" y="607" type="line"/>
      <point x="479" y="780" type="line"/>
    </contour>
    <contour>
      <point x="487" y="227" type="line"/>
      <point x="493" y="271" type="line" smooth="yes"/>
      <point x="514" y="426"/>
      <point x="452" y="542"/>
      <point x="288" y="542" type="curve" smooth="yes"/>
      <point x="131" y="542"/>
      <point x="50" y="429"/>
      <point x="29" y="278" type="curve" smooth="yes"/>
      <point x="26" y="256" type="line" smooth="yes"/>
      <point x="6" y="108"/>
      <point x="67" y="-12"/>
      <point x="246" y="-12" type="curve" smooth="yes"/>
      <point x="390" y="-12"/>
      <point x="465" y="70"/>
      <point x="478" y="163" type="curve" smooth="yes"/>
      <point x="479" y="170" type="line"/>
      <point x="383" y="170" type="line"/>
      <point x="376" y="117"/>
      <point x="338" y="70"/>
      <point x="248" y="70" type="curve" smooth="yes"/>
      <point x="153" y="70"/>
      <point x="115" y="126"/>
      <point x="124" y="227" type="curve"/>
    </contour>
    <contour>
      <point x="286" y="460" type="curve" smooth="yes"/>
      <point x="374" y="460"/>
      <point x="408" y="403"/>
      <point x="396" y="303" type="curve"/>
      <point x="134" y="303" type="line"/>
      <point x="147" y="400"/>
      <point x="205" y="460"/>
    </contour>
  </outline>
</glyph>
<glyph name="igrave" format="1">
  <advance width="234"/>
  <unicode hex="00EC"/>
  <outline>
    <contour>
      <point x="20" y="780" type="line"/>
      <point x="96" y="607" type="line"/>
      <point x="198" y="607" type="line"/>
      <point x="130" y="780" type="line"/>
    </contour>
    <contour>
      <point x="18" y="0" type="line"/>
      <point x="118" y="0" type="line"/>
      <point x="187" y="530" type="line"/>
      <point x="87" y="530" type="line"/>
    </contour>
  </outline>
</glyph>
<glyph name="icircumflex" format="1">
  <advance width="234"/>
  <unicode hex="00EE"/>
  <outline>
    <contour>
      <point x="64" y="607" type="line"/>
      <point x="163" y="708" type="line"/>
      <point x="234" y="607" type="line"/>
      <point x="326" y="607" type="line"/>
      <point x="217" y="780" type="line"/>
      <point x="123" y="780" type="line"/>
      <point x="-32" y="607" type="line"/>
    </contour>
    <contour>
      <point x="18" y="0" type="line"/>
      <point x="118" y="0" type="line"/>
      <point x="187" y="530" type="line"/>
      <point x="87" y="530" type="line"/>
    </contour>
  </outline>
</glyph>
<glyph name="idieresis" format="1">
  <advance width="234"/>
  <unicode hex="00EF"/>
  <outline>
    <contour>
      <point x="132" y="754" type="line"/>
      <point x="18" y="754" type="line"/>
      <point x="3" y="640" type="line"/>
      <point x="117" y="640" type="line"/>
    </contour>
    <contour>
      <point x="315" y="754" type="line"/>
      <point x="201" y="754" type="line"/>
      <point x="186" y="640" type="line"/>
      <point x="300" y="640" type="line"/>
    </contour>
    <contour>
      <point x="18" y="0" type="line"/>
      <point x="118" y="0" type="line"/>
      <point x="187" y="530" type="line"/>
      <point x="87" y="530" type="line"/>
    </contour>
  </outline>
</glyph>
<glyph name="eth" format="1">
  <advance width="548"/>
  <unicode hex="00F0"/>
  <outline>
    <contour>
      <point x="87" y="721" type="line"/>
      <point x="139" y="715"/>
      <point x="187" y="706"/>
      <point x="230" y="688" type="curve"/>
      <point x="109" y="624" type="line"/>
      <point x="101" y="557" type="line"/>
      <point x="287" y="655" type="line"/>
      <point x="305" y="643"/>
      <point x="325" y="627"/>
      <point x="345" y="601" type="curve" smooth="yes"/>
      <point x="364" y="576"/>
      <point x="378" y="546"/>
      <point x="388" y="513" type="curve"/>
      <point x="365" y="531"/>
      <point x="337" y="542"/>
      <point x="286" y="542" type="curve" smooth="yes"/>
      <point x="129" y="542"/>
      <point x="50" y="429"/>
      <point x="29" y="278" type="curve" smooth="yes"/>
      <point x="26" y="256" type="line" smooth="yes"/>
      <point x="6" y="106"/>
      <point x="71" y="-12"/>
      <point x="234" y="-12" type="curve" smooth="yes"/>
      <point x="391" y="-12"/>
      <point x="470" y="101"/>
      <point x="491" y="252" type="curve" smooth="yes"/>
      <point x="494" y="274" type="line" smooth="yes"/>
      <point x="511" y="397"/>
      <point x="506" y="557"/>
      <point x="431" y="659" type="curve" smooth="yes"/>
      <point x="418" y="677"/>
      <point x="404" y="693"/>
      <point x="388" y="708" type="curve"/>
      <point x="458" y="745" type="line"/>
      <point x="466" y="812" type="line"/>
      <point x="339" y="745" type="line"/>
      <point x="271" y="787"/>
      <point x="188" y="805"/>
      <point x="99" y="812" type="curve"/>
    </contour>
    <contour>
      <point x="236" y="76" type="curve" smooth="yes"/>
      <point x="144" y="76"/>
      <point x="112" y="146"/>
      <point x="127" y="256" type="curve" smooth="yes"/>
      <point x="130" y="278" type="line" smooth="yes"/>
      <point x="145" y="387"/>
      <point x="196" y="454"/>
      <point x="284" y="454" type="curve" smooth="yes"/>
      <point x="374" y="454"/>
      <point x="408" y="384"/>
      <point x="393" y="274" type="curve" smooth="yes"/>
      <point x="390" y="252" type="line" smooth="yes"/>
      <point x="375" y="143"/>
      <point x="324" y="76"/>
    </contour>
  </outline>
</glyph>
<glyph name="ntilde" format="1">
  <advance width="545"/>
  <unicode hex="00F1"/>
  <outline>
    <contour>
      <point x="427" y="755" type="line"/>
      <point x="423" y="723"/>
      <point x="405" y="714"/>
      <point x="386" y="714" type="curve" smooth="yes"/>
      <point x="345" y="714"/>
      <point x="313" y="768"/>
      <point x="247" y="768" type="curve" smooth="yes"/>
      <point x="189" y="768"/>
      <point x="143" y="726"/>
      <point x="139" y="645" type="curve"/>
      <point x="210" y="645" type="line"/>
      <point x="214" y="677"/>
      <point x="232" y="686"/>
      <point x="251" y="686" type="curve" smooth="yes"/>
      <point x="292" y="686"/>
      <point x="324" y="632"/>
      <point x="390" y="632" type="curve" smooth="yes"/>
      <point x="448" y="632"/>
      <point x="494" y="674"/>
      <point x="498" y="755" type="curve"/>
    </contour>
    <contour>
      <point x="440" y="0" type="line"/>
      <point x="488" y="365" type="line" smooth="yes"/>
      <point x="500" y="459"/>
      <point x="454" y="542"/>
      <point x="340" y="542" type="curve" smooth="yes"/>
      <point x="259" y="542"/>
      <point x="200" y="508"/>
      <point x="161" y="459" type="curve"/>
      <point x="161" y="530" type="line"/>
      <point x="75" y="530" type="line"/>
      <point x="63" y="380" type="line"/>
      <point x="13" y="0" type="line"/>
      <point x="113" y="0" type="line"/>
      <point x="163" y="381" type="line"/>
      <point x="185" y="410"/>
      <point x="230" y="454"/>
      <point x="298" y="454" type="curve" smooth="yes"/>
      <point x="367" y="454"/>
      <point x="394" y="412"/>
      <point x="386" y="350" type="curve" smooth="yes"/>
      <point x="340" y="0" type="line"/>
    </contour>
  </outline>
</glyph>
<glyph name="ograve" format="1">
  <advance width="548"/>
  <unicode hex="00F2"/>
  <outline>
    <contour>
      <point x="177" y="780" type="line"/>
      <point x="253" y="607" type="line"/>
      <point x="355" y="607" type="line"/>
      <point x="287" y="780" type="line"/>
    </contour>
    <contour>
      <point x="236" y="76" type="curve" smooth="yes"/>
      <point x="144" y="76"/>
      <point x="112" y="146"/>
      <point x="127" y="256" type="curve" smooth="yes"/>
      <point x="130" y="278" type="line" smooth="yes"/>
      <point x="145" y="387"/>
      <point x="196" y="454"/>
      <point x="284" y="454" type="curve" smooth="yes"/>
      <point x="376" y="454"/>
      <point x="408" y="384"/>
      <point x="393" y="274" type="curve" smooth="yes"/>
      <point x="390" y="252" type="line" smooth="yes"/>
      <point x="375" y="143"/>
      <point x="324" y="76"/>
    </contour>
    <contour>
      <point x="286" y="542" type="curve" smooth="yes"/>
      <point x="129" y="542"/>
      <point x="50" y="429"/>
      <point x="29" y="278" type="curve" smooth="yes"/>
      <point x="26" y="256" type="line" smooth="yes"/>
      <point x="6" y="106"/>
      <point x="71" y="-12"/>
      <point x="234" y="-12" type="curve" smooth="yes"/>
      <point x="391" y="-12"/>
      <point x="470" y="101"/>
      <point x="491" y="252" type="curve" smooth="yes"/>
      <point x="494" y="274" type="line" smooth="yes"/>
      <point x="514" y="424"/>
      <point x="449" y="542"/>
    </contour>
  </outline>
</glyph>
<glyph name="otilde" format="1">
  <advance width="548"/>
  <unicode hex="00F5"/>
  <outline>
    <contour>
      <point x="425" y="755" type="line"/>
      <point x="421" y="723"/>
      <point x="403" y="714"/>
      <point x="384" y="714" type="curve" smooth="yes"/>
      <point x="343" y="714"/>
      <point x="311" y="768"/>
      <point x="245" y="768" type="curve" smooth="yes"/>
      <point x="187" y="768"/>
      <point x="141" y="726"/>
      <point x="137" y="645" type="curve"/>
      <point x="208" y="645" type="line"/>
      <point x="212" y="677"/>
      <point x="230" y="686"/>
      <point x="249" y="686" type="curve" smooth="yes"/>
      <point x="290" y="686"/>
      <point x="322" y="632"/>
      <point x="388" y="632" type="curve" smooth="yes"/>
      <point x="446" y="632"/>
      <point x="492" y="674"/>
      <point x="496" y="755" type="curve"/>
    </contour>
    <contour>
      <point x="236" y="76" type="curve" smooth="yes"/>
      <point x="144" y="76"/>
      <point x="112" y="146"/>
      <point x="127" y="256" type="curve" smooth="yes"/>
      <point x="130" y="278" type="line" smooth="yes"/>
      <point x="145" y="387"/>
      <point x="196" y="454"/>
      <point x="284" y="454" type="curve" smooth="yes"/>
      <point x="376" y="454"/>
      <point x="408" y="384"/>
      <point x="393" y="274" type="curve" smooth="yes"/>
      <point x="390" y="252" type="line" smooth="yes"/>
      <point x="375" y="143"/>
      <point x="324" y="76"/>
    </contour>
    <contour>
      <point x="286" y="542" type="curve" smooth="yes"/>
      <point x="129" y="542"/>
      <point x="50" y="429"/>
      <point x="29" y="278" type="curve" smooth="yes"/>
      <point x="26" y="256" type="line" smooth="yes"/>
      <point x="6" y="106"/>
      <point x="71" y="-12"/>
      <point x="234" y="-12" type="curve" smooth="yes"/>
      <point x="391" y="-12"/>
      <point x="470" y="101"/>
      <point x="491" y="252" type="curve" smooth="yes"/>
      <point x="494" y="274" type="line" smooth="yes"/>
      <point x="514" y="424"/>
      <point x="449" y="542"/>
    </contour>
  </outline>
</glyph>
<glyph name="divide" format="1">
  <advance width="600"/>
  <unicode hex="00F7"/>
  <outline>
    <contour>
      <point x="41" y="344" type="line"/>
      <point x="549" y="344" type="line"/>
      <point x="561" y="436" type="line"/>
      <point x="53" y="436" type="line"/>
    </contour>
    <contour>
      <point x="394" y="660" type="line"/>
      <point x="280" y="660" type="line"/>
      <point x="265" y="546" type="line"/>
      <point x="379" y="546" type="line"/>
    </contour>
    <contour>
      <point x="208" y="120" type="line"/>
      <point x="322" y="120" type="line"/>
      <point x="337" y="234" type="line"/>
      <point x="223" y="234" type="line"/>
    </contour>
  </outline>
</glyph>
<glyph name="oslash" format="1">
  <advance width="548"/>
  <unicode hex="00F8"/>
  <outline>
    <contour>
      <point x="66" y="0" type="line"/>
      <point x="94" y="32" type="line"/>
      <point x="128" y="4"/>
      <point x="174" y="-12"/>
      <point x="234" y="-12" type="curve" smooth="yes"/>
      <point x="391" y="-12"/>
      <point x="470" y="101"/>
      <point x="491" y="252" type="curve" smooth="yes"/>
      <point x="494" y="274" type="line" smooth="yes"/>
      <point x="504" y="345"/>
      <point x="493" y="409"/>
      <point x="463" y="457" type="curve"/>
      <point x="527" y="530" type="line"/>
      <point x="454" y="530" type="line"/>
      <point x="426" y="498" type="line"/>
      <point x="392" y="526"/>
      <point x="346" y="542"/>
      <point x="286" y="542" type="curve" smooth="yes"/>
      <point x="129" y="542"/>
      <point x="50" y="429"/>
      <point x="29" y="278" type="curve" smooth="yes"/>
      <point x="26" y="256" type="line" smooth="yes"/>
      <point x="16" y="185"/>
      <point x="27" y="121"/>
      <point x="57" y="73" type="curve"/>
      <point x="-7" y="0" type="line"/>
    </contour>
    <contour>
      <point x="130" y="278" type="line" smooth="yes"/>
      <point x="145" y="387"/>
      <point x="196" y="454"/>
      <point x="284" y="454" type="curve" smooth="yes"/>
      <point x="319" y="454"/>
      <point x="345" y="444"/>
      <point x="363" y="425" type="curve"/>
      <point x="129" y="157" type="line"/>
      <point x="122" y="184"/>
      <point x="122" y="218"/>
      <point x="127" y="256" type="curve" smooth="yes"/>
    </contour>
    <contour>
      <point x="236" y="76" type="curve" smooth="yes"/>
      <point x="201" y="76"/>
      <point x="175" y="86"/>
      <point x="157" y="105" type="curve"/>
      <point x="391" y="373" type="line"/>
      <point x="398" y="346"/>
      <point x="398" y="312"/>
      <point x="393" y="274" type="curve" smooth="yes"/>
      <point x="390" y="252" type="line" smooth="yes"/>
      <point x="375" y="143"/>
      <point x="324" y="76"/>
    </contour>
  </outline>
</glyph>
<glyph name="ucircumflex" format="1">
  <advance width="545"/>
  <unicode hex="00FB"/>
  <outline>
    <contour>
      <point x="217" y="607" type="line"/>
      <point x="316" y="708" type="line"/>
      <point x="387" y="607" type="line"/>
      <point x="479" y="607" type="line"/>
      <point x="370" y="780" type="line"/>
      <point x="276" y="780" type="line"/>
      <point x="121" y="607" type="line"/>
    </contour>
    <contour>
      <point x="76" y="530" type="line"/>
      <point x="28" y="165" type="line" smooth="yes"/>
      <point x="16" y="71"/>
      <point x="62" y="-12"/>
      <point x="176" y="-12" type="curve" smooth="yes"/>
      <point x="257" y="-12"/>
      <point x="316" y="22"/>
      <point x="355" y="71" type="curve"/>
      <point x="355" y="0" type="line"/>
      <point x="441" y="0" type="line"/>
      <point x="453" y="150" type="line"/>
      <point x="503" y="530" type="line"/>
      <point x="403" y="530" type="line"/>
      <point x="353" y="149" type="line"/>
      <point x="331" y="120"/>
      <point x="286" y="76"/>
      <point x="218" y="76" type="curve" smooth="yes"/>
      <point x="149" y="76"/>
      <point x="122" y="118"/>
      <point x="130" y="180" type="curve" smooth="yes"/>
      <point x="176" y="530" type="line"/>
    </contour>
  </outline>
</glyph>
<glyph name="udieresis" format="1">
  <advance width="545"/>
  <unicode hex="00FC"/>
  <outline>
    <contour>
      <point x="285" y="754" type="line"/>
      <point x="171" y="754" type="line"/>
      <point x="156" y="640" type="line"/>
      <point x="270" y="640" type="line"/>
    </contour>
    <contour>
      <point x="468" y="754" type="line"/>
      <point x="354" y="754" type="line"/>
      <point x="339" y="640" type="line"/>
      <point x="453" y="640" type="line"/>
    </contour>
    <contour>
      <point x="76" y="530" type="line"/>
      <point x="28" y="165" type="line" smooth="yes"/>
      <point x="16" y="71"/>
      <point x="62" y="-12"/>
      <point x="176" y="-12" type="curve" smooth="yes"/>
      <point x="257" y="-12"/>
      <point x="316" y="22"/>
      <point x="355" y="71" type="curve"/>
      <point x="355" y="0" type="line"/>
      <point x="441" y="0" type="line"/>
      <point x="453" y="150" type="line"/>
      <point x="503" y="530" type="line"/>
      <point x="403" y="530" type="line"/>
      <point x="353" y="149" type="line"/>
      <point x="331" y="120"/>
      <point x="286" y="76"/>
      <point x="218" y="76" type="curve" smooth="yes"/>
      <point x="149" y="76"/>
      <point x="122" y="118"/>
      <point x="130" y="180" type="curve" smooth="yes"/>
      <point x="176" y="530" type="line"/>
    </contour>
  </outline>
</glyph>
<glyph name="yacute" format="1">
  <advance width="507"/>
  <unicode hex="00FD"/>
  <outline>
    <contour>
      <point x="352" y="780" type="line"/>
      <point x="238" y="607" type="line"/>
      <point x="340" y="607" type="line"/>
      <point x="462" y="780" type="line"/>
    </contour>
    <contour>
      <point x="227" y="128" type="line"/>
      <point x="144" y="530" type="line"/>
      <point x="37" y="530" type="line"/>
      <point x="159" y="15" type="line"/>
      <point x="50" y="-200" type="line"/>
      <point x="165" y="-200" type="line"/>
      <point x="268" y="23" type="line"/>
      <point x="521" y="530" type="line"/>
      <point x="412" y="530" type="line"/>
    </contour>
  </outline>
</glyph>
<glyph name="thorn" format="1">
  <advance width="550"/>
  <unicode hex="00FE"/>
  <outline>
    <contour>
      <point x="117" y="800" type="line"/>
      <point x="-15" y="-200" type="line"/>
      <point x="85" y="-200" type="line"/>
      <point x="120" y="58" type="line"/>
      <point x="139" y="21"/>
      <point x="184" y="-12"/>
      <point x="253" y="-12" type="curve" smooth="yes"/>
      <point x="394" y="-12"/>
      <point x="469" y="85"/>
      <point x="492" y="252" type="curve" smooth="yes"/>
      <point x="495" y="274" type="line" smooth="yes"/>
      <point x="515" y="423"/>
      <point x="472" y="542"/>
      <point x="318" y="542" type="curve" smooth="yes"/>
      <point x="249" y="542"/>
      <point x="200" y="507"/>
      <point x="175" y="480" type="curve"/>
      <point x="217" y="800" type="line"/>
    </contour>
    <contour>
      <point x="162" y="381" type="line"/>
      <point x="185" y="415"/>
      <point x="227" y="454"/>
      <point x="298" y="454" type="curve" smooth="yes"/>
      <point x="382" y="454"/>
      <point x="409" y="382"/>
      <point x="394" y="274" type="curve" smooth="yes"/>
      <point x="391" y="252" type="line" smooth="yes"/>
      <point x="376" y="143"/>
      <point x="325" y="76"/>
      <point x="249" y="76" type="curve" smooth="yes"/>
      <point x="180" y="76"/>
      <point x="146" y="121"/>
      <point x="132" y="150" type="curve"/>
    </contour>
  </outline>
</glyph>
<glyph name="Amacron" format="1">
  <advance width="621"/>
  <unicode hex="0100"/>
  <outline>
    <contour>
      <point x="249" y="860" type="line"/>
      <point x="503" y="860" type="line"/>
      <point x="512" y="930" type="line"/>
      <point x="258" y="930" type="line"/>
    </contour>
    <contour>
      <point x="292" y="786" type="line"/>
      <point x="-26" y="0" type="line"/>
      <point x="89" y="0" type="line"/>
      <point x="162" y="188" type="line"/>
      <point x="414" y="188" type="line"/>
      <point x="439" y="0" type="line"/>
      <point x="549" y="0" type="line"/>
      <point x="437" y="786" type="line"/>
    </contour>
    <contour>
      <point x="352" y="669" type="line"/>
      <point x="402" y="280" type="line"/>
      <point x="198" y="280" type="line"/>
    </contour>
  </outline>
</glyph>
<glyph name="Abreve" format="1">
  <advance width="621"/>
  <unicode hex="0102"/>
  <outline>
    <contour>
      <point x="374" y="827" type="curve" smooth="yes"/>
      <point x="487" y="827"/>
      <point x="536" y="881"/>
      <point x="546" y="950" type="curve"/>
      <point x="469" y="950" type="line"/>
      <point x="464" y="909"/>
      <point x="437" y="890"/>
      <point x="376" y="890" type="curve" smooth="yes"/>
      <point x="317" y="890"/>
      <point x="296" y="913"/>
      <point x="301" y="950" type="curve"/>
      <point x="228" y="950" type="line"/>
      <point x="218" y="881"/>
      <point x="254" y="827"/>
    </contour>
    <contour>
      <point x="292" y="786" type="line"/>
      <point x="-26" y="0" type="line"/>
      <point x="89" y="0" type="line"/>
      <point x="162" y="188" type="line"/>
      <point x="414" y="188" type="line"/>
      <point x="439" y="0" type="line"/>
      <point x="549" y="0" type="line"/>
      <point x="437" y="786" type="line"/>
    </contour>
    <contour>
      <point x="352" y="669" type="line"/>
      <point x="402" y="280" type="line"/>
      <point x="198" y="280" type="line"/>
    </contour>
  </outline>
</glyph>
<glyph name="abreve" format="1">
  <advance width="525"/>
  <unicode hex="0103"/>
  <outline>
    <contour>
      <point x="298" y="595" type="curve" smooth="yes"/>
      <point x="421" y="595"/>
      <point x="473" y="667"/>
      <point x="486" y="780" type="curve"/>
      <point x="407" y="780" type="line"/>
      <point x="400" y="711"/>
      <point x="365" y="675"/>
      <point x="298" y="675" type="curve" smooth="yes"/>
      <point x="237" y="675"/>
      <point x="212" y="714"/>
      <point x="221" y="780" type="curve"/>
      <point x="146" y="780" type="line"/>
      <point x="130" y="673"/>
      <point x="175" y="595"/>
    </contour>
    <contour>
      <point x="338" y="0" type="line"/>
      <point x="424" y="0" type="line"/>
      <point x="436" y="150" type="line"/>
      <point x="462" y="347" type="line" smooth="yes"/>
      <point x="478" y="467"/>
      <point x="428" y="542"/>
      <point x="270" y="542" type="curve" smooth="yes"/>
      <point x="121" y="542"/>
      <point x="71" y="453"/>
      <point x="58" y="362" type="curve" smooth="yes"/>
      <point x="57" y="355" type="line"/>
      <point x="152" y="355" type="line"/>
      <point x="159" y="412"/>
      <point x="181" y="462"/>
      <point x="270" y="462" type="curve" smooth="yes"/>
      <point x="352" y="462"/>
      <point x="373" y="431"/>
      <point x="363" y="354" type="curve" smooth="yes"/>
      <point x="361" y="339" type="line"/>
      <point x="209" y="315" type="line" smooth="yes"/>
      <point x="103" y="298"/>
      <point x="24" y="265"/>
      <point x="10" y="152" type="curve" smooth="yes"/>
      <point x="9" y="144" type="line" smooth="yes"/>
      <point x="-2" y="60"/>
      <point x="50" y="-12"/>
      <point x="154" y="-12" type="curve" smooth="yes"/>
      <point x="238" y="-12"/>
      <point x="300" y="23"/>
      <point x="338" y="67" type="curve"/>
    </contour>
    <contour>
      <point x="187" y="72" type="curve" smooth="yes"/>
      <point x="130" y="72"/>
      <point x="106" y="114"/>
      <point x="111" y="154" type="curve" smooth="yes"/>
      <point x="112" y="162" type="line" smooth="yes"/>
      <point x="118" y="210"/>
      <point x="150" y="238"/>
      <point x="218" y="249" type="curve" smooth="yes"/>
      <point x="352" y="270" type="line"/>
      <point x="335" y="144" type="line"/>
      <point x="315" y="117"/>
      <point x="269" y="72"/>
    </contour>
  </outline>
</glyph>
<glyph name="Aogonek" format="1">
  <advance width="621"/>
  <unicode hex="0104"/>
  <outline>
    <contour>
      <point x="292" y="786" type="line"/>
      <point x="-26" y="0" type="line"/>
      <point x="89" y="0" type="line"/>
      <point x="162" y="188" type="line"/>
      <point x="414" y="188" type="line"/>
      <point x="438" y="4" type="line"/>
      <point x="402" y="-24"/>
      <point x="377" y="-63"/>
      <point x="377" y="-115" type="curve" smooth="yes"/>
      <point x="377" y="-176"/>
      <point x="415" y="-213"/>
      <point x="487" y="-213" type="curve" smooth="yes"/>
      <point x="521" y="-213"/>
      <point x="557" y="-204"/>
      <point x="579" y="-191" type="curve"/>
      <point x="563" y="-123" type="line"/>
      <point x="550" y="-130"/>
      <point x="529" y="-136"/>
      <point x="502" y="-136" type="curve" smooth="yes"/>
      <point x="476" y="-136"/>
      <point x="461" y="-117"/>
      <point x="461" y="-95" type="curve" smooth="yes"/>
      <point x="461" y="-44"/>
      <point x="510" y="-16"/>
      <point x="549" y="0" type="curve"/>
      <point x="437" y="786" type="line"/>
    </contour>
    <contour>
      <point x="352" y="669" type="line"/>
      <point x="402" y="280" type="line"/>
      <point x="198" y="280" type="line"/>
    </contour>
  </outline>
</glyph>
<glyph name="aogonek" format="1">
  <advance width="525"/>
  <unicode hex="0105"/>
  <outline>
    <contour>
      <point x="424" y="0" type="curve"/>
      <point x="436" y="150" type="line"/>
      <point x="462" y="347" type="line" smooth="yes"/>
      <point x="478" y="467"/>
      <point x="428" y="542"/>
      <point x="270" y="542" type="curve" smooth="yes"/>
      <point x="121" y="542"/>
      <point x="71" y="453"/>
      <point x="58" y="362" type="curve" smooth="yes"/>
      <point x="57" y="355" type="line"/>
      <point x="152" y="355" type="line"/>
      <point x="159" y="412"/>
      <point x="181" y="462"/>
      <point x="270" y="462" type="curve" smooth="yes"/>
      <point x="352" y="462"/>
      <point x="373" y="431"/>
      <point x="363" y="354" type="curve" smooth="yes"/>
      <point x="361" y="339" type="line"/>
      <point x="209" y="315" type="line" smooth="yes"/>
      <point x="103" y="298"/>
      <point x="24" y="265"/>
      <point x="10" y="152" type="curve" smooth="yes"/>
      <point x="9" y="144" type="line" smooth="yes"/>
      <point x="-2" y="60"/>
      <point x="50" y="-12"/>
      <point x="154" y="-12" type="curve" smooth="yes"/>
      <point x="238" y="-12"/>
      <point x="300" y="23"/>
      <point x="338" y="67" type="curve"/>
      <point x="338" y="21" type="line"/>
      <point x="290" y="-8"/>
      <point x="252" y="-52"/>
      <point x="252" y="-115" type="curve" smooth="yes"/>
      <point x="252" y="-176"/>
      <point x="290" y="-213"/>
      <point x="362" y="-213" type="curve" smooth="yes"/>
      <point x="396" y="-213"/>
      <point x="432" y="-204"/>
      <point x="454" y="-191" type="curve"/>
      <point x="438" y="-123" type="line"/>
      <point x="425" y="-130"/>
      <point x="404" y="-136"/>
      <point x="377" y="-136" type="curve" smooth="yes"/>
      <point x="351" y="-136"/>
      <point x="336" y="-117"/>
      <point x="336" y="-95" type="curve" smooth="yes"/>
      <point x="336" y="-44"/>
      <point x="385" y="-16"/>
    </contour>
    <contour>
      <point x="187" y="72" type="curve" smooth="yes"/>
      <point x="130" y="72"/>
      <point x="106" y="114"/>
      <point x="111" y="154" type="curve" smooth="yes"/>
      <point x="112" y="162" type="line" smooth="yes"/>
      <point x="118" y="210"/>
      <point x="150" y="238"/>
      <point x="218" y="249" type="curve" smooth="yes"/>
      <point x="352" y="270" type="line"/>
      <point x="335" y="144" type="line"/>
      <point x="315" y="117"/>
      <point x="269" y="72"/>
    </contour>
  </outline>
</glyph>
<glyph name="ccircumflex" format="1">
  <advance width="523"/>
  <unicode hex="0109"/>
  <outline>
    <contour>
      <point x="216" y="607" type="line"/>
      <point x="315" y="708" type="line"/>
      <point x="386" y="607" type="line"/>
      <point x="478" y="607" type="line"/>
      <point x="369" y="780" type="line"/>
      <point x="275" y="780" type="line"/>
      <point x="120" y="607" type="line"/>
    </contour>
    <contour>
      <point x="130" y="278" type="line" smooth="yes"/>
      <point x="145" y="387"/>
      <point x="200" y="454"/>
      <point x="288" y="454" type="curve" smooth="yes"/>
      <point x="371" y="454"/>
      <point x="388" y="400"/>
      <point x="382" y="332" type="curve"/>
      <point x="476" y="332" type="line"/>
      <point x="477" y="339" type="line" smooth="yes"/>
      <point x="492" y="444"/>
      <point x="449" y="542"/>
      <point x="290" y="542" type="curve" smooth="yes"/>
      <point x="133" y="542"/>
      <point x="50" y="429"/>
      <point x="29" y="278" type="curve" smooth="yes"/>
      <point x="26" y="256" type="line" smooth="yes"/>
      <point x="6" y="106"/>
      <point x="65" y="-12"/>
      <point x="228" y="-12" type="curve" smooth="yes"/>
      <point x="377" y="-12"/>
      <point x="441" y="76"/>
      <point x="456" y="181" type="curve" smooth="yes"/>
      <point x="457" y="188" type="line"/>
      <point x="362" y="188" type="line"/>
      <point x="355" y="130"/>
      <point x="311" y="76"/>
      <point x="230" y="76" type="curve" smooth="yes"/>
      <point x="138" y="76"/>
      <point x="112" y="146"/>
      <point x="127" y="256" type="curve" smooth="yes"/>
    </contour>
  </outline>
</glyph>
<glyph name="Dcaron" format="1">
  <advance width="647"/>
  <unicode hex="010E"/>
  <outline>
    <contour>
      <point x="214" y="950" type="line"/>
      <point x="312" y="840" type="line"/>
      <point x="410" y="840" type="line"/>
      <point x="538" y="950" type="line"/>
      <point x="440" y="950" type="line"/>
      <point x="365" y="891" type="line"/>
      <point x="308" y="950" type="line"/>
    </contour>
    <contour>
      <point x="601" y="413" type="line" smooth="yes"/>
      <point x="635" y="675"/>
      <point x="522" y="780"/>
      <point x="330" y="780" type="curve" smooth="yes"/>
      <point x="120" y="780" type="line"/>
      <point x="18" y="0" type="line"/>
      <point x="240" y="0" type="line" smooth="yes"/>
      <point x="441" y="0"/>
      <point x="560" y="97"/>
      <point x="595" y="367" type="curve" smooth="yes"/>
    </contour>
    <contour>
      <point x="134" y="92" type="line"/>
      <point x="212" y="688" type="line"/>
      <point x="318" y="688" type="line" smooth="yes"/>
      <point x="462" y="688"/>
      <point x="520" y="606"/>
      <point x="495" y="413" type="curve" smooth="yes"/>
      <point x="489" y="367" type="line" smooth="yes"/>
      <point x="463" y="171"/>
      <point x="384" y="92"/>
      <point x="240" y="92" type="curve" smooth="yes"/>
    </contour>
  </outline>
</glyph>
<glyph name="Dcroat" format="1">
  <advance width="707"/>
  <unicode hex="0110"/>
  <outline>
    <contour>
      <point x="27" y="444" type="line"/>
      <point x="15" y="352" type="line"/>
      <point x="124" y="352" type="line"/>
      <point x="78" y="0" type="line"/>
      <point x="300" y="0" type="line" smooth="yes"/>
      <point x="501" y="0"/>
      <point x="620" y="97"/>
      <point x="655" y="367" type="curve" smooth="yes"/>
      <point x="661" y="413" type="line" smooth="yes"/>
      <point x="695" y="675"/>
      <point x="582" y="780"/>
      <point x="390" y="780" type="curve" smooth="yes"/>
      <point x="180" y="780" type="line"/>
      <point x="136" y="444" type="line"/>
    </contour>
    <contour>
      <point x="194" y="92" type="line"/>
      <point x="228" y="352" type="line"/>
      <point x="422" y="352" type="line"/>
      <point x="434" y="444" type="line"/>
      <point x="240" y="444" type="line"/>
      <point x="272" y="688" type="line"/>
      <point x="378" y="688" type="line" smooth="yes"/>
      <point x="522" y="688"/>
      <point x="580" y="606"/>
      <point x="555" y="413" type="curve" smooth="yes"/>
      <point x="549" y="367" type="line" smooth="yes"/>
      <point x="523" y="171"/>
      <point x="444" y="92"/>
      <point x="300" y="92" type="curve" smooth="yes"/>
    </contour>
  </outline>
</glyph>
<glyph name="Emacron" format="1">
  <advance width="557"/>
  <unicode hex="0112"/>
  <outline>
    <contour>
      <point x="236" y="860" type="line"/>
      <point x="490" y="860" type="line"/>
      <point x="499" y="930" type="line"/>
      <point x="245" y="930" type="line"/>
    </contour>
    <contour>
      <point x="120" y="780" type="line"/>
      <point x="18" y="0" type="line"/>
      <point x="468" y="0" type="line"/>
      <point x="480" y="92" type="line"/>
      <point x="134" y="92" type="line"/>
      <point x="168" y="352" type="line"/>
      <point x="464" y="352" type="line"/>
      <point x="476" y="444" type="line"/>
      <point x="180" y="444" type="line"/>
      <point x="212" y="688" type="line"/>
      <point x="558" y="688" type="line"/>
      <point x="570" y="780" type="line"/>
    </contour>
  </outline>
</glyph>
<glyph name="Ebreve" format="1">
  <advance width="557"/>
  <unicode hex="0114"/>
  <outline>
    <contour>
      <point x="361" y="827" type="curve" smooth="yes"/>
      <point x="474" y="827"/>
      <point x="523" y="881"/>
      <point x="533" y="950" type="curve"/>
      <point x="456" y="950" type="line"/>
      <point x="451" y="909"/>
      <point x="424" y="890"/>
      <point x="363" y="890" type="curve" smooth="yes"/>
      <point x="304" y="890"/>
      <point x="283" y="913"/>
      <point x="288" y="950" type="curve"/>
      <point x="215" y="950" type="line"/>
      <point x="205" y="881"/>
      <point x="241" y="827"/>
    </contour>
    <contour>
      <point x="120" y="780" type="line"/>
      <point x="18" y="0" type="line"/>
      <point x="468" y="0" type="line"/>
      <point x="480" y="92" type="line"/>
      <point x="134" y="92" type="line"/>
      <point x="168" y="352" type="line"/>
      <point x="464" y="352" type="line"/>
      <point x="476" y="444" type="line"/>
      <point x="180" y="444" type="line"/>
      <point x="212" y="688" type="line"/>
      <point x="558" y="688" type="line"/>
      <point x="570" y="780" type="line"/>
    </contour>
  </outline>
</glyph>
<glyph name="Edotaccent" format="1">
  <advance width="557"/>
  <unicode hex="0116"/>
  <outline>
    <contour>
      <point x="423" y="936" type="line"/>
      <point x="323" y="936" type="line"/>
      <point x="312" y="854" type="line"/>
      <point x="412" y="854" type="line"/>
    </contour>
    <contour>
      <point x="120" y="780" type="line"/>
      <point x="18" y="0" type="line"/>
      <point x="468" y="0" type="line"/>
      <point x="480" y="92" type="line"/>
      <point x="134" y="92" type="line"/>
      <point x="168" y="352" type="line"/>
      <point x="464" y="352" type="line"/>
      <point x="476" y="444" type="line"/>
      <point x="180" y="444" type="line"/>
      <point x="212" y="688" type="line"/>
      <point x="558" y="688" type="line"/>
      <point x="570" y="780" type="line"/>
    </contour>
  </outline>
</glyph>
<glyph name="Eogonek" format="1">
  <advance width="557"/>
  <unicode hex="0118"/>
  <outline>
    <contour>
      <point x="120" y="780" type="line"/>
      <point x="18" y="0" type="line"/>
      <point x="353" y="0" type="line"/>
      <point x="319" y="-28"/>
      <point x="296" y="-65"/>
      <point x="296" y="-115" type="curve" smooth="yes"/>
      <point x="296" y="-176"/>
      <point x="334" y="-213"/>
      <point x="406" y="-213" type="curve" smooth="yes"/>
      <point x="440" y="-213"/>
      <point x="476" y="-204"/>
      <point x="498" y="-191" type="curve"/>
      <point x="482" y="-123" type="line"/>
      <point x="469" y="-130"/>
      <point x="448" y="-136"/>
      <point x="421" y="-136" type="curve" smooth="yes"/>
      <point x="395" y="-136"/>
      <point x="380" y="-117"/>
      <point x="380" y="-95" type="curve" smooth="yes"/>
      <point x="380" y="-44"/>
      <point x="429" y="-16"/>
      <point x="468" y="0" type="curve"/>
      <point x="480" y="92" type="line"/>
      <point x="134" y="92" type="line"/>
      <point x="168" y="352" type="line"/>
      <point x="464" y="352" type="line"/>
      <point x="476" y="444" type="line"/>
      <point x="180" y="444" type="line"/>
      <point x="212" y="688" type="line"/>
      <point x="558" y="688" type="line"/>
      <point x="570" y="780" type="line"/>
    </contour>
  </outline>
</glyph>
<glyph name="eogonek" format="1">
  <advance width="548"/>
  <unicode hex="0119"/>
  <outline>
    <contour>
      <point x="487" y="227" type="line"/>
      <point x="493" y="271" type="line" smooth="yes"/>
      <point x="514" y="426"/>
      <point x="452" y="542"/>
      <point x="288" y="542" type="curve" smooth="yes"/>
      <point x="131" y="542"/>
      <point x="50" y="429"/>
      <point x="29" y="278" type="curve" smooth="yes"/>
      <point x="26" y="256" type="line" smooth="yes"/>
      <point x="7" y="119"/>
      <point x="58" y="6"/>
      <point x="207" y="-10" type="curve"/>
      <point x="180" y="-36"/>
      <point x="162" y="-71"/>
      <point x="162" y="-115" type="curve" smooth="yes"/>
      <point x="162" y="-176"/>
      <point x="200" y="-213"/>
      <point x="272" y="-213" type="curve" smooth="yes"/>
      <point x="306" y="-213"/>
      <point x="342" y="-204"/>
      <point x="364" y="-191" type="curve"/>
      <point x="348" y="-123" type="line"/>
      <point x="335" y="-130"/>
      <point x="314" y="-136"/>
      <point x="287" y="-136" type="curve" smooth="yes"/>
      <point x="261" y="-136"/>
      <point x="246" y="-117"/>
      <point x="246" y="-95" type="curve" smooth="yes"/>
      <point x="246" y="-45"/>
      <point x="292" y="-12"/>
      <point x="333" y="0" type="curve" smooth="yes"/>
      <point x="421" y="26"/>
      <point x="468" y="90"/>
      <point x="478" y="163" type="curve" smooth="yes"/>
      <point x="479" y="170" type="line"/>
      <point x="383" y="170" type="line"/>
      <point x="376" y="117"/>
      <point x="338" y="70"/>
      <point x="248" y="70" type="curve" smooth="yes"/>
      <point x="153" y="70"/>
      <point x="115" y="126"/>
      <point x="124" y="227" type="curve"/>
    </contour>
    <contour>
      <point x="286" y="460" type="curve" smooth="yes"/>
      <point x="374" y="460"/>
      <point x="408" y="403"/>
      <point x="396" y="303" type="curve"/>
      <point x="134" y="303" type="line"/>
      <point x="147" y="400"/>
      <point x="205" y="460"/>
    </contour>
  </outline>
</glyph>
<glyph name="Ecaron" format="1">
  <advance width="557"/>
  <unicode hex="011A"/>
  <outline>
    <contour>
      <point x="212" y="950" type="line"/>
      <point x="310" y="840" type="line"/>
      <point x="408" y="840" type="line"/>
      <point x="536" y="950" type="line"/>
      <point x="438" y="950" type="line"/>
      <point x="363" y="891" type="line"/>
      <point x="306" y="950" type="line"/>
    </contour>
    <contour>
      <point x="120" y="780" type="line"/>
      <point x="18" y="0" type="line"/>
      <point x="468" y="0" type="line"/>
      <point x="480" y="92" type="line"/>
      <point x="134" y="92" type="line"/>
      <point x="168" y="352" type="line"/>
      <point x="464" y="352" type="line"/>
      <point x="476" y="444" type="line"/>
      <point x="180" y="444" type="line"/>
      <point x="212" y="688" type="line"/>
      <point x="558" y="688" type="line"/>
      <point x="570" y="780" type="line"/>
    </contour>
  </outline>
</glyph>
<glyph name="Gcommaaccent" format="1">
  <advance width="655"/>
  <unicode hex="0122"/>
  <outline>
    <contour>
      <point x="340" y="-51" type="line"/>
      <point x="237" y="-51" type="line"/>
      <point x="227" y="-129" type="line"/>
      <point x="280" y="-129" type="line"/>
      <point x="273" y="-160"/>
      <point x="243" y="-172"/>
      <point x="204" y="-172" type="curve"/>
      <point x="198" y="-219" type="line"/>
      <point x="277" y="-219"/>
      <point x="323" y="-181"/>
      <point x="333" y="-105" type="curve" smooth="yes"/>
    </contour>
    <contour>
      <point x="302" y="-12" type="curve" smooth="yes"/>
      <point x="428" y="-12"/>
      <point x="494" y="30"/>
      <point x="554" y="79" type="curve"/>
      <point x="596" y="398" type="line"/>
      <point x="369" y="398" type="line"/>
      <point x="357" y="306" type="line"/>
      <point x="480" y="306" type="line"/>
      <point x="456" y="125" type="line"/>
      <point x="419" y="99"/>
      <point x="370" y="80"/>
      <point x="306" y="80" type="curve" smooth="yes"/>
      <point x="298" y="80" type="line" smooth="yes"/>
      <point x="176" y="80"/>
      <point x="129" y="169"/>
      <point x="155" y="367" type="curve" smooth="yes"/>
      <point x="161" y="413" type="line" smooth="yes"/>
      <point x="187" y="611"/>
      <point x="257" y="700"/>
      <point x="378" y="700" type="curve" smooth="yes"/>
      <point x="386" y="700" type="line" smooth="yes"/>
      <point x="494" y="700"/>
      <point x="522" y="633"/>
      <point x="503" y="491" type="curve"/>
      <point x="608" y="491" type="line"/>
      <point x="612" y="518" type="line" smooth="yes"/>
      <point x="639" y="702"/>
      <point x="563" y="792"/>
      <point x="382" y="792" type="curve" smooth="yes"/>
      <point x="195" y="792"/>
      <point x="90" y="683"/>
      <point x="55" y="413" type="curve" smooth="yes"/>
      <point x="49" y="367" type="line" smooth="yes"/>
      <point x="14" y="98"/>
      <point x="101" y="-12"/>
    </contour>
  </outline>
</glyph>
<glyph name="Hcircumflex" format="1">
  <advance width="647"/>
  <unicode hex="0124"/>
  <outline>
    <contour>
      <point x="529" y="780" type="line"/>
      <point x="485" y="444" type="line"/>
      <point x="180" y="444" type="line"/>
      <point x="224" y="780" type="line"/>
      <point x="120" y="780" type="line"/>
      <point x="18" y="0" type="line"/>
      <point x="122" y="0" type="line"/>
      <point x="168" y="352" type="line"/>
      <point x="473" y="352" type="line"/>
      <point x="427" y="0" type="line"/>
      <point x="531" y="0" type="line"/>
      <point x="633" y="780" type="line"/>
    </contour>
    <contour>
      <point x="547" y="840" type="line"/>
      <point x="449" y="950" type="line"/>
      <point x="351" y="950" type="line"/>
      <point x="223" y="840" type="line"/>
      <point x="321" y="840" type="line"/>
      <point x="396" y="899" type="line"/>
      <point x="453" y="840" type="line"/>
    </contour>
  </outline>
</glyph>
<glyph name="Hbar" format="1">
  <advance width="647"/>
  <unicode hex="0126"/>
  <outline>
    <contour>
      <point x="529" y="780" type="line"/>
      <point x="512" y="655" type="line"/>
      <point x="207" y="655" type="line"/>
      <point x="224" y="780" type="line"/>
      <point x="120" y="780" type="line"/>
      <point x="18" y="0" type="line"/>
      <point x="122" y="0" type="line"/>
      <point x="168" y="352" type="line"/>
      <point x="473" y="352" type="line"/>
      <point x="427" y="0" type="line"/>
      <point x="531" y="0" type="line"/>
      <point x="633" y="780" type="line"/>
    </contour>
    <contour>
      <point x="180" y="444" type="line"/>
      <point x="196" y="571" type="line"/>
      <point x="501" y="571" type="line"/>
      <point x="485" y="444" type="line"/>
    </contour>
  </outline>
</glyph>
<glyph name="hbar" format="1">
  <advance width="545"/>
  <unicode hex="0127"/>
  <outline>
    <contour>
      <point x="13" y="0" type="line"/>
      <point x="113" y="0" type="line"/>
      <point x="163" y="381" type="line"/>
      <point x="185" y="410"/>
      <point x="230" y="454"/>
      <point x="298" y="454" type="curve" smooth="yes"/>
      <point x="367" y="454"/>
      <point x="394" y="412"/>
      <point x="386" y="350" type="curve" smooth="yes"/>
      <point x="340" y="0" type="line"/>
      <point x="440" y="0" type="line"/>
      <point x="488" y="365" type="line" smooth="yes"/>
      <point x="500" y="459"/>
      <point x="454" y="542"/>
      <point x="340" y="542" type="curve" smooth="yes"/>
      <point x="268" y="542"/>
      <point x="213" y="515"/>
      <point x="175" y="475" type="curve"/>
      <point x="195" y="627" type="line"/>
      <point x="322" y="627" type="line"/>
      <point x="332" y="703" type="line"/>
      <point x="205" y="703" type="line"/>
      <point x="218" y="800" type="line"/>
      <point x="118" y="800" type="line"/>
      <point x="105" y="703" type="line"/>
      <point x="22" y="703" type="line"/>
      <point x="12" y="627" type="line"/>
      <point x="95" y="627" type="line"/>
    </contour>
  </outline>
</glyph>
<glyph name="Itilde" format="1">
  <advance width="248"/>
  <unicode hex="0128"/>
  <outline>
    <contour>
      <point x="299" y="940" type="line"/>
      <point x="295" y="912"/>
      <point x="277" y="901"/>
      <point x="260" y="901" type="curve" smooth="yes"/>
      <point x="221" y="901"/>
      <point x="183" y="952"/>
      <point x="124" y="952" type="curve" smooth="yes"/>
      <point x="75" y="952"/>
      <point x="32" y="922"/>
      <point x="23" y="850" type="curve"/>
      <point x="85" y="850" type="line"/>
      <point x="89" y="878"/>
      <point x="107" y="889"/>
      <point x="124" y="889" type="curve" smooth="yes"/>
      <point x="163" y="889"/>
      <point x="201" y="838"/>
      <point x="260" y="838" type="curve" smooth="yes"/>
      <point x="309" y="838"/>
      <point x="352" y="868"/>
      <point x="361" y="940" type="curve"/>
    </contour>
    <contour>
      <point x="229" y="780" type="line"/>
      <point x="125" y="780" type="line"/>
      <point x="23" y="0" type="line"/>
      <point x="127" y="0" type="line"/>
    </contour>
  </outline>
</glyph>
<glyph name="itilde" format="1">
  <advance width="234"/>
  <unicode hex="0129"/>
  <outline>
    <contour>
      <point x="268" y="755" type="line"/>
      <point x="264" y="723"/>
      <point x="246" y="714"/>
      <point x="227" y="714" type="curve" smooth="yes"/>
      <point x="186" y="714"/>
      <point x="154" y="768"/>
      <point x="88" y="768" type="curve" smooth="yes"/>
      <point x="30" y="768"/>
      <point x="-16" y="726"/>
      <point x="-20" y="645" type="curve"/>
      <point x="51" y="645" type="line"/>
      <point x="55" y="677"/>
      <point x="73" y="686"/>
      <point x="92" y="686" type="curve" smooth="yes"/>
      <point x="133" y="686"/>
      <point x="165" y="632"/>
      <point x="231" y="632" type="curve" smooth="yes"/>
      <point x="289" y="632"/>
      <point x="335" y="674"/>
      <point x="339" y="755" type="curve"/>
    </contour>
    <contour>
      <point x="18" y="0" type="line"/>
      <point x="118" y="0" type="line"/>
      <point x="187" y="530" type="line"/>
      <point x="87" y="530" type="line"/>
    </contour>
  </outline>
</glyph>
<glyph name="Imacron" format="1">
  <advance width="248"/>
  <unicode hex="012A"/>
  <outline>
    <contour>
      <point x="62" y="860" type="line"/>
      <point x="316" y="860" type="line"/>
      <point x="325" y="930" type="line"/>
      <point x="71" y="930" type="line"/>
    </contour>
    <contour>
      <point x="229" y="780" type="line"/>
      <point x="125" y="780" type="line"/>
      <point x="23" y="0" type="line"/>
      <point x="127" y="0" type="line"/>
    </contour>
  </outline>
</glyph>
<glyph name="imacron" format="1">
  <advance width="234"/>
  <unicode hex="012B"/>
  <outline>
    <contour>
      <point x="25" y="652" type="line"/>
      <point x="282" y="652" type="line"/>
      <point x="294" y="742" type="line"/>
      <point x="37" y="742" type="line"/>
    </contour>
    <contour>
      <point x="18" y="0" type="line"/>
      <point x="118" y="0" type="line"/>
      <point x="187" y="530" type="line"/>
      <point x="87" y="530" type="line"/>
    </contour>
  </outline>
</glyph>
<glyph name="Ibreve" format="1">
  <advance width="248"/>
  <unicode hex="012C"/>
  <outline>
    <contour>
      <point x="187" y="827" type="curve" smooth="yes"/>
      <point x="300" y="827"/>
      <point x="349" y="881"/>
      <point x="359" y="950" type="curve"/>
      <point x="282" y="950" type="line"/>
      <point x="277" y="909"/>
      <point x="250" y="890"/>
      <point x="189" y="890" type="curve" smooth="yes"/>
      <point x="130" y="890"/>
      <point x="109" y="913"/>
      <point x="114" y="950" type="curve"/>
      <point x="41" y="950" type="line"/>
      <point x="31" y="881"/>
      <point x="67" y="827"/>
    </contour>
    <contour>
      <point x="229" y="780" type="line"/>
      <point x="125" y="780" type="line"/>
      <point x="23" y="0" type="line"/>
      <point x="127" y="0" type="line"/>
    </contour>
  </outline>
</glyph>
<glyph name="ibreve" format="1">
  <advance width="234"/>
  <unicode hex="012D"/>
  <outline>
    <contour>
      <point x="152" y="595" type="curve" smooth="yes"/>
      <point x="275" y="595"/>
      <point x="327" y="667"/>
      <point x="340" y="780" type="curve"/>
      <point x="261" y="780" type="line"/>
      <point x="254" y="711"/>
      <point x="219" y="675"/>
      <point x="152" y="675" type="curve" smooth="yes"/>
      <point x="91" y="675"/>
      <point x="66" y="714"/>
      <point x="75" y="780" type="curve"/>
      <point x="0" y="780" type="line"/>
      <point x="-16" y="673"/>
      <point x="29" y="595"/>
    </contour>
    <contour>
      <point x="18" y="0" type="line"/>
      <point x="118" y="0" type="line"/>
      <point x="187" y="530" type="line"/>
      <point x="87" y="530" type="line"/>
    </contour>
  </outline>
</glyph>
<glyph name="Iogonek" format="1">
  <advance width="248"/>
  <unicode hex="012E"/>
  <outline>
    <contour>
      <point x="229" y="780" type="line"/>
      <point x="125" y="780" type="line"/>
      <point x="24" y="9" type="line"/>
      <point x="-15" y="-19"/>
      <point x="-45" y="-59"/>
      <point x="-45" y="-115" type="curve" smooth="yes"/>
      <point x="-45" y="-176"/>
      <point x="-7" y="-213"/>
      <point x="65" y="-213" type="curve" smooth="yes"/>
      <point x="99" y="-213"/>
      <point x="135" y="-204"/>
      <point x="157" y="-191" type="curve"/>
      <point x="141" y="-123" type="line"/>
      <point x="128" y="-130"/>
      <point x="107" y="-136"/>
      <point x="80" y="-136" type="curve" smooth="yes"/>
      <point x="54" y="-136"/>
      <point x="39" y="-117"/>
      <point x="39" y="-95" type="curve" smooth="yes"/>
      <point x="39" y="-44"/>
      <point x="88" y="-16"/>
      <point x="127" y="0" type="curve"/>
    </contour>
  </outline>
</glyph>
<glyph name="iogonek" format="1">
  <advance width="234"/>
  <unicode hex="012F"/>
  <outline>
    <contour>
      <point x="118" y="0" type="curve"/>
      <point x="187" y="530" type="line"/>
      <point x="87" y="530" type="line"/>
      <point x="19" y="13" type="line"/>
      <point x="-22" y="-16"/>
      <point x="-54" y="-57"/>
      <point x="-54" y="-115" type="curve" smooth="yes"/>
      <point x="-54" y="-176"/>
      <point x="-16" y="-213"/>
      <point x="56" y="-213" type="curve" smooth="yes"/>
      <point x="90" y="-213"/>
      <point x="126" y="-204"/>
      <point x="148" y="-191" type="curve"/>
      <point x="132" y="-123" type="line"/>
      <point x="119" y="-130"/>
      <point x="98" y="-136"/>
      <point x="71" y="-136" type="curve" smooth="yes"/>
      <point x="45" y="-136"/>
      <point x="30" y="-117"/>
      <point x="30" y="-95" type="curve" smooth="yes"/>
      <point x="30" y="-44"/>
      <point x="79" y="-16"/>
    </contour>
    <contour>
      <point x="224" y="754" type="line"/>
      <point x="110" y="754" type="line"/>
      <point x="95" y="640" type="line"/>
      <point x="209" y="640" type="line"/>
    </contour>
  </outline>
</glyph>
<glyph name="Idotaccent" format="1">
  <advance width="248"/>
  <unicode hex="0130"/>
  <outline>
    <contour>
      <point x="249" y="936" type="line"/>
      <point x="149" y="936" type="line"/>
      <point x="138" y="854" type="line"/>
      <point x="238" y="854" type="line"/>
    </contour>
    <contour>
      <point x="229" y="780" type="line"/>
      <point x="125" y="780" type="line"/>
      <point x="23" y="0" type="line"/>
      <point x="127" y="0" type="line"/>
    </contour>
  </outline>
</glyph>
<glyph name="dotlessi" format="1">
  <advance width="234"/>
  <unicode hex="0131"/>
  <outline>
    <contour>
      <point x="18" y="0" type="line"/>
      <point x="118" y="0" type="line"/>
      <point x="187" y="530" type="line"/>
      <point x="87" y="530" type="line"/>
    </contour>
  </outline>
</glyph>
<glyph name="IJ" format="1">
  <advance width="537"/>
  <unicode hex="0132"/>
  <outline>
    <contour>
      <point x="345" y="181" type="line" smooth="yes"/>
      <point x="335" y="104"/>
      <point x="306" y="80"/>
      <point x="255" y="80" type="curve" smooth="yes"/>
      <point x="229" y="80"/>
      <point x="199" y="86"/>
      <point x="190" y="90" type="curve"/>
      <point x="179" y="2" type="line"/>
      <point x="186" y="-2"/>
      <point x="217" y="-12"/>
      <point x="267" y="-12" type="curve" smooth="yes"/>
      <point x="359" y="-12"/>
      <point x="430" y="29"/>
      <point x="448" y="169" type="curve" smooth="yes"/>
      <point x="528" y="780" type="line"/>
      <point x="424" y="780" type="line"/>
    </contour>
    <contour>
      <point x="229" y="780" type="line"/>
      <point x="125" y="780" type="line"/>
      <point x="23" y="0" type="line"/>
      <point x="127" y="0" type="line"/>
    </contour>
  </outline>
</glyph>
<glyph name="ij" format="1">
  <advance width="417"/>
  <unicode hex="0133"/>
  <outline>
    <contour>
      <point x="18" y="0" type="line"/>
      <point x="118" y="0" type="line"/>
      <point x="187" y="530" type="line"/>
      <point x="87" y="530" type="line"/>
    </contour>
    <contour>
      <point x="224" y="754" type="line"/>
      <point x="110" y="754" type="line"/>
      <point x="95" y="640" type="line"/>
      <point x="209" y="640" type="line"/>
    </contour>
    <contour>
      <point x="407" y="754" type="line"/>
      <point x="293" y="754" type="line"/>
      <point x="278" y="640" type="line"/>
      <point x="392" y="640" type="line"/>
    </contour>
    <contour>
      <point x="196" y="-31" type="line" smooth="yes"/>
      <point x="186" y="-108"/>
      <point x="149" y="-124"/>
      <point x="95" y="-124" type="curve" smooth="yes"/>
      <point x="71" y="-124"/>
      <point x="45" y="-119"/>
      <point x="37" y="-116" type="curve"/>
      <point x="26" y="-200" type="line"/>
      <point x="31" y="-203"/>
      <point x="56" y="-212"/>
      <point x="100" y="-212" type="curve" smooth="yes"/>
      <point x="200" y="-212"/>
      <point x="278" y="-170"/>
      <point x="295" y="-39" type="curve" smooth="yes"/>
      <point x="370" y="530" type="line"/>
      <point x="270" y="530" type="line"/>
    </contour>
  </outline>
</glyph>
<glyph name="Jcircumflex" format="1">
  <advance width="510"/>
  <unicode hex="0134"/>
  <outline>
    <contour>
      <point x="397" y="780" type="line"/>
      <point x="328" y="254" type="line" smooth="yes"/>
      <point x="312" y="136"/>
      <point x="276" y="80"/>
      <point x="192" y="80" type="curve" smooth="yes"/>
      <point x="118" y="80"/>
      <point x="90" y="124"/>
      <point x="111" y="259" type="curve"/>
      <point x="12" y="259" type="line"/>
      <point x="8" y="232" type="line" smooth="yes"/>
      <point x="-16" y="73"/>
      <point x="42" y="-12"/>
      <point x="192" y="-12" type="curve" smooth="yes"/>
      <point x="341" y="-12"/>
      <point x="409" y="82"/>
      <point x="430" y="239" type="curve" smooth="yes"/>
      <point x="501" y="780" type="line"/>
    </contour>
    <contour>
      <point x="619" y="840" type="line"/>
      <point x="521" y="950" type="line"/>
      <point x="423" y="950" type="line"/>
      <point x="295" y="840" type="line"/>
      <point x="393" y="840" type="line"/>
      <point x="468" y="899" type="line"/>
      <point x="525" y="840" type="line"/>
    </contour>
  </outline>
</glyph>
<glyph name="Kcommaaccent" format="1">
  <advance width="585"/>
  <unicode hex="0136"/>
  <outline>
    <contour>
      <point x="286" y="-51" type="line"/>
      <point x="183" y="-51" type="line"/>
      <point x="173" y="-129" type="line"/>
      <point x="226" y="-129" type="line"/>
      <point x="219" y="-160"/>
      <point x="189" y="-172"/>
      <point x="150" y="-172" type="curve"/>
      <point x="144" y="-219" type="line"/>
      <point x="223" y="-219"/>
      <point x="269" y="-181"/>
      <point x="279" y="-105" type="curve" smooth="yes"/>
    </contour>
    <contour>
      <point x="224" y="780" type="line"/>
      <point x="120" y="780" type="line"/>
      <point x="18" y="0" type="line"/>
      <point x="122" y="0" type="line"/>
      <point x="152" y="235" type="line"/>
      <point x="260" y="363" type="line"/>
      <point x="392" y="0" type="line"/>
      <point x="506" y="0" type="line"/>
      <point x="338" y="457" type="line"/>
      <point x="608" y="780" type="line"/>
      <point x="482" y="780" type="line"/>
      <point x="174" y="402" type="line"/>
    </contour>
  </outline>
</glyph>
<glyph name="kcommaaccent" format="1">
  <advance width="522"/>
  <unicode hex="0137"/>
  <outline>
    <contour>
      <point x="11" y="0" type="line"/>
      <point x="111" y="0" type="line"/>
      <point x="130" y="153" type="line"/>
      <point x="236" y="256" type="line"/>
      <point x="339" y="0" type="line"/>
      <point x="449" y="0" type="line"/>
      <point x="312" y="330" type="line"/>
      <point x="518" y="530" type="line"/>
      <point x="393" y="530" type="line"/>
      <point x="149" y="290" type="line"/>
      <point x="216" y="800" type="line"/>
      <point x="116" y="800" type="line"/>
    </contour>
    <contour>
      <point x="263" y="-51" type="line"/>
      <point x="160" y="-51" type="line"/>
      <point x="150" y="-129" type="line"/>
      <point x="203" y="-129" type="line"/>
      <point x="196" y="-160"/>
      <point x="166" y="-172"/>
      <point x="127" y="-172" type="curve"/>
      <point x="121" y="-219" type="line"/>
      <point x="200" y="-219"/>
      <point x="246" y="-181"/>
      <point x="256" y="-105" type="curve" smooth="yes"/>
    </contour>
  </outline>
</glyph>
<glyph name="kgreenlandic" format="1">
  <advance width="522"/>
  <unicode hex="0138"/>
  <outline>
    <contour>
      <point x="81" y="530" type="line"/>
      <point x="11" y="0" type="line"/>
      <point x="111" y="0" type="line"/>
      <point x="130" y="153" type="line"/>
      <point x="236" y="256" type="line"/>
      <point x="339" y="0" type="line"/>
      <point x="449" y="0" type="line"/>
      <point x="312" y="330" type="line"/>
      <point x="518" y="530" type="line"/>
      <point x="393" y="530" type="line"/>
      <point x="149" y="290" type="line"/>
      <point x="181" y="530" type="line"/>
    </contour>
  </outline>
</glyph>
<glyph name="Lacute" format="1">
  <advance width="501"/>
  <unicode hex="0139"/>
  <outline>
    <contour>
      <point x="202" y="950" type="line"/>
      <point x="129" y="840" type="line"/>
      <point x="231" y="840" type="line"/>
      <point x="309" y="950" type="line"/>
    </contour>
    <contour>
      <point x="437" y="0" type="line"/>
      <point x="449" y="92" type="line"/>
      <point x="134" y="92" type="line"/>
      <point x="224" y="780" type="line"/>
      <point x="120" y="780" type="line"/>
      <point x="18" y="0" type="line"/>
    </contour>
  </outline>
</glyph>
<glyph name="lacute" format="1">
  <advance width="234"/>
  <unicode hex="013A"/>
  <outline>
    <contour>
      <point x="18" y="0" type="line"/>
      <point x="118" y="0" type="line"/>
      <point x="223" y="800" type="line"/>
      <point x="123" y="800" type="line"/>
    </contour>
    <contour>
      <point x="200" y="950" type="line"/>
      <point x="127" y="840" type="line"/>
      <point x="229" y="840" type="line"/>
      <point x="307" y="950" type="line"/>
    </contour>
  </outline>
</glyph>
<glyph name="Lcommaaccent" format="1">
  <advance width="501"/>
  <unicode hex="013B"/>
  <outline>
    <contour>
      <point x="437" y="0" type="line"/>
      <point x="449" y="92" type="line"/>
      <point x="134" y="92" type="line"/>
      <point x="224" y="780" type="line"/>
      <point x="120" y="780" type="line"/>
      <point x="18" y="0" type="line"/>
    </contour>
    <contour>
      <point x="273" y="-51" type="line"/>
      <point x="170" y="-51" type="line"/>
      <point x="160" y="-129" type="line"/>
      <point x="213" y="-129" type="line"/>
      <point x="206" y="-160"/>
      <point x="176" y="-172"/>
      <point x="137" y="-172" type="curve"/>
      <point x="131" y="-219" type="line"/>
      <point x="210" y="-219"/>
      <point x="256" y="-181"/>
      <point x="266" y="-105" type="curve" smooth="yes"/>
    </contour>
  </outline>
</glyph>
<glyph name="lcommaaccent" format="1">
  <advance width="234"/>
  <unicode hex="013C"/>
  <outline>
    <contour>
      <point x="18" y="0" type="line"/>
      <point x="118" y="0" type="line"/>
      <point x="223" y="800" type="line"/>
      <point x="123" y="800" type="line"/>
    </contour>
    <contour>
      <point x="113" y="-51" type="line"/>
      <point x="10" y="-51" type="line"/>
      <point x="0" y="-129" type="line"/>
      <point x="53" y="-129" type="line"/>
      <point x="46" y="-160"/>
      <point x="16" y="-172"/>
      <point x="-23" y="-172" type="curve"/>
      <point x="-29" y="-219" type="line"/>
      <point x="50" y="-219"/>
      <point x="96" y="-181"/>
      <point x="106" y="-105" type="curve" smooth="yes"/>
    </contour>
  </outline>
</glyph>
<glyph name="Lcaron" format="1">
  <advance width="501"/>
  <unicode hex="013D"/>
  <outline>
    <contour>
      <point x="362" y="800" type="line"/>
      <point x="336" y="607" type="line"/>
      <point x="388" y="607" type="line"/>
      <point x="433" y="800" type="line"/>
    </contour>
    <contour>
      <point x="437" y="0" type="line"/>
      <point x="449" y="92" type="line"/>
      <point x="134" y="92" type="line"/>
      <point x="224" y="780" type="line"/>
      <point x="120" y="780" type="line"/>
      <point x="18" y="0" type="line"/>
    </contour>
  </outline>
</glyph>
<glyph name="lcaron" format="1">
  <advance width="234"/>
  <unicode hex="013E"/>
  <outline>
    <contour>
      <point x="18" y="0" type="line"/>
      <point x="118" y="0" type="line"/>
      <point x="223" y="800" type="line"/>
      <point x="123" y="800" type="line"/>
    </contour>
    <contour>
      <point x="290" y="800" type="line"/>
      <point x="264" y="607" type="line"/>
      <point x="316" y="607" type="line"/>
      <point x="361" y="800" type="line"/>
    </contour>
  </outline>
</glyph>
<glyph name="Ldot" format="1">
  <advance width="501"/>
  <unicode hex="013F"/>
  <outline>
    <contour>
      <point x="437" y="0" type="line"/>
      <point x="449" y="92" type="line"/>
      <point x="134" y="92" type="line"/>
      <point x="224" y="780" type="line"/>
      <point x="120" y="780" type="line"/>
      <point x="18" y="0" type="line"/>
    </contour>
    <contour>
      <point x="433" y="456" type="line"/>
      <point x="318" y="456" type="line"/>
      <point x="303" y="340" type="line"/>
      <point x="418" y="340" type="line"/>
    </contour>
  </outline>
</glyph>
<glyph name="ldot" format="1">
  <advance width="371"/>
  <unicode hex="0140"/>
  <outline>
    <contour>
      <point x="18" y="0" type="line"/>
      <point x="118" y="0" type="line"/>
      <point x="223" y="800" type="line"/>
      <point x="123" y="800" type="line"/>
    </contour>
    <contour>
      <point x="363" y="407" type="line"/>
      <point x="249" y="407" type="line"/>
      <point x="234" y="293" type="line"/>
      <point x="348" y="293" type="line"/>
    </contour>
  </outline>
</glyph>
<glyph name="Lslash" format="1">
  <advance width="561"/>
  <unicode hex="0141"/>
  <outline>
    <contour>
      <point x="-3" y="238" type="line"/>
      <point x="116" y="293" type="line"/>
      <point x="78" y="0" type="line"/>
      <point x="497" y="0" type="line"/>
      <point x="509" y="92" type="line"/>
      <point x="194" y="92" type="line"/>
      <point x="227" y="345" type="line"/>
      <point x="446" y="451" type="line"/>
      <point x="458" y="542" type="line"/>
      <point x="239" y="436" type="line"/>
      <point x="284" y="780" type="line"/>
      <point x="180" y="780" type="line"/>
      <point x="128" y="383" type="line"/>
      <point x="10" y="329" type="line"/>
    </contour>
  </outline>
</glyph>
